<?xml version="1.0" standalone="no"?>
<!DOCTYPE svg PUBLIC "-//W3C//DTD SVG 1.1//EN" "http://www.w3.org/Graphics/SVG/1.1/DTD/svg11.dtd" >
<svg>
<metadata>
Created by FontForge 20090914 at Thu Nov 25 08:40:14 2021
 By www-data
Copyright &#194;&#169; 1995 ParaGraph Intl., &#194;&#169; 1998 ParaType Inc., ParaType Ltd. All rights reserved.
</metadata>
<defs>
<font id="FuturaPT-Book" horiz-adv-x="500" >
  <font-face 
    font-family="Futura PT Book"
    font-weight="400"
    font-stretch="normal"
    units-per-em="1000"
    panose-1="2 11 5 2 2 2 4 2 3 3"
    ascent="763"
    descent="-237"
    x-height="415"
    cap-height="667"
    bbox="-362 -250 1027 926"
    underline-thickness="50"
    underline-position="-150"
    unicode-range="U+0020-U+FB02"
  />
<missing-glyph horiz-adv-x="233" 
 />
    <glyph glyph-name="afii10017.var.accented" unicode="&#x410;`" horiz-adv-x="622" 
d="M532 0l-78 188h-284l-80 -188h-82l307 699l299 -699h-82zM199 258h226l-112 267zM393 882l70 -45l-153 -117l-43 32z" />
    <glyph glyph-name="afii10022.var.accented" unicode="&#x415;`" horiz-adv-x="482" 
d="M432 667v-70h-272v-198h264v-70h-264v-259h272v-70h-346v667h346zM323 882l70 -45l-153 -117l-43 32z" />
    <glyph glyph-name="afii10026.var.accented" unicode="&#x418;`" horiz-adv-x="710" 
d="M550 0v509l-464 -539v697h74v-511l464 539v-695h-74zM437 882l70 -45l-153 -117l-43 32z" />
    <glyph glyph-name="afii10032.var.accented" unicode="&#x41e;`" horiz-adv-x="794" 
d="M397 -12c-97.333 0 -179.5 33 -246.5 99s-100.5 148 -100.5 246c0 98.667 33.667 180.834 101 246.501s149.333 98.5 246 98.5s178.667 -32.833 246 -98.5s101 -147.834 101 -246.501c0 -98 -33.5 -180 -100.5 -246s-149.167 -99 -246.5 -99zM397 608
c-75.333 0 -139.333 -26.667 -192 -80s-79 -118.333 -79 -195s26.333 -141.667 79 -195s116.667 -80 192 -80s139.333 26.667 192 80s79 118.333 79 195s-26.333 141.667 -79 195s-116.667 80 -192 80zM479 882l70 -45l-153 -117l-43 32z" />
    <glyph glyph-name="afii10037.var.accented" unicode="&#x423;`" horiz-adv-x="568" 
d="M8 667h90l208 -393l174 393h80l-301 -667h-80l85 186zM366 882l70 -45l-153 -117l-43 32z" />
    <glyph glyph-name="afii10045.var.accented" unicode="&#x42b;`" horiz-adv-x="710" 
d="M86 0v667h74v-277h90c153.333 0 230 -62.667 230 -188c0 -62.667 -19.5 -112 -58.5 -148s-91.5 -54 -157.5 -54h-178zM160 320v-250h86c56.667 0 97.667 12.333 123 37c23.333 22 35 53.667 35 95c0 48 -18 81.667 -54 101c-20.667 11.333 -58 17 -112 17h-78zM550 667
h74v-667h-74v667zM437 882l70 -45l-153 -117l-43 32z" />
    <glyph glyph-name="afii10047.var.accented" unicode="&#x42d;`" horiz-adv-x="645" 
d="M50 520l0.00292969 92c64 44 136.333 66 217 66c99.333 0 178.833 -32.5 238.5 -97.5s89.5 -148.167 89.5 -249.5c0 -99.333 -29.333 -181.333 -88 -246s-137.334 -97 -236.001 -97c-80 0 -153.667 21.667 -221 65v92c20 -20.667 45.667 -38.667 77 -54
c46 -22 94 -33 144 -33c67.333 0 125.666 23.667 174.999 71s73.666 107.666 72.999 180.999h-389v70h386c-5.33301 64.667 -30.5 118.834 -75.5 162.501s-101.167 65.5 -168.5 65.5c-47.333 0 -92.333 -9.33301 -135 -28c-34 -16 -63 -36 -87 -60zM338.003 882l70 -45
l-153 -117l-43 32z" />
    <glyph glyph-name="afii10048.var.accented" unicode="&#x42e;`" horiz-adv-x="990" 
d="M160 389h101.999c12 83.333 49.167 152.333 111.5 207s137.5 82 225.5 82c98.667 0 180.167 -32.333 244.5 -97s96.5 -147.334 96.5 -248.001c0 -99.333 -32.333 -181.666 -97 -246.999s-146 -98 -244 -98c-96.667 0 -176.667 32.333 -240 97
s-96.666 142.667 -99.999 234h-99v-319h-74v667h74v-278zM598.999 608c-74 0 -136.5 -26.333 -187.5 -79s-76.5 -118 -76.5 -196s25.5 -143.333 76.5 -196s113.5 -79 187.5 -79s136.667 26.333 188 79s77 118 77 196s-25.667 143.333 -77 196s-114 79 -188 79zM576.999 882
l70 -45l-153 -117l-43 32z" />
    <glyph glyph-name="afii10049.var.accented" unicode="&#x42f;`" horiz-adv-x="510" 
d="M30 0l195.999 296.001c-45.333 4.66699 -82.666 18.667 -111.999 42c-38.667 31.333 -58 76.666 -58 135.999c0 54.667 15.333 99 46 133c36 40 91.333 60 166 60h156v-667h-74v292h-40l-190 -292h-90zM349.999 597.001l-72 0.000976562
c-53.333 0 -91.333 -11.667 -114 -35c-21.333 -22.667 -32 -51.334 -32 -86.001c0 -39.333 12.667 -69.333 38 -90c24 -18.667 58 -28 102 -28h78v239zM336.999 882.002l70 -45l-153 -117l-43 32z" />
    <glyph glyph-name="afii10023.var.accented" unicode="&#x401;`" horiz-adv-x="482" 
d="M432 667v-70h-272v-198h264v-70h-264v-259h272v-70h-346v667h346zM291 882l55 -37l-124 -118l-34 25zM86 793c0 14 4.5 25.5 13.5 34.5s20.5 13.5 34.5 13.5c15.333 0 27.333 -5 36 -15s13 -21 13 -33c0 -13.333 -4.83301 -24.833 -14.5 -34.5s-21.167 -14.5 -34.5 -14.5
c-12 0 -23 4.33301 -33 13s-15 20.667 -15 36zM335 793c0 12 4.33301 23 13 33s20.667 15 36 15c14 0 25.5 -4.5 34.5 -13.5s13.5 -20.5 13.5 -34.5c0 -15.333 -5 -27.333 -15 -36s-21 -13 -33 -13c-13.333 0 -24.833 4.83301 -34.5 14.5s-14.5 21.167 -14.5 34.5z" />
    <glyph glyph-name="afii10065.var.accented" unicode="&#x430;`" horiz-adv-x="526" 
d="M386 356v59h72v-415h-72v58c-36 -46.667 -83.333 -70 -142 -70c-56 0 -103.667 19.333 -143 58s-59 92.667 -59 162c0 68 19.5 121.167 58.5 159.5s86.833 57.5 143.5 57.5c60 0 107.333 -23 142 -69zM252 361c-38 0 -70.167 -13.5 -96.5 -40.5s-39.5 -64.5 -39.5 -112.5
c0 -46 12.167 -83.5 36.5 -112.5s57.5 -43.5 99.5 -43.5s75.5 15 100.5 45s37.5 66.667 37.5 110c0 49.333 -14 87.333 -42 114s-60 40 -96 40zM325 666l74 -34l-134 -135l-45 24z" />
    <glyph glyph-name="afii10070.var.accented" unicode="&#x435;`" horiz-adv-x="481" 
d="M376 139l60.002 -33c-14 -26.667 -31 -49 -51 -67c-38 -34 -84 -51 -138 -51c-56 0 -104.167 18.167 -144.5 54.5s-60.5 90.5 -60.5 162.5c0 63.333 18.167 115.833 54.5 157.5s85.166 62.5 146.499 62.5c69.333 0 121.666 -25.333 156.999 -76c28 -40 41 -92 39 -156
h-323c0.666992 -42 13.667 -76 39 -102s56.333 -39 93 -39c32.667 0 61 10 85 30c18.667 16 33 35 43 57zM121.002 253l244 -0.00195312c-6 32.667 -20.167 58.834 -42.5 78.501s-48.833 29.5 -79.5 29.5c-30 0 -56.5 -10.167 -79.5 -30.5s-37.167 -46.166 -42.5 -77.499z
M302.002 665.998l74 -34l-134 -135l-45 24z" />
    <glyph glyph-name="afii10074.var.accented" unicode="&#x438;`" horiz-adv-x="492" 
d="M68 415h72v-274l284 306v-447h-72v277l-284 -306v444zM308 666l74 -34l-134 -135l-45 24z" />
    <glyph glyph-name="afii10080.var.accented" unicode="&#x43e;`" horiz-adv-x="524" 
d="M262 -12c-63.333 0 -115.833 20.667 -157.5 62s-62.5 93.333 -62.5 156c0 63.333 20.833 115.666 62.5 156.999s94.167 62 157.5 62s115.833 -20.667 157.5 -62s62.5 -93.666 62.5 -156.999c0 -62.667 -20.833 -114.667 -62.5 -156s-94.167 -62 -157.5 -62zM262 361
c-40.667 0 -75.167 -13.833 -103.5 -41.5s-42.5 -65.5 -42.5 -113.5s14.333 -85.667 43 -113s63 -41 103 -41s74.333 13.667 103 41s43 65 43 113c0 48.667 -14.167 86.667 -42.5 114s-62.833 41 -103.5 41zM324 666l74 -34l-134 -135l-45 24z" />
    <glyph glyph-name="afii10085.var.accented" unicode="&#x443;`" horiz-adv-x="460" 
d="M67 -230l132 269l-191 376h82l147 -297l135 297h80l-305 -645h-80zM292 666l74 -34l-134 -135l-45 24z" />
    <glyph glyph-name="afii10093.var.accented" unicode="&#x44b;`" horiz-adv-x="562" 
d="M68 0l0.000976562 415h72v-159h74c57.333 0 99.333 -13.667 126 -41c21.333 -21.333 32 -50.333 32 -87c0 -38.667 -12.333 -69.667 -37 -93s-65.334 -35 -122.001 -35h-145zM140.001 64h67c30 0 51.333 3.66699 64 11c18 12 27 29.667 27 53
c0 24 -8.66699 41.333 -26 52c-12 8 -33.333 12 -64 12h-68v-128zM422.001 0v415h72v-415h-72zM343.001 666l74 -34l-134 -135l-45 24z" />
    <glyph glyph-name="afii10095.var.accented" unicode="&#x44d;`" horiz-adv-x="423" 
d="M42 334l-0.000976562 69.999c34.667 14 72.334 21 113.001 21c70 0 125.167 -20.333 165.5 -61s60.5 -93.667 60.5 -159c0 -63.333 -20.5 -115.333 -61.5 -156s-94.167 -61 -159.5 -61c-41.333 0 -80.666 7.66699 -117.999 23v70c36.667 -19.333 75.667 -29 117 -29
c38.667 0 72 11.833 100 35.5s44 54.5 48 92.5h-219v64h219c-8 36.667 -25.667 65.334 -53 86.001s-59.333 31 -96 31c-38.667 0 -77.334 -9 -116.001 -27zM222.999 665.999l74 -34l-134 -135l-45 24z" />
    <glyph glyph-name="afii10096.var.accented" unicode="&#x44e;`" horiz-adv-x="690" 
d="M140 245l75 -0.000976562c6.66699 46.667 25.334 86 56.001 118c39.333 41.333 91.666 62 156.999 62c64 0 116.667 -20.667 158 -62s62 -93.666 62 -156.999c0 -62.667 -20.833 -114.667 -62.5 -156s-94.167 -62 -157.5 -62c-72.667 0 -129.667 26 -171 78
c-26.667 33.333 -42 71 -46 113h-71v-179h-72v415h72v-170zM428 360.999c-40 0 -73.833 -13.833 -101.5 -41.5s-41.5 -65.5 -41.5 -113.5c0 -48.667 14 -86.5 42 -113.5s61.667 -40.5 101 -40.5c40 0 74.333 13.667 103 41s43 65 43 113s-14.167 85.833 -42.5 113.5
s-62.833 41.5 -103.5 41.5zM407 665.999l74 -34l-134 -135l-45 24z" />
    <glyph glyph-name="afii10097.var.accented" unicode="&#x44f;`" horiz-adv-x="408" 
d="M20 0l128.999 171c-4 0 -9.5 0.666992 -16.5 2s-17.167 4.66602 -30.5 9.99902s-24.333 12.333 -33 21c-22 20.667 -33 48.334 -33 83.001c0 39.333 12.333 70.333 37 93c24.667 23.333 65.334 35 122.001 35h145v-415h-72v167h-44l-118 -167h-86zM267.999 227v124.001
h-67c-31.333 0 -53 -3.66699 -65 -11c-17.333 -11.333 -26 -28.333 -26 -51s8.66699 -39.334 26 -50.001c12.667 -8 34 -12 64 -12h68zM265.999 666.001l74 -34l-134 -135l-45 24z" />
    <glyph glyph-name="afii10071.var.accented" unicode="&#x451;`" horiz-adv-x="481" 
d="M376 139l60 -32.999c-14 -26.667 -31 -49 -51 -67c-37.333 -34 -83.333 -51 -138 -51c-60 0 -108 18 -144 54c-40.667 40 -61 94.333 -61 163c0 71.333 22 127.666 66 168.999c36 34 81 51 135 51c70.667 0 123 -25.333 157 -76c28 -40 41 -92 39 -156h-323
c-0.666992 -41.333 13.333 -76.333 42 -105c24 -24 54 -36 90 -36c34 0 62.333 10 85 30c18.667 16 33 35 43 57zM121 253.001l243.998 0.00195312c-4.66699 27.333 -17 51.666 -37 72.999c-23.333 23.333 -51.666 35 -84.999 35s-61.666 -12.333 -84.999 -37
c-18.667 -18.667 -31 -42.334 -37 -71.001zM77.998 550.003c0 13.333 5 25 15 35s21.667 15 35 15s25 -5 35 -15s15 -21.667 15 -35s-5 -25 -15 -35s-21.667 -15 -35 -15s-25 5 -35 15s-15 21.667 -15 35zM307.998 550.003c0 13.333 5 25 15 35s21.667 15 35 15
s25 -5 35 -15s15 -21.667 15 -35s-5 -25 -15 -35s-21.667 -15 -35 -15s-25 5 -35 15s-15 21.667 -15 35zM290.998 666.003l61 -27l-134 -135l-32 17z" />
    <glyph glyph-name="fi" unicode="fi" horiz-adv-x="460" 
d="M244 349l-102 -0.000976562v-349h-72v349h-40v66h40v156c0 50 8 86.333 24 109c27.333 40.667 73 61 137 61c65.333 0 111 -20.333 137 -61c16 -26 24 -62.333 24 -109v-17h-72v17c0 28.667 -4.66699 50.334 -14 65.001c-14 21.333 -39 32 -75 32s-61 -10.667 -75 -32
c-9.33301 -13.333 -14 -35 -14 -65v-156h102v-66zM320 414.999h72v-415h-72v415z" />
    <glyph glyph-name="fl" unicode="fl" horiz-adv-x="460" 
d="M244 349l-102 -0.000976562v-349h-72v349h-40v66h40v156c0 50 8 86.333 24 109c27.333 40.667 73 61 137 61c65.333 0 111 -20.333 137 -61c16 -26 24 -62.333 24 -109v-571h-72v571c0 28.667 -4.66699 50.334 -14 65.001c-14 21.333 -39 32 -75 32s-61 -10.667 -75 -32
c-9.33301 -13.333 -14 -35 -14 -65v-156h102v-66z" />
    <glyph glyph-name=".notdef" horiz-adv-x="233" 
 />
    <glyph glyph-name="space" unicode=" " horiz-adv-x="233" 
 />
    <glyph glyph-name="exclam" unicode="!" horiz-adv-x="280" 
d="M176 135h-72v532h72v-532zM90 40c0 13.333 5 25 15 35s21.667 15 35 15s25 -5 35 -15s15 -21.667 15 -35s-5 -25 -15 -35s-21.667 -15 -35 -15s-25 5 -35 15s-15 21.667 -15 35z" />
    <glyph glyph-name="quotedbl" unicode="&#x22;" horiz-adv-x="330" 
d="M134 667l-13 -268h-54l-13 268h80zM276 667l-13 -268h-54l-13 268h80z" />
    <glyph glyph-name="numbersign" unicode="#" horiz-adv-x="600" 
d="M394 0h-73l32 207h-136l-32 -207h-73l32 207h-110l10 66h110l20 133h-110l10 66h110l30 195h73l-30 -195h136l30 195h73l-30 -195h110l-10 -66h-110l-20 -133h110l-10 -66h-110zM363 273l20 133h-136l-20 -133h136z" />
    <glyph glyph-name="dollar" unicode="$" horiz-adv-x="568" 
d="M467 574l-58.999 -39.001c-10 20 -22.667 36.667 -38 50c-12.667 11.333 -27 18.333 -43 21v-222c52.667 -20.667 91.667 -44 117 -70c31.333 -32 47 -72.333 47 -121c0 -48 -14.667 -91.5 -44 -130.5s-69.333 -62.5 -120 -70.5v-93h-60v89c-50 2 -92.667 20 -128 54
c-30.667 30.667 -51.334 70 -62.001 118l72 20c4.66699 -35.333 18 -63.666 40 -84.999c22.667 -23.333 48.667 -35.666 78 -36.999v274c-48 19.333 -84.667 41 -110 65c-30.667 28.667 -46 65 -46 109c0 46.667 15 85.667 45 117s67 49 111 53v87h60v-87
c28 -2.66699 53.333 -12 76 -28c26.667 -18.667 48 -43.334 64 -74.001zM327.001 303.999v-242c26.667 7.33301 48 23.333 64 48s24 51.334 24 80.001c0 31.333 -10.667 57.666 -32 78.999c-14 14 -32.667 25.667 -56 35zM267.001 410.999v195.001
c-26 -4 -46.167 -15.333 -60.5 -34s-21.5 -40.334 -21.5 -65.001c0 -23.333 8.33301 -43.333 25 -60c14.667 -14.667 33.667 -26.667 57 -36z" />
    <glyph glyph-name="percent" unicode="%" horiz-adv-x="710" 
d="M178 673c40.667 0 75 -14 103 -42s42 -62.333 42 -103s-14 -75 -42 -103s-62.333 -42 -103 -42s-75 14 -103 42s-42 62.333 -42 103s14 75 42 103s62.333 42 103 42zM178 438c24 0 44.167 8.83301 60.5 26.5s24.5 38.834 24.5 63.501s-8.16699 45.834 -24.5 63.501
s-36.5 26.5 -60.5 26.5c-23.333 0 -43.333 -8.83301 -60 -26.5s-25 -38.834 -25 -63.501s8.33301 -45.834 25 -63.501s36.667 -26.5 60 -26.5zM141 10l389 670l39 -22l-389 -671zM532 283c40.667 0 75 -14 103 -42s42 -62.333 42 -103s-14 -75 -42 -103
s-62.333 -42 -103 -42s-75 14 -103 42s-42 62.333 -42 103s14 75 42 103s62.333 42 103 42zM532 48c24 0 44.167 8.83301 60.5 26.5s24.5 38.834 24.5 63.501s-8.16699 45.834 -24.5 63.501s-36.5 26.5 -60.5 26.5c-23.333 0 -43.333 -8.83301 -60 -26.5
s-25 -38.834 -25 -63.501s8.33301 -45.834 25 -63.501s36.667 -26.5 60 -26.5z" />
    <glyph glyph-name="ampersand" unicode="&#x26;" horiz-adv-x="636" 
d="M545 289l54.001 -45.001c-22 -30 -50.333 -63 -85 -99l112 -145h-92l-72 93c-30.667 -30.667 -65.167 -55.834 -103.5 -75.501s-75.5 -29.5 -111.5 -29.5c-54.667 0 -100.5 17.667 -137.5 53s-55.5 79.333 -55.5 132c0 52 20 98 60 138
c20.667 20.667 58 48.334 112 83.001c-44 56.667 -66 104.334 -66 143.001c0 38 12.833 71 38.5 99s61.167 42 106.5 42c44 0 78.5 -13.333 103.5 -40s37.5 -58 37.5 -94c0 -44.667 -20.667 -85 -62 -121c-4.66699 -4 -10.834 -8.83301 -18.501 -14.5
s-19.5 -15.167 -35.5 -28.5l139 -179c34 36 59.333 65.333 76 88zM417.001 147.999l-148.001 191c-35.333 -22 -66.666 -45 -93.999 -69c-31.333 -28 -47 -60 -47 -96c0 -33.333 11.167 -61.333 33.5 -84s50.5 -34 84.5 -34c50 0 107 30.667 171 92zM257 474.999l29.999 -41
l44 34c30 24 45 49.667 45 77c0 22 -7.16699 39 -21.5 51s-31.166 18 -50.499 18c-20.667 0 -38.167 -7 -52.5 -21s-21.5 -31.333 -21.5 -52c0 -19.333 9 -41.333 27 -66z" />
    <glyph glyph-name="quotesingle" unicode="'" horiz-adv-x="188" 
d="M134 667l-13 -268h-54l-13 268h80z" />
    <glyph glyph-name="parenleft" unicode="(" horiz-adv-x="294" 
d="M167 740l62.999 -29c-22 -58 -39 -115.667 -51 -173c-16.667 -80.667 -25 -164.667 -25 -252c0 -86.667 8 -168 24 -244c12 -58.667 29.333 -119.667 52 -183l-63 -29c-30.667 80.667 -52.667 156 -66 226c-14 74 -21 151.333 -21 232c0 92 9.33301 178.667 28 260
c14.667 62.667 34.334 126.667 59.001 192z" />
    <glyph glyph-name="parenright" unicode=")" horiz-adv-x="294" 
d="M64 711l62.999 29c24.667 -65.333 44.334 -129.333 59.001 -192c18.667 -81.333 28 -168 28 -260c0 -80.667 -7 -158 -21 -232c-13.333 -70 -35.333 -145.333 -66 -226l-63 29c22.667 63.333 40 124.333 52 183c16 76 24 157.333 24 244
c0 87.333 -8.33301 171.333 -25 252c-12 57.333 -29 115 -51 173z" />
    <glyph glyph-name="asterisk" unicode="*" horiz-adv-x="568" 
d="M139 648l116 -43l-5 124h68l-5 -124l116 43l21 -63l-120 -34l77 -97l-54 -39l-69 103l-69 -103l-54 39l77 97l-120 34z" />
    <glyph glyph-name="plus" unicode="+" 
d="M33 300v66h181v172h72v-172h181v-66h-181v-172h-72v172h-181z" />
    <glyph glyph-name="comma" unicode="," horiz-adv-x="274" 
d="M24 -133l82 231l66 -24l-101 -226z" />
    <glyph glyph-name="hyphen" unicode="-" horiz-adv-x="320" 
d="M50 176v74h220v-74h-220z" />
    <glyph glyph-name="period" unicode="." horiz-adv-x="228" 
d="M64 40c0 13.333 5 25 15 35s21.667 15 35 15s25 -5 35 -15s15 -21.667 15 -35s-5 -25 -15 -35s-21.667 -15 -35 -15s-25 5 -35 15s-15 21.667 -15 35z" />
    <glyph glyph-name="slash" unicode="/" horiz-adv-x="592" 
d="M0 -170l514 929l58 -30l-514 -927z" />
    <glyph glyph-name="zero" unicode="0" horiz-adv-x="568" 
d="M284 -12c-68 0 -125 33.333 -171 100c-44.667 64.667 -67 146.334 -67 245.001s22.333 180.334 67 245.001c46 66.667 103 100 171 100s125 -33.333 171 -100c44.667 -64.667 67 -146.334 67 -245.001s-22.333 -180.334 -67 -245.001c-46 -66.667 -103 -100 -171 -100z
M284 610c-46 0 -84.333 -24.667 -115 -74c-32.667 -52 -49 -119.667 -49 -203s16.333 -151 49 -203c30.667 -49.333 69 -74 115 -74s84.333 24.667 115 74c32.667 52 49 119.667 49 203s-16.333 151 -49 203c-30.667 49.333 -69 74 -115 74z" />
    <glyph glyph-name="one" unicode="1" horiz-adv-x="568" 
d="M266 0v597h-112l39 70h147v-667h-74z" />
    <glyph glyph-name="two" unicode="2" horiz-adv-x="568" 
d="M481 0h-431.001l243 281c41.333 48.667 67.333 81 78 97c24.667 35.333 37 69.333 37 102c0 38 -12.333 69.167 -37 93.5s-56.667 36.5 -96 36.5c-48 0 -85 -19.667 -111 -59c-14 -21.333 -21.333 -47.666 -22 -78.999h-74c2.66699 56.667 19.334 102.667 50.001 138
c40 45.333 92.667 68 158 68c59.333 0 108.5 -18.833 147.5 -56.5s58.5 -85.167 58.5 -142.5c0 -44.667 -17.667 -92.334 -53 -143.001c-18 -24.667 -48.333 -61.667 -91 -111l-139 -157h282v-68z" />
    <glyph glyph-name="three" unicode="3" horiz-adv-x="568" 
d="M160 502l-73.999 -0.000976562c2 35.333 12.333 68 31 98c33.333 52 85 78 155 78c59.333 0 105.5 -17.667 138.5 -53s49.5 -77.666 49.5 -126.999c0 -70 -28.667 -119.333 -86 -148c8.66699 -3.33301 17.167 -7.83301 25.5 -13.5s18.5 -14.5 30.5 -26.5
s21.667 -28.5 29 -49.5s11 -44.833 11 -71.5c0 -60.667 -19.5 -109.334 -58.5 -146.001s-87.833 -55 -146.5 -55c-39.333 0 -76 9.16699 -110 27.5s-59.333 47.5 -76 87.5c-8.66699 21.333 -13.667 44.666 -15 69.999h74c3.33301 -27.333 11.333 -49.666 24 -66.999
c22.667 -33.333 57 -50 103 -50c36.667 0 67.667 13.167 93 39.5s38 58.166 38 95.499c0 54.667 -22 92 -66 112c-22 10.667 -47.333 15.334 -76 14.001v66c28.667 -2 54 2.66699 76 14c37.333 19.333 56 52.333 56 99c0 32.667 -9.33301 59.834 -28 81.501
s-47.334 32.5 -86.001 32.5c-37.333 0 -66 -12.667 -86 -38c-15.333 -20 -24 -43.333 -26 -70z" />
    <glyph glyph-name="four" unicode="4" horiz-adv-x="568" 
d="M436 704v-510h82v-68h-82v-126h-74v126h-342zM151 194h211v295z" />
    <glyph glyph-name="five" unicode="5" horiz-adv-x="568" 
d="M479 667v-68h-214l-43 -144c11.333 2.66699 25.333 4 42 4c66 0 119.167 -22 159.5 -66s60.5 -99 60.5 -165c0 -72 -23.5 -130 -70.5 -174s-104.5 -66 -172.5 -66c-57.333 0 -107 17.333 -149 52c-24 20.667 -43.333 43.334 -58 68.001l59 42c10 -20 25 -38 45 -54
c32.667 -26.667 68.667 -40 108 -40c46.667 0 85.667 16.667 117 50s47 73.666 47 120.999c0 48 -15.5 87.333 -46.5 118s-70.167 46 -117.5 46c-42 0 -85 -15.333 -129 -46l97 322h265z" />
    <glyph glyph-name="six" unicode="6" horiz-adv-x="568" 
d="M336 683l55.999 -42.002l-153 -213c18.667 6 38.334 9 59.001 9c63.333 0 115.166 -21 155.499 -63s60.5 -94.333 60.5 -157c0 -66.667 -21.5 -121.5 -64.5 -164.5s-97.833 -64.5 -164.5 -64.5c-49.333 0 -92.166 11.833 -128.499 35.5s-62.5 52.334 -78.5 86.001
s-24 68.834 -24 105.501c0 50.667 18.333 101.667 55 153zM283.999 55.998c45.333 0 82.667 15.167 112 45.5s44 68.166 44 113.499c0 44.667 -14.833 81.5 -44.5 110.5s-67.167 43.5 -112.5 43.5s-82.5 -14.667 -111.5 -44s-43.5 -66 -43.5 -110
c0 -45.333 14.5 -83.166 43.5 -113.499s66.5 -45.5 112.5 -45.5z" />
    <glyph glyph-name="seven" unicode="7" horiz-adv-x="568" 
d="M52 23l379 576h-365v68h490l-446 -683z" />
    <glyph glyph-name="eight" unicode="8" horiz-adv-x="568" 
d="M387 347c67.333 -30 101.002 -84.333 101.002 -163c0 -55.333 -17.833 -101.833 -53.5 -139.5s-85.834 -56.5 -150.501 -56.5s-114.834 18.833 -150.501 56.5s-53.5 84.167 -53.5 139.5c0 78.667 33.667 133 101 163c-54 31.333 -81 80 -81 146
c0 50.667 16.333 94.167 49 130.5s77.667 54.5 135 54.5s102.333 -18.167 135 -54.5s49 -79.833 49 -130.5c0 -66 -27 -114.667 -81 -146zM284.002 377c32.667 0 59.8301 11 81.4971 33s32.5 49.333 32.5 82c0 35.333 -11.167 63.833 -33.5 85.5s-49.166 32.5 -80.499 32.5
s-58.166 -10.833 -80.499 -32.5s-33.5 -50.167 -33.5 -85.5c0 -32.667 10.833 -60 32.5 -82s48.834 -33 81.501 -33zM283.998 56c38.667 0 70 12.167 94 36.5s36 55.5 36 93.5c0 37.333 -12.167 67.833 -36.5 91.5s-55.5 35.5 -93.5 35.5s-69.167 -11.833 -93.5 -35.5
s-36.5 -54.167 -36.5 -91.5c0 -38 12 -69.167 36 -93.5s55.333 -36.5 94 -36.5z" />
    <glyph glyph-name="nine" unicode="9" horiz-adv-x="568" 
d="M232 -16l-56 41.002l153 213c-19.333 -6 -39 -9 -59 -9c-63.333 0 -115.166 21 -155.499 63s-60.5 94.333 -60.5 157c0 66.667 21.5 121.5 64.5 164.5s97.833 64.5 164.5 64.5c49.333 0 92.166 -11.833 128.499 -35.5s62.5 -52.334 78.5 -86.001s24 -68.834 24 -105.501
c0 -51.333 -18.333 -102.333 -55 -153zM284 610.002c-45.333 0 -82.667 -15.167 -112 -45.5s-44 -68.166 -44 -113.499c0 -44.667 14.833 -81.5 44.5 -110.5s67.167 -43.5 112.5 -43.5s82.5 14.667 111.5 44s43.5 66 43.5 110c0 45.333 -14.5 83.166 -43.5 113.499
s-66.5 45.5 -112.5 45.5z" />
    <glyph glyph-name="colon" unicode=":" horiz-adv-x="228" 
d="M64 375c0 13.333 5 25 15 35s21.667 15 35 15s25 -5 35 -15s15 -21.667 15 -35s-5 -25 -15 -35s-21.667 -15 -35 -15s-25 5 -35 15s-15 21.667 -15 35zM64 38c0 13.333 5 25 15 35s21.667 15 35 15s25 -5 35 -15s15 -21.667 15 -35s-5 -25 -15 -35s-21.667 -15 -35 -15
s-25 5 -35 15s-15 21.667 -15 35z" />
    <glyph glyph-name="semicolon" unicode=";" horiz-adv-x="274" 
d="M78 375c0 13.333 5 25 15 35s21.667 15 35 15s25 -5 35 -15s15 -21.667 15 -35s-5 -25 -15 -35s-21.667 -15 -35 -15s-25 5 -35 15s-15 21.667 -15 35zM24 -133l82 231l66 -24l-101 -226z" />
    <glyph glyph-name="less" unicode="&#x3c;" 
d="M110 330l357 -162v-72l-434 203v62l434 203v-72z" />
    <glyph glyph-name="equal" unicode="=" 
d="M33 384v66h434v-66h-434zM33 230v66h434v-66h-434z" />
    <glyph glyph-name="greater" unicode="&#x3e;" 
d="M390 330l-357 162v72l434 -203v-62l-434 -203v72z" />
    <glyph glyph-name="question" unicode="?" horiz-adv-x="436" 
d="M289 289l72 -0.000976562c0 -46.667 -13.667 -84.334 -41 -113.001c-25.333 -26.667 -59.666 -40 -102.999 -40c-42.667 0 -77.334 13.333 -104.001 40s-40 61 -40 103c0 57.333 28 98.666 84 123.999c13.333 6 29.833 11.833 49.5 17.5s31.167 9.16699 34.5 10.5
c42.667 15.333 64 44.666 64 87.999c0 30.667 -8.66699 54 -26 70c-15.333 14 -35.666 21 -60.999 21c-27.333 0 -48.333 -7 -63 -21c-17.333 -16.667 -26 -39 -26 -67c0 -14.667 2 -28.667 6 -42h-74c-2.66699 12.667 -4 27.334 -4 44.001c0 45.333 12.667 81.333 38 108
c28 30.667 68.667 46 122 46c50 0 89.333 -14.333 118 -43c29.333 -29.333 44 -68.666 44 -117.999c0 -39.333 -11.333 -72 -34 -98c-18.667 -21.333 -44.334 -38 -77.001 -50c-5.33301 -2 -12.833 -4.5 -22.5 -7.5l-26.5 -8.5c-8 -2.66699 -15.667 -5.66699 -23 -9
c-32.667 -15.333 -49 -38.666 -49 -69.999c0 -21.333 6.66699 -38.666 20 -51.999c12 -12 28.333 -18 49 -18s37 6 49 18c16 16 24 38.333 24 67zM168 37.999c0 13.333 5 25 15 35s21.667 15 35 15s25 -5 35 -15s15 -21.667 15 -35s-5 -25 -15 -35s-21.667 -15 -35 -15
s-25 5 -35 15s-15 21.667 -15 35z" />
    <glyph glyph-name="at" unicode="@" horiz-adv-x="733" 
d="M480 427l13.001 63.999h52c-25.333 -107.333 -41 -190.333 -47 -249v-8c2 -30.667 14.333 -46 37 -46c26 0 51.333 18 76 54s37 81.667 37 137c0 74 -25.833 134 -77.5 180s-114.834 69 -189.501 69c-82.667 0 -152.834 -28.833 -210.501 -86.5
s-86.5 -128.167 -86.5 -211.5c0 -34 5.33301 -67.333 16 -100s27.334 -64 50.001 -94s54.667 -54.333 96 -73s89.333 -28 144 -28c73.333 0 143 15.333 209 46l15 -46c-66.667 -32 -141.667 -48 -225 -48c-104 0 -189.333 32 -256 96s-100 146.667 -100 248
c0 96.667 33.5 178.334 100.5 245.001s149.167 100 246.5 100c87.333 0 161.833 -27.5 223.5 -82.5s92.5 -126.167 92.5 -213.5c0 -66.667 -16.833 -122.667 -50.5 -168s-71.167 -68 -112.5 -68c-20.667 0 -37.667 6.16699 -51 18.5s-20.666 28.5 -21.999 48.5
c-30.667 -47.333 -72.334 -71 -125.001 -71c-42 0 -75.833 15.333 -101.5 46s-38.5 69 -38.5 115c0 55.333 16.5 103 49.5 143s74.833 60 125.5 60c28.667 0 52.167 -7.16699 70.5 -21.5s31.5 -32.833 39.5 -55.5zM346.001 193.999c34 0 61.668 15.833 83.001 47.5
s32 68.834 32 111.501c0 32.667 -8.33301 57 -25 73s-37 24 -61 24c-34 0 -62.833 -14.833 -86.5 -44.5s-35.5 -63.834 -35.5 -102.501c0 -34 9.16699 -60.667 27.5 -80s40.166 -29 65.499 -29z" />
    <glyph glyph-name="A" unicode="A" horiz-adv-x="622" 
d="M532 0l-78 188h-284l-80 -188h-82l307 699l299 -699h-82zM199 258h226l-112 267z" />
    <glyph glyph-name="B" unicode="B" horiz-adv-x="530" 
d="M86 667l119.999 -0.000976562c66.667 0 117.667 -14 153 -42c40 -30.667 60 -76.667 60 -138c0 -57.333 -22 -101 -66 -131c42.667 -10.667 74.5 -32.167 95.5 -64.5s31.5 -66.833 31.5 -103.5c0 -30 -6.5 -57.667 -19.5 -83s-29.167 -45.666 -48.5 -60.999
c-37.333 -29.333 -90.666 -44 -159.999 -44h-166v667zM159.999 596.999l-0.00195312 -222.999h56c10 0 19.667 0.5 29 1.5s20.5 3.66699 33.5 8s24.333 10.166 34 17.499s17.834 18.333 24.501 33s10 31.667 10 51c0 20.667 -4 38.5 -12 53.5s-17 26.167 -27 33.5
s-22 13 -36 17s-24.667 6.33301 -32 7s-14.666 1 -21.999 1h-58zM159.997 308v-238.001h85c54 0 93 9.33301 117 28c29.333 21.333 44 52 44 92c0 44.667 -19 77.334 -57 98.001c-24 13.333 -61.667 20 -113 20h-76z" />
    <glyph glyph-name="C" unicode="C" horiz-adv-x="646" 
d="M596 612l0.000976562 -92.001c-26.667 26.667 -55.667 47.334 -87 62.001c-38 17.333 -76.333 26 -115 26c-76.667 0 -140.5 -26.833 -191.5 -80.5s-76.5 -119.5 -76.5 -197.5c0 -84 27.833 -150.333 83.5 -199s117.5 -73 185.5 -73c42.667 0 84 10.333 124 31
c28 14 53.667 32.667 77 56v-92c-60.667 -43.333 -127.667 -65 -201 -65c-98.667 0 -180.834 33 -246.501 99s-98.5 147.333 -98.5 244c0 99.333 33.167 182 99.5 248s149.5 99 249.5 99c73.333 0 139 -22 197 -66z" />
    <glyph glyph-name="D" unicode="D" horiz-adv-x="632" 
d="M86 0v666.999h136c102.667 0 184.667 -26 246 -78c76 -63.333 114 -148.666 114 -255.999c0 -104 -39 -189.333 -117 -256c-32 -27.333 -66.333 -47 -103 -59s-83.667 -18 -141 -18h-135zM160 596.999v-527.001h65c79.333 0 143 20 191 60
c60 50.667 90 118.334 90 203.001c0 80 -25.667 144 -77 192s-119.333 72 -204 72h-65z" />
    <glyph glyph-name="E" unicode="E" horiz-adv-x="482" 
d="M432 667v-70h-272v-198h264v-70h-264v-259h272v-70h-346v667h346z" />
    <glyph glyph-name="F" unicode="F" horiz-adv-x="434" 
d="M390 667v-70h-230v-197h222v-70h-222v-330h-74v667h304z" />
    <glyph glyph-name="G" unicode="G" horiz-adv-x="758" 
d="M430 265l0.000976562 70.002h278v-16c0 -82.667 -21.333 -153 -64 -211c-59.333 -80 -142 -120 -248 -120c-98.667 0 -181 33.167 -247 99.5s-99 148.166 -99 245.499s33.167 179.166 99.5 245.499s149.166 99.5 248.499 99.5c78.667 0 146.667 -22 204 -66
c29.333 -22.667 55 -49 77 -79l-55 -50c-19.333 27.333 -40.333 50.333 -63 69c-46 37.333 -100 56 -162 56c-79.333 0 -144.666 -26.333 -195.999 -79s-77 -118.334 -77 -197.001c0 -57.333 14 -107.5 42 -150.5s62.167 -74.333 102.5 -94s82.5 -29.5 126.5 -29.5
s84.167 10.167 120.5 30.5s64.166 47.5 83.499 81.5c16.667 28.667 25.667 60.334 27 95.001h-198z" />
    <glyph glyph-name="H" unicode="H" horiz-adv-x="662" 
d="M160 667v-271h342v271h74v-667h-74v326h-342v-326h-74v667h74z" />
    <glyph glyph-name="I" unicode="I" horiz-adv-x="246" 
d="M86 667h74v-667h-74v667z" />
    <glyph glyph-name="J" unicode="J" horiz-adv-x="306" 
d="M146 667l74 -0.00195312v-480c0 -24 -0.5 -43.167 -1.5 -57.5s-4.66699 -31.166 -11 -50.499s-15.833 -35.666 -28.5 -48.999c-26 -28 -61.333 -42 -106 -42c-50.667 0 -90.334 16.333 -119.001 49l41 58c22.667 -24.667 48 -37 76 -37
c20.667 0 37.334 6.33301 50.001 19c16.667 16.667 25 52.667 25 108v482z" />
    <glyph glyph-name="K" unicode="K" horiz-adv-x="568" 
d="M160 667v-286l284 286h100l-312 -311l322 -356h-102l-273 306l-19 -19v-287h-74v667h74z" />
    <glyph glyph-name="L" unicode="L" horiz-adv-x="358" 
d="M86 667h74v-597h184v-70h-258v667z" />
    <glyph glyph-name="M" unicode="M" horiz-adv-x="863" 
d="M139 0h-76l111 704l256 -563l261 564l104 -705h-76l-63 464l-227 -492l-224 492z" />
    <glyph glyph-name="N" unicode="N" horiz-adv-x="766" 
d="M160 0h-74v695l520 -545v517h74v-697l-520 545v-515z" />
    <glyph glyph-name="O" unicode="O" horiz-adv-x="794" 
d="M397 -12c-97.333 0 -179.5 33 -246.5 99s-100.5 148 -100.5 246c0 98.667 33.667 180.834 101 246.501s149.333 98.5 246 98.5s178.667 -32.833 246 -98.5s101 -147.834 101 -246.501c0 -98 -33.5 -180 -100.5 -246s-149.167 -99 -246.5 -99zM397 608
c-75.333 0 -139.333 -26.667 -192 -80s-79 -118.333 -79 -195s26.333 -141.667 79 -195s116.667 -80 192 -80s139.333 26.667 192 80s79 118.333 79 195s-26.333 141.667 -79 195s-116.667 80 -192 80z" />
    <glyph glyph-name="P" unicode="P" horiz-adv-x="456" 
d="M86 667l121 0.000976562c76 0 132 -15.667 168 -47c40.667 -34.667 61 -82.334 61 -143.001c0 -52 -17.5 -96.167 -52.5 -132.5s-87.833 -54.5 -158.5 -54.5h-65v-290h-74v667zM160 597.001v-237h61c44 0 78.5 10.667 103.5 32s37.5 51 37.5 89
c0 77.333 -49 116 -147 116h-55z" />
    <glyph glyph-name="Q" unicode="Q" horiz-adv-x="794" 
d="M652 -7l-54 56c-60 -40.667 -127 -61 -201 -61c-96.667 0 -178.667 33 -246 99s-101 148 -101 246c0 98.667 33.667 180.834 101 246.501s149.333 98.5 246 98.5s178.667 -32.833 246 -98.5s101 -147.834 101 -246.501c0 -93.333 -31.333 -173 -94 -239l98 -101h-96z
M480 268l117 -120c47.333 51.333 71 113 71 185c0 76 -26.5 140.833 -79.5 194.5s-116.833 80.5 -191.5 80.5c-75.333 0 -139.333 -26.667 -192 -80s-79 -118.333 -79 -195s26.333 -141.667 79 -195s116.667 -80 192 -80c54 0 103.333 14.667 148 44l-161 166h96z" />
    <glyph glyph-name="R" unicode="R" horiz-adv-x="502" 
d="M86 667h107c72 0 126 -12.333 162 -37c48.667 -32.667 73 -82 73 -148c0 -51.333 -15.5 -94 -46.5 -128s-71.5 -52.667 -121.5 -56l212 -298h-90l-203 292h-19v-292h-74v667zM160 597v-239h47c46 0 82 10.667 108 32s39 51.333 39 90c0 45.333 -17.667 78 -53 98
c-22.667 12.667 -54.667 19 -96 19h-45z" />
    <glyph glyph-name="S" unicode="S" horiz-adv-x="518" 
d="M443 574l-58.9961 -39.001c-10.667 20.667 -23.667 37.334 -39 50.001c-20 15.333 -45 23 -75 23c-33.333 0 -60.333 -9.5 -81 -28.5s-31 -43.833 -31 -74.5c0 -22.667 8.33301 -42 25 -58c13.333 -13.333 36.666 -27.333 69.999 -42l64 -28
c47.333 -20.667 81.666 -41.667 102.999 -63c32 -32 48 -72.333 48 -121c0 -60.667 -20 -110 -60 -148s-90.333 -57 -151 -57c-60 0 -108.333 18 -145 54c-30 29.333 -50.667 68.666 -62 117.999l72 20c4.66699 -33.333 18 -61.666 40 -84.999
c24.667 -24.667 56.667 -37 96 -37c42.667 0 75.667 12.833 99 38.5s35 56.834 35 93.501c0 32 -11 58 -33 78c-12.667 12 -39.334 27.333 -80.001 46l-60 28c-40.667 18.667 -70.334 37 -89.001 55c-30.667 29.333 -46 65.666 -46 108.999c0 51.333 17.5 92.833 52.5 124.5
s79.833 47.5 134.5 47.5c41.333 0 77 -10 107 -30c27.333 -18 49 -42.667 65 -74z" />
    <glyph glyph-name="T" unicode="T" horiz-adv-x="426" 
d="M412 597h-162v-597h-74v597h-162v70h398v-70z" />
    <glyph glyph-name="U" unicode="U" horiz-adv-x="646" 
d="M160 667l0.00195312 -409c0 -25.333 0.5 -45 1.5 -59s5.66699 -31.167 14 -51.5s20.833 -37.5 37.5 -51.5c30 -25.333 66.667 -38 110 -38s80 12.667 110 38c16.667 14 29.167 31.167 37.5 51.5s13 37.5 14 51.5s1.5 33.667 1.5 59v409h74v-429
c0 -68 -14 -121.333 -42 -160c-20.667 -28 -47.834 -50 -81.501 -66s-71.5 -24 -113.5 -24s-79.833 8 -113.5 24s-60.834 38 -81.501 66c-28 38.667 -42 92 -42 160v429h74z" />
    <glyph glyph-name="V" unicode="V" horiz-adv-x="556" 
d="M8 667h82l188 -509l188 509h82l-270 -707z" />
    <glyph glyph-name="W" unicode="W" horiz-adv-x="958" 
d="M8 667h82l176 -500l209 534l198 -534l195 500h82l-280 -702l-196 534l-210 -534z" />
    <glyph glyph-name="X" unicode="X" horiz-adv-x="504" 
d="M14 0l197 345l-179 322h84l138 -251l142 251h84l-183 -322l193 -345h-84l-153 274l-155 -274h-84z" />
    <glyph glyph-name="Y" unicode="Y" horiz-adv-x="530" 
d="M227 0v287l-219 380h86l170 -298l172 298h86l-221 -380v-287h-74z" />
    <glyph glyph-name="Z" unicode="Z" horiz-adv-x="536" 
d="M512 667l-364 -597h354v-70h-478l364 597h-317v70h441z" />
    <glyph glyph-name="bracketleft" unicode="[" horiz-adv-x="290" 
d="M248 663h-96v-767h96v-66h-168v899h168v-66z" />
    <glyph glyph-name="backslash" unicode="\" horiz-adv-x="597" 
d="M597 -170l-58 -28l-519 927l58 30z" />
    <glyph glyph-name="bracketright" unicode="]" horiz-adv-x="290" 
d="M42 -104h96v767h-96v66h168v-899h-168v66z" />
    <glyph glyph-name="asciicircum" unicode="^" 
d="M250 612l-146 -247h-78l177 302h94l177 -302h-78z" />
    <glyph glyph-name="underscore" unicode="_" 
d="M0 -132v64h500v-64h-500z" />
    <glyph glyph-name="grave" unicode="`" 
d="M249 497l-135 135l74 34l105 -145z" />
    <glyph glyph-name="a" unicode="a" horiz-adv-x="526" 
d="M386 356v59h72v-415h-72v58c-36 -46.667 -83.333 -70 -142 -70c-56 0 -103.667 19.333 -143 58s-59 92.667 -59 162c0 68 19.5 121.167 58.5 159.5s86.833 57.5 143.5 57.5c60 0 107.333 -23 142 -69zM252 361c-38 0 -70.167 -13.5 -96.5 -40.5s-39.5 -64.5 -39.5 -112.5
c0 -46 12.167 -83.5 36.5 -112.5s57.5 -43.5 99.5 -43.5s75.5 15 100.5 45s37.5 66.667 37.5 110c0 49.333 -14 87.333 -42 114s-60 40 -96 40z" />
    <glyph glyph-name="b" unicode="b" horiz-adv-x="526" 
d="M140 58v-58h-72v729h72v-372c36.667 45.333 84 68 142 68c62 0 111.167 -21.833 147.5 -65.5s54.5 -95.167 54.5 -154.5c0 -60 -18 -111.167 -54 -153.5s-84.333 -63.5 -145 -63.5s-109 23.333 -145 70zM275 52c40.667 0 73.333 14.832 98 44.499s37 65.834 37 108.501
c0 48 -13.667 86 -41 114s-59 42 -95 42s-68 -14 -96 -42s-42 -65.667 -42 -113c0 -43.333 12.833 -79.833 38.5 -109.5s59.167 -44.5 100.5 -44.5z" />
    <glyph glyph-name="c" unicode="c" horiz-adv-x="438" 
d="M393 385l0.00195312 -86c-32.667 41.333 -76 62 -130 62c-40.667 0 -75.334 -13.833 -104.001 -41.5s-43 -65.5 -43 -113.5s14.333 -85.667 43 -113s63 -41 103 -41c53.333 0 98 21.667 134 65v-86c-39.333 -28.667 -83.333 -43 -132 -43
c-64.667 0 -117.834 20.5 -159.501 61.5s-62.5 92.833 -62.5 155.5c0 63.333 21 115.833 63 157.5s95 62.5 159 62.5c48 0 91 -13.333 129 -40z" />
    <glyph glyph-name="d" unicode="d" horiz-adv-x="526" 
d="M386 356v373h72v-729h-72v58c-36 -46.667 -83.333 -70 -142 -70c-56 0 -103.667 19.333 -143 58s-59 92.667 -59 162c0 68 19.5 121.167 58.5 159.5s86.833 57.5 143.5 57.5c60 0 107.333 -23 142 -69zM252 361c-38 0 -70.167 -13.5 -96.5 -40.5
s-39.5 -64.5 -39.5 -112.5c0 -46 12.167 -83.5 36.5 -112.5s57.5 -43.5 99.5 -43.5s75.5 15 100.5 45s37.5 66.667 37.5 110c0 49.333 -14 87.333 -42 114s-60 40 -96 40z" />
    <glyph glyph-name="e" unicode="e" horiz-adv-x="481" 
d="M376 139l60.002 -33c-14 -26.667 -31 -49 -51 -67c-38 -34 -84 -51 -138 -51c-56 0 -104.167 18.167 -144.5 54.5s-60.5 90.5 -60.5 162.5c0 63.333 18.167 115.833 54.5 157.5s85.166 62.5 146.499 62.5c69.333 0 121.666 -25.333 156.999 -76c28 -40 41 -92 39 -156
h-323c0.666992 -42 13.667 -76 39 -102s56.333 -39 93 -39c32.667 0 61 10 85 30c18.667 16 33 35 43 57zM121.002 253l244 -0.00195312c-6 32.667 -20.167 58.834 -42.5 78.501s-48.833 29.5 -79.5 29.5c-30 0 -56.5 -10.167 -79.5 -30.5s-37.167 -46.166 -42.5 -77.499z
" />
    <glyph glyph-name="f" unicode="f" horiz-adv-x="240" 
d="M244 349h-101.999v-349h-72v349h-40v66h40v181c0 55.333 13.333 94.333 40 117c21.333 18 49 27 83 27c18 0 35 -3 51 -9v-70c-14.667 6 -30.334 9 -47.001 9c-22 0 -37.333 -7.33301 -46 -22c-6 -10 -9 -30 -9 -60v-173h102v-66z" />
    <glyph glyph-name="g" unicode="g" horiz-adv-x="526" 
d="M386 356l-0.000976562 59h72v-405c0 -72.667 -13.333 -127 -40 -163c-38 -51.333 -93.333 -77 -166 -77c-61.333 0 -110.666 18.667 -147.999 56c-36 36 -54 80.667 -54 134h71c0 -33.333 10.667 -62 32 -86c24 -26.667 57.333 -40 100 -40c50 0 86.667 19.333 110 58
c15.333 24.667 23 60 23 106v60c-36 -46.667 -83.333 -70 -142 -70c-57.333 0 -104.666 18.667 -141.999 56c-40 40 -60 94.667 -60 164c0 67.333 20 121 60 161c38.667 37.333 86 56 142 56c59.333 0 106.666 -23 141.999 -69zM251.999 361
c-36.667 0 -68 -12.999 -94 -38.999c-28 -28.667 -42 -66.667 -42 -114c0 -52.667 15.667 -93.334 47 -122.001c24.667 -22.667 54.334 -34 89.001 -34c37.333 0 67.666 11.667 90.999 35c31.333 30 47 70 47 120s-14.667 89 -44 117c-24.667 24.667 -56 37 -94 37z" />
    <glyph glyph-name="h" unicode="h" horiz-adv-x="470" 
d="M68 0v728.999h72v-362c29.333 38.667 69 58 119 58c53.333 0 93 -19 119 -57c16 -23.333 24 -60.333 24 -111v-257h-72v255c0 34 -6.33301 59.333 -19 76c-15.333 20 -38 30 -68 30c-30.667 0 -55 -10.667 -73 -32c-20 -23.333 -30 -60.666 -30 -111.999v-217h-72z" />
    <glyph glyph-name="i" unicode="i" horiz-adv-x="208" 
d="M68 415h72v-415h-72v415zM53 572c0 14 5 26 15 36s22 15 36 15s26 -5 36 -15s15 -22 15 -36s-5 -26 -15 -36s-22 -15 -36 -15s-26 5 -36 15s-15 22 -15 36z" />
    <glyph glyph-name="j" unicode="j" horiz-adv-x="208" 
d="M68 415h72v-645h-72v645zM53 572c0 14 5 26 15 36s22 15 36 15s26 -5 36 -15s15 -22 15 -36s-5 -26 -15 -36s-22 -15 -36 -15s-26 5 -36 15s-15 22 -15 36z" />
    <glyph glyph-name="k" unicode="k" horiz-adv-x="422" 
d="M68 729h72v-468l152 154h94l-178 -178l210 -237h-94l-166 189l-18 -18v-171h-72v729z" />
    <glyph glyph-name="l" unicode="l" horiz-adv-x="208" 
d="M68 729h72v-729h-72v729z" />
    <glyph glyph-name="m" unicode="m" horiz-adv-x="685" 
d="M68 0l-0.000976562 414.999h72v-44c24.667 36 59 54 103 54c50 0 87.667 -22.333 113 -67c28.667 44.667 70.334 67 125.001 67c90 0 135 -54 135 -162v-263h-72v252c0 20 -1.16699 36.833 -3.5 50.5s-9.33301 26.834 -21 39.501s-28.167 19 -49.5 19
c-61.333 0 -92 -43.333 -92 -130v-231h-72v246c0 76.667 -25 115 -75 115c-60.667 0 -91 -45 -91 -135v-226h-72z" />
    <glyph glyph-name="n" unicode="n" horiz-adv-x="470" 
d="M68 0v414.999h72v-48c29.333 38.667 69 58 119 58c53.333 0 93 -19 119 -57c16 -23.333 24 -60.333 24 -111v-257h-72v255c0 34 -6.33301 59.333 -19 76c-15.333 20 -38 30 -68 30c-30.667 0 -55 -10.667 -73 -32c-20 -23.333 -30 -60.666 -30 -111.999v-217h-72z" />
    <glyph glyph-name="o" unicode="o" horiz-adv-x="524" 
d="M262 -12c-63.333 0 -115.833 20.667 -157.5 62s-62.5 93.333 -62.5 156c0 63.333 20.833 115.666 62.5 156.999s94.167 62 157.5 62s115.833 -20.667 157.5 -62s62.5 -93.666 62.5 -156.999c0 -62.667 -20.833 -114.667 -62.5 -156s-94.167 -62 -157.5 -62zM262 361
c-40.667 0 -75.167 -13.833 -103.5 -41.5s-42.5 -65.5 -42.5 -113.5s14.333 -85.667 43 -113s63 -41 103 -41s74.333 13.667 103 41s43 65 43 113c0 48.667 -14.167 86.667 -42.5 114s-62.833 41 -103.5 41z" />
    <glyph glyph-name="p" unicode="p" horiz-adv-x="526" 
d="M140 58v-288h-72v645h72v-58c36.667 45.333 84 68 142 68c62 0 111.167 -21.833 147.5 -65.5s54.5 -95.167 54.5 -154.5c0 -60 -18 -111.167 -54 -153.5s-84.333 -63.5 -145 -63.5s-109 23.333 -145 70zM275 52c40.667 0 73.333 14.832 98 44.499s37 65.834 37 108.501
c0 48 -13.667 86 -41 114s-59 42 -95 42s-68 -14 -96 -42s-42 -65.667 -42 -113c0 -43.333 12.833 -79.833 38.5 -109.5s59.167 -44.5 100.5 -44.5z" />
    <glyph glyph-name="q" unicode="q" horiz-adv-x="526" 
d="M386 356v59h72v-645h-72v288c-36 -46.667 -83.333 -70 -142 -70c-56 0 -103.667 19.333 -143 58s-59 92.667 -59 162c0 68 19.5 121.167 58.5 159.5s86.833 57.5 143.5 57.5c60 0 107.333 -23 142 -69zM252 361c-38 0 -70.167 -13.5 -96.5 -40.5
s-39.5 -64.5 -39.5 -112.5c0 -46 12.167 -83.5 36.5 -112.5s57.5 -43.5 99.5 -43.5s75.5 15 100.5 45s37.5 66.667 37.5 110c0 49.333 -14 87.333 -42 114s-60 40 -96 40z" />
    <glyph glyph-name="r" unicode="r" horiz-adv-x="296" 
d="M68 0v414.999h72v-45c23.333 36.667 54.666 55 93.999 55c20 0 41.333 -5.66699 64 -17l-34 -65c-13.333 9.33301 -27.333 14 -42 14c-25.333 0 -44.666 -8.66699 -57.999 -26c-16 -21.333 -24 -58.666 -24 -111.999v-219h-72z" />
    <glyph glyph-name="s" unicode="s" horiz-adv-x="352" 
d="M298 350l-59.0029 -30.9971c-11.333 28 -30.666 42 -57.999 42c-14 0 -25.833 -4 -35.5 -12s-14.5 -19.667 -14.5 -35c0 -14 4.5 -24.5 13.5 -31.5s26.833 -16.167 53.5 -27.5c52.667 -22 87.334 -43.333 104.001 -64c14.667 -18 22 -40.333 22 -67
c0 -42 -13.5 -75.167 -40.5 -99.5s-61.167 -36.5 -102.5 -36.5c-8 0 -16.667 0.833008 -26 2.5s-22.166 5.33398 -38.499 11.001s-31.833 16.5 -46.5 32.5s-26 36 -34 60l62 26c16.667 -45.333 44.667 -68 84 -68c22 0 38.833 6.66699 50.5 20s17.5 28.666 17.5 45.999
c0 9.33301 -1.5 17.5 -4.5 24.5s-8 13.167 -15 18.5s-13.667 9.66602 -20 12.999s-15.5 7.66602 -27.5 12.999c-53.333 23.333 -87 43.666 -101 60.999c-12.667 16 -19 36.333 -19 61c0 36 11.167 64.333 33.5 85s51.5 31 87.5 31c52.667 0 90.667 -25 114 -75z" />
    <glyph glyph-name="t" unicode="t" horiz-adv-x="214" 
d="M214 349h-72v-349h-72v349h-44v66h44v150h72v-150h72v-66z" />
    <glyph glyph-name="u" unicode="u" horiz-adv-x="466" 
d="M140 415v-242c0 -42 6.66699 -71.667 20 -89c16.667 -21.333 41 -32 73 -32s56.333 10.667 73 32c13.333 17.333 20 47 20 89v242h72v-250c0 -56 -12.667 -97.667 -38 -125c-32.667 -34.667 -75 -52 -127 -52s-94.333 17.333 -127 52c-25.333 27.333 -38 69 -38 125v250
h72z" />
    <glyph glyph-name="v" unicode="v" horiz-adv-x="424" 
d="M8 415h80l124 -280l124 280h80l-204 -442z" />
    <glyph glyph-name="w" unicode="w" horiz-adv-x="682" 
d="M8 415h80l123 -282l130 314l129 -314l124 282h80l-206 -444l-128 310l-128 -310z" />
    <glyph glyph-name="x" unicode="x" horiz-adv-x="454" 
d="M8 0l177 222l-151 193h88l107 -141l109 141h88l-152 -194l172 -221h-88l-131 169l-131 -169h-88z" />
    <glyph glyph-name="y" unicode="y" horiz-adv-x="460" 
d="M67 -230l132 269l-191 376h82l147 -297l135 297h80l-305 -645h-80z" />
    <glyph glyph-name="z" unicode="z" horiz-adv-x="460" 
d="M452 415l-300 -349h288v-66h-432l300 349h-242v66h386z" />
    <glyph glyph-name="braceleft" unicode="{" horiz-adv-x="501" 
d="M275 581v-187.998c0 -32 -4.33301 -55.667 -13 -71c-10.667 -18 -26.667 -32 -48 -42c21.333 -10 37.333 -24 48 -42c8.66699 -15.333 13 -39 13 -71v-189c0 -34 6.33301 -57 19 -69s33.334 -18 62.001 -18h15v-61h-27c-42 0 -73 6.66699 -93 20
c-32 21.333 -48 60 -48 116v196c0 26 -4.33301 46.333 -13 61c-10.667 17.333 -25.334 26.666 -44.001 27.999v58c18.667 1.33301 33.334 10.666 44.001 27.999c8.66699 14.667 13 35 13 61v195c0 56 16 94.667 48 116c20 13.333 51 20 93 20h27v-61h-15
c-28.667 0 -49.334 -6 -62.001 -18s-19 -35 -19 -69z" />
    <glyph glyph-name="bar" unicode="|" 
d="M214 -250v1000h72v-1000h-72z" />
    <glyph glyph-name="braceright" unicode="}" horiz-adv-x="501" 
d="M226 393v187.998c0 34 -6.33301 57 -19 69s-33.334 18 -62.001 18h-15v61h27c42 0 73 -6.66699 93 -20c32 -21.333 48 -60 48 -116v-195c0 -26 4.33301 -46.333 13 -61c10.667 -17.333 25.334 -26.666 44.001 -27.999v-58
c-18.667 -1.33301 -33.334 -10.666 -44.001 -27.999c-8.66699 -14.667 -13 -35 -13 -61v-196c0 -56 -16 -94.667 -48 -116c-20 -13.333 -51 -20 -93 -20h-27v61h15c28.667 0 49.334 6 62.001 18s19 35 19 69v189c0 32 4.33301 55.667 13 71c10.667 18 26.667 32 48 42
c-21.333 10 -37.333 24 -48 42c-8.66699 15.333 -13 39 -13 71z" />
    <glyph glyph-name="asciitilde" unicode="~" 
d="M446 361l44 -26.001c-12.667 -29.333 -29.334 -53.666 -50.001 -72.999c-26 -26 -58 -39 -96 -39c-22.667 0 -58.667 11.333 -108 34c-46 21.333 -77.667 32 -95 32c-19.333 0 -36.666 -6.66699 -51.999 -20c-12.667 -10.667 -24.334 -28 -35.001 -52l-44 26
c15.333 32.667 31.333 58.667 48 78c22.667 25.333 51.667 38 87 38c28 0 65.667 -11.333 113 -34c46 -21.333 77.667 -32 95 -32c24.667 0 45 8 61 24c12.667 11.333 23.334 26 32.001 44z" />
    <glyph glyph-name="uni00A0" unicode="&#xa0;" horiz-adv-x="233" 
 />
    <glyph glyph-name="exclamdown" unicode="&#xa1;" horiz-adv-x="280" 
d="M104 302h72v-532h-72v532zM190 397c0 -13.333 -5 -25 -15 -35s-21.667 -15 -35 -15s-25 5 -35 15s-15 21.667 -15 35s5 25 15 35s21.667 15 35 15s25 -5 35 -15s15 -21.667 15 -35z" />
    <glyph glyph-name="cent" unicode="&#xa2;" horiz-adv-x="568" 
d="M344 655v-97c38.667 -4.66699 73.667 -17.667 105 -39v-86c-30 36 -65 56.333 -105 61v-306c41.333 4.66699 77.333 25.667 108 63v-86c-32 -23.333 -68 -37.333 -108 -42v-109h-60v111c-50.667 7.33301 -93 27.666 -127 60.999c-39.333 38 -59 89 -59 153
s20.667 116.667 62 158c32.667 32.667 74 52.334 124 59.001v99h60zM284 189v301.998c-26.667 -3.33301 -49.667 -14.666 -69 -33.999c-28.667 -28.667 -43 -67.667 -43 -117c0 -47.333 14.667 -85.666 44 -114.999c18 -18 40.667 -30 68 -36z" />
    <glyph glyph-name="sterling" unicode="&#xa3;" horiz-adv-x="568" 
d="M498 458l-72.998 -0.00195312v10c0 46.667 -12 82 -36 106c-21.333 21.333 -49.666 32 -84.999 32c-34.667 0 -62.334 -10.333 -83.001 -31c-24.667 -23.333 -37 -52.666 -37 -87.999c0 -8 0.833008 -16.333 2.5 -25s3.33398 -16.167 5.00098 -22.5
s4.66699 -14.5 9 -24.5s7.83301 -17.5 10.5 -22.5l13 -25.5l13 -26l14 -28h126v-56h-101c7.33301 -19.333 11 -39.666 11 -60.999c0 -32 -9.66699 -63.333 -29 -94l59 -22c36 -14 59.333 -21 70 -21c20 0 37.667 7.33301 53 22c13.333 13.333 23.666 29 30.999 47l61 -36
c-12 -28 -28.333 -50.667 -49 -68c-27.333 -23.333 -57 -35 -89 -35c-26.667 0 -55.334 6 -86.001 18l-39 15c-33.333 12.667 -58.333 19 -75 19c-20 0 -37.667 -6 -53 -18c-14.667 -11.333 -24.667 -23.333 -30 -36l-57 39c16 24 31.667 42.333 47 55
c24 20 51.333 30 82 30c18.667 28 28 56.667 28 86c0 20 -4.33301 40 -13 60h-112v56h86l-20 37c-29.333 54 -44 100.333 -44 139c0 54 17.667 98.667 53 134s83.333 53 144 53c55.333 0 99.666 -16.667 132.999 -50c40 -38.667 60 -91.667 60 -159v-9z" />
    <glyph glyph-name="currency" unicode="&#xa4;" horiz-adv-x="586" 
d="M53 636l95 -93.999c39.333 34 87.666 51 144.999 51c56.667 0 105 -17 145 -51l95 94l40 -40l-95 -95c34 -40 51 -87.333 51 -142c0 -55.333 -17 -102.666 -51 -141.999l94 -94l-40 -40l-94 93c-40 -34 -88.333 -51 -145 -51c-57.333 0 -105.666 17 -144.999 51l-94 -93
l-40 40l94 94c-34 39.333 -51 86.666 -51 141.999s17 102.666 51 141.999l-95 95zM293 189.001c48 0 88 16 120 48s48 72.667 48 122s-16 90 -48 122s-72 48 -120 48s-88 -16 -120 -48s-48 -72.667 -48 -122s16 -90 48 -122s72 -48 120 -48z" />
    <glyph glyph-name="yen" unicode="&#xa5;" horiz-adv-x="568" 
d="M518 384h-141l-51 -88h192v-56h-198v-240h-74v240h-195v56h189l-51 88h-138v56h106l-131 227h87l170 -298l172 298h87l-133 -227h109v-56z" />
    <glyph glyph-name="brokenbar" unicode="&#xa6;" 
d="M214 390v360h72v-360h-72zM214 -250v360h72v-360h-72z" />
    <glyph glyph-name="section" unicode="&#xa7;" horiz-adv-x="568" 
d="M464 540l-71.998 -0.00390625v5c0 42 -11 73.333 -33 94c-16.667 16 -38.334 24 -65.001 24c-30.667 0 -55.667 -9.33301 -75 -28c-19.333 -17.333 -29 -39.333 -29 -66c0 -24 8.66699 -44.667 26 -62c16.667 -16.667 45.667 -32.667 87 -48
c1.33301 -0.666992 6.83301 -2.66699 16.5 -6s15.834 -5.66602 18.501 -6.99902s8.33398 -3.66602 17.001 -6.99902s15 -6.16602 19 -8.49902l16 -9c6.66699 -3.66699 12.667 -7.5 18 -11.5s10.333 -8.33301 15 -13c29.333 -28.667 44 -65.667 44 -111
c0 -39.333 -9.33301 -72.333 -28 -99c-18.667 -26 -43 -46.667 -73 -62c28 -13.333 49.333 -31.666 64 -54.999c14 -21.333 21 -46 21 -74c0 -47.333 -15.333 -86.333 -46 -117c-32.667 -32.667 -75.667 -49 -129 -49c-54.667 0 -97.334 16.667 -128.001 50
c-8.66699 9.33301 -15.834 19.5 -21.501 30.5s-10 22.167 -13 33.5s-5 21 -6 29s-1.83301 16.833 -2.5 26.5s-1 14.834 -1 15.501h72c0 -39.333 10.333 -70 31 -92c16.667 -18 40.334 -27 71.001 -27c30 0 53.667 8.66699 71 26c18.667 17.333 28 41 28 71
c0 23.333 -8 43.666 -24 60.999c-12 12.667 -42.333 28.334 -91 47.001c-23.333 8.66699 -39.833 15.167 -49.5 19.5s-21.334 10.666 -35.001 18.999s-25.167 17.5 -34.5 27.5c-28 29.333 -42 68 -42 116c0 32 9 62.333 27 91c19.333 28.667 44 49 74 61
c-22 12.667 -40.333 27.667 -55 45c-19.333 24 -29 51 -29 81c0 50.667 17 91.667 51 123c32 30 73.333 45 124 45c47.333 0 86.666 -14.667 117.999 -44c22 -20.667 36.333 -42 43 -64s10 -47.333 10 -76v-5zM284.002 388.996c-31.333 0 -57.333 -10.332 -78 -30.999
s-31 -46.667 -31 -78c0 -32.667 10.333 -58.667 31 -78c22 -20.667 48 -31 78 -31c32.667 0 58.667 10.333 78 31c20.667 20.667 31 46.667 31 78s-10.667 57.666 -32 78.999c-20 20 -45.667 30 -77 30z" />
    <glyph glyph-name="dieresis" unicode="&#xa8;" 
d="M113 550c0 13.333 5 25 15 35s21.667 15 35 15s25 -5 35 -15s15 -21.667 15 -35s-5 -25 -15 -35s-21.667 -15 -35 -15s-25 5 -35 15s-15 21.667 -15 35zM287 550c0 13.333 5 25 15 35s21.667 15 35 15s25 -5 35 -15s15 -21.667 15 -35s-5 -25 -15 -35
s-21.667 -15 -35 -15s-25 5 -35 15s-15 21.667 -15 35z" />
    <glyph glyph-name="copyright" unicode="&#xa9;" horiz-adv-x="740" 
d="M25 333c0 95.333 33.833 176.666 101.5 243.999s148.834 101 243.501 101s175.834 -33.667 243.501 -101s101.5 -148.666 101.5 -243.999c0 -94.667 -33.833 -175.667 -101.5 -243s-148.834 -101 -243.501 -101s-175.834 33.667 -243.501 101s-101.5 148.333 -101.5 243z
M659 333c0 80 -28.167 148.167 -84.5 204.5s-124.5 84.5 -204.5 84.5s-148.167 -28.167 -204.5 -84.5s-84.5 -124.5 -84.5 -204.5c0 -79.333 28.167 -147.166 84.5 -203.499s124.5 -84.5 204.5 -84.5s148.167 28.167 204.5 84.5s84.5 124.166 84.5 203.499zM514 497v-80.002
c-16 20 -35.333 34.667 -58 44s-44 14 -64 14c-38 0 -70.5 -13.167 -97.5 -39.5s-40.5 -61.833 -40.5 -106.5c0 -45.333 13.667 -80.666 41 -105.999s59.333 -38 96 -38c50 0 92 20.333 126 61v-81c-36.667 -26.667 -78 -40 -124 -40c-60 0 -109.667 19 -149 57
s-59 86.667 -59 146c0 58.667 19.833 107.834 59.5 147.501s89.167 59.5 148.5 59.5c46 0 86.333 -12.667 121 -38z" />
    <glyph glyph-name="ordfeminine" unicode="&#xaa;" horiz-adv-x="373" 
d="M264 627l-0.000976562 34h51v-266h-51v32c-10 -12 -21.667 -21.333 -35 -28c-16 -8 -34 -12 -54 -12c-39.333 0 -71.666 12.667 -96.999 38s-38 59.333 -38 102c0 44 13 79 39 105c23.333 23.333 56 35 98 35c18.667 0 35.667 -3.66699 51 -11c16 -8 28 -17.667 36 -29z
M178.999 623c-24.667 0 -45.332 -8.66602 -61.999 -25.999c-18 -19.333 -27 -43 -27 -71s9.33301 -51.333 28 -70c17.333 -16.667 38 -25 62 -25c23.333 0 43.666 8.66699 60.999 26s26 40.666 26 69.999c0 28 -9 51.667 -27 71c-16.667 16.667 -37 25 -61 25z
M50.001 333.001h265v-42h-265v42z" />
    <glyph glyph-name="guillemotleft" unicode="&#xab;" horiz-adv-x="430" 
d="M112 212l120 -146l-46 -36l-150 182l150 188l46 -37zM260 212l120 -146l-46 -36l-150 182l150 188l46 -37z" />
    <glyph glyph-name="logicalnot" unicode="&#xac;" 
d="M467 0h-70v203h-364v64h434v-267z" />
    <glyph glyph-name="uni00AD" unicode="&#xad;" horiz-adv-x="320" 
d="M50 176v74h220v-74h-220z" />
    <glyph glyph-name="registered" unicode="&#xae;" horiz-adv-x="740" 
d="M27 332c0 98 32.667 179.667 98 245s147 98 245 98s179.667 -32.667 245 -98s98 -147 98 -245s-32.667 -179.667 -98 -245s-147 -98 -245 -98s-179.667 32.667 -245 98s-98 147 -98 245zM657 332c0 82 -27.333 150.333 -82 205s-123 82 -205 82
s-150.333 -27.333 -205 -82s-82 -123 -82 -205s27.333 -150.333 82 -205s123 -82 205 -82s150.333 27.333 205 82s82 123 82 205zM509 145h-68l-122 158v-158h-54v374h68c96 0 144 -35.667 144 -107c0 -28 -9 -51.5 -27 -70.5s-41.333 -30.167 -70 -33.5zM319 471v-119.999
h22c54.667 0 82 19.667 82 59c0 11.333 -2 21 -6 29s-8.5 14 -13.5 18s-11.833 7.16699 -20.5 9.5s-16 3.66602 -22 3.99902s-13.333 0.5 -22 0.5h-20z" />
    <glyph glyph-name="macron" unicode="&#xaf;" 
d="M99 513v60h302v-60h-302z" />
    <glyph glyph-name="degree" unicode="&#xb0;" horiz-adv-x="493" 
d="M108 531c0 39.333 13.167 72.166 39.5 98.499s59.166 39.5 98.499 39.5s72.166 -13.167 98.499 -39.5s39.5 -59.166 39.5 -98.499s-13.167 -72.166 -39.5 -98.499s-59.166 -39.5 -98.499 -39.5s-72.166 13.167 -98.499 39.5s-39.5 59.166 -39.5 98.499zM158 531
c0 -28.667 9.16699 -51.167 27.5 -67.5s38.5 -24.5 60.5 -24.5s42.167 8.16699 60.5 24.5s27.5 38.833 27.5 67.5s-9.16699 51.167 -27.5 67.5s-38.5 24.5 -60.5 24.5s-42.167 -8.16699 -60.5 -24.5s-27.5 -38.833 -27.5 -67.5z" />
    <glyph glyph-name="plusminus" unicode="&#xb1;" 
d="M33 345v66h181v171h72v-171h181v-66h-181v-171h-72v171h-181zM33 67v66h434v-66h-434z" />
    <glyph glyph-name="twosuperior" unicode="&#xb2;" horiz-adv-x="350" 
d="M297 267l-264.999 0.00195312l146 169c23.333 27.333 38.666 46.666 45.999 57.999c14.667 21.333 22 41.666 22 60.999c0 20 -6.83301 37 -20.5 51s-32.167 21 -55.5 21c-30 0 -51.667 -11.333 -65 -34c-8 -14 -12 -30 -12 -48h-50c2 36 12 65 30 87
c23.333 27.333 55.333 41 96 41c38 0 69 -11 93 -33s36 -50.667 36 -86c0 -26 -10.667 -54.333 -32 -85c-10 -14.667 -28.333 -37 -55 -67l-77 -89h163v-46z" />
    <glyph glyph-name="threesuperior" unicode="&#xb3;" horiz-adv-x="350" 
d="M102 563h-50.001c1.33301 24.667 7.66602 46 18.999 64c20 30.667 52.333 46 97 46c40.667 0 70.167 -11.167 88.5 -33.5s27.5 -46.833 27.5 -73.5c0 -43.333 -17.333 -73 -52 -89c38.667 -14.667 58 -47 58 -97c0 -34 -11.5 -62.5 -34.5 -85.5
s-53.833 -34.5 -92.5 -34.5c-30.667 0 -55.5 6.66699 -74.5 20s-32.5 29.666 -40.5 48.999c-5.33301 13.333 -8.66602 29 -9.99902 47h50c0.666992 -14.667 5.33398 -28 14.001 -40c14.667 -20 34.334 -30 59.001 -30c22.667 0 41.167 7.16699 55.5 21.5
s21.5 32.5 21.5 54.5c0 32 -13 53.667 -39 65c-12.667 6 -28 8.33301 -46 7v46c17.333 -1.33301 32.666 1.33398 45.999 8.00098c22 11.333 33 30.333 33 57c0 17.333 -5.33301 32 -16 44s-26.667 18 -48 18c-22.667 0 -39.667 -7 -51 -21
c-8.66699 -10.667 -13.667 -25 -15 -43z" />
    <glyph glyph-name="acute" unicode="&#xb4;" 
d="M312 666l74 -34l-134 -135l-45 24z" />
    <glyph glyph-name="mu" unicode="&#xb5;" horiz-adv-x="523" 
d="M140 -230l-71.999 -0.00195312v645h72v-207c0 -53.333 10 -92.666 30 -117.999s49.333 -38 88 -38c44 0 77.667 19.667 101 59c16 26 24 61.333 24 106v198h72v-415h-72v86c-10.667 -29.333 -27 -53 -49 -71s-48 -27 -78 -27c-22.667 0 -43.334 5.66699 -62.001 17
s-31.167 21.333 -37.5 30s-11.833 17.334 -16.5 26.001v-291z" />
    <glyph glyph-name="mu" unicode="&#x3bc;" horiz-adv-x="523" 
d="M140 -230l-71.999 -0.00195312v645h72v-207c0 -53.333 10 -92.666 30 -117.999s49.333 -38 88 -38c44 0 77.667 19.667 101 59c16 26 24 61.333 24 106v198h72v-415h-72v86c-10.667 -29.333 -27 -53 -49 -71s-48 -27 -78 -27c-22.667 0 -43.334 5.66699 -62.001 17
s-31.167 21.333 -37.5 30s-11.833 17.334 -16.5 26.001v-291z" />
    <glyph glyph-name="paragraph" unicode="&#xb6;" horiz-adv-x="580" 
d="M282 -95l-62.002 0.000976562v409h-15c-26 0 -51.667 4.66699 -77 14s-45.666 21.666 -60.999 36.999c-30 30 -45 70 -45 120c0 58.667 18.667 103.667 56 135c36.667 31.333 91.334 47 164.001 47h268v-58h-60v-704h-62v704h-106v-704z" />
    <glyph glyph-name="periodcentered" unicode="&#xb7;" horiz-adv-x="200" 
d="M36 340c0 17.333 6.33301 32.333 19 45s27.667 19 45 19s32.333 -6.33301 45 -19s19 -27.667 19 -45s-6.33301 -32.333 -19 -45s-27.667 -19 -45 -19s-32.333 6.33301 -45 19s-19 27.667 -19 45z" />
    <glyph glyph-name="cedilla" unicode="&#xb8;" 
d="M266 -52l66 -27l-101 -128l-49 24z" />
    <glyph glyph-name="onesuperior" unicode="&#xb9;" horiz-adv-x="350" 
d="M166 267v354h-78l24 46h106v-400h-52z" />
    <glyph glyph-name="ordmasculine" unicode="&#xba;" horiz-adv-x="374" 
d="M187 667c43.333 0 79.332 -14.333 107.999 -43c25.333 -26.667 38 -59 38 -97c0 -37.333 -12.333 -69 -37 -95c-27.333 -28.667 -63.666 -43 -108.999 -43c-43.333 0 -78.333 13.333 -105 40c-27.333 26 -41 59 -41 99c0 36 12.333 67.333 37 94c28.667 30 65 45 109 45z
M51.999 333h271v-42h-271v42zM186.999 623c-28.667 0 -52 -8.99902 -70 -26.999c-17.333 -17.333 -26 -40.333 -26 -69c0 -27.333 9 -50 27 -68c17.333 -17.333 40.333 -26 69 -26s52.334 9.33301 71.001 28c16.667 18 25 40.333 25 67c0 29.333 -9.33301 52.666 -28 69.999
c-16.667 16.667 -39.334 25 -68.001 25z" />
    <glyph glyph-name="guillemotright" unicode="&#xbb;" horiz-adv-x="430" 
d="M170 218l-120 146l46 36l150 -182l-150 -188l-46 37zM318 218l-120 146l46 36l150 -182l-150 -188l-46 37z" />
    <glyph glyph-name="onequarter" unicode="&#xbc;" horiz-adv-x="760" 
d="M166 267v354h-78l24 46h106v-400h-52zM187 10l388 670l38 -22l-388 -671zM679 422v-300h49v-46h-49v-76h-50v76h-205zM516 122h113v155z" />
    <glyph glyph-name="onehalf" unicode="&#xbd;" horiz-adv-x="760" 
d="M166 267v354h-78l24 46h106v-400h-52zM147 10l388 670l38 -22l-388 -671zM707 0l-264.999 0.00195312l146 169c23.333 27.333 38.666 46.666 45.999 57.999c14.667 21.333 22 41.666 22 60.999c0 20 -6.83301 37 -20.5 51s-32.167 21 -55.5 21
c-30 0 -51.667 -11.333 -65 -34c-8 -14 -12 -30 -12 -48h-50c2 36 12 65 30 87c23.333 27.333 55.333 41 96 41c38 0 69 -11 93 -33s36 -50.667 36 -86c0 -26 -10.667 -54.333 -32 -85c-10 -14.667 -28.333 -37 -55 -67l-77 -89h163v-46z" />
    <glyph glyph-name="threequarters" unicode="&#xbe;" horiz-adv-x="760" 
d="M38 376h50.001c2 -18.667 8.66699 -34.334 20 -47.001c14.667 -15.333 34 -23 58 -23c21.333 0 38.333 6.66699 51 20c14 14 21 32.667 21 56c0 24.667 -8.33301 43.667 -25 57c-12.667 10 -31.334 15 -56.001 15h-4v46h4c24.667 0 43.334 6 56.001 18
c12.667 11.333 19 27 19 47s-6.33301 35.667 -19 47c-11.333 10 -26.333 15 -45 15c-20 0 -35 -5 -45 -15c-12.667 -10.667 -19.667 -27 -21 -49h-50c0.666992 31.333 11.334 57.666 32.001 78.999c19.333 20.667 48 31 86 31c36.667 0 65 -10.667 85 -32
c19.333 -20.667 29 -45.667 29 -75c0 -20.667 -4 -38 -12 -52c-8.66699 -16 -22 -28.333 -40 -37c19.333 -9.33301 33.666 -21.333 42.999 -36c10 -15.333 15 -35.666 15 -60.999c0 -33.333 -11 -61.333 -33 -84c-23.333 -24 -54.333 -36 -93 -36
c-40.667 0 -72.334 12 -95.001 36c-20 20.667 -30.333 47.334 -31 80.001zM207.001 10l388 670l38 -22l-388 -671zM679.001 422v-300h49v-46h-49v-76h-50v76h-205zM516.001 122h113v155z" />
    <glyph glyph-name="questiondown" unicode="&#xbf;" horiz-adv-x="436" 
d="M147 147l-72 0.000976562c0 46.667 13.667 84.334 41 113.001c25.333 26.667 59.666 40 102.999 40c42.667 0 77.334 -13.333 104.001 -40s40 -61 40 -103c0 -57.333 -28 -98.666 -84 -123.999c-13.333 -6 -29.833 -11.833 -49.5 -17.5s-31.167 -9.16699 -34.5 -10.5
c-42.667 -15.333 -64 -44.666 -64 -87.999c0 -30.667 8.66699 -54 26 -70c15.333 -14 35.666 -21 60.999 -21c27.333 0 48.333 7 63 21c17.333 16.667 26 39 26 67c0 14.667 -2 28.667 -6 42h74c2.66699 -12.667 4 -27.334 4 -44.001c0 -45.333 -12.667 -81.333 -38 -108
c-28 -30.667 -68.667 -46 -122 -46c-50 0 -89.333 14.333 -118 43c-29.333 29.333 -44 68.666 -44 117.999c0 39.333 11.333 72 34 98c18.667 21.333 44.334 38 77.001 50c5.33301 2 12.833 4.5 22.5 7.5l26.5 8.5c8 2.66699 15.667 5.66699 23 9
c32.667 15.333 49 38.666 49 69.999c0 21.333 -6.66699 38.666 -20 51.999c-12 12 -28.333 18 -49 18s-37 -6 -49 -18c-16 -16 -24 -38.333 -24 -67zM268 397.001c0 -13.333 -5 -25 -15 -35s-21.667 -15 -35 -15s-25 5 -35 15s-15 21.667 -15 35s5 25 15 35s21.667 15 35 15
s25 -5 35 -15s15 -21.667 15 -35z" />
    <glyph glyph-name="Agrave" unicode="&#xc0;" horiz-adv-x="622" 
d="M532 0l-78 188h-284l-80 -188h-82l307 699l299 -699h-82zM199 258h226l-112 267zM321 720l-153 117l70 45l126 -130z" />
    <glyph glyph-name="Aacute" unicode="&#xc1;" horiz-adv-x="622" 
d="M532 0l-78 188h-284l-80 -188h-82l307 699l299 -699h-82zM199 258h226l-112 267zM393 882l70 -45l-153 -117l-43 32z" />
    <glyph glyph-name="Acircumflex" unicode="&#xc2;" horiz-adv-x="622" 
d="M532 0l-78 188h-284l-80 -188h-82l307 699l299 -699h-82zM199 258h226l-112 267zM314 797l-88 -76l-52 41l140 119l140 -119l-52 -41z" />
    <glyph glyph-name="Atilde" unicode="&#xc3;" horiz-adv-x="622" 
d="M532 0l-78 188h-284l-80 -188h-82l307 699l299 -699h-82zM199 258h226l-112 267zM423 842l42.999 -35c-6 -16 -14.667 -29.667 -26 -41c-20 -20.667 -43.333 -31 -70 -31c-15.333 0 -37.666 7.33301 -66.999 22c-28 13.333 -46.667 20 -56 20
c-11.333 0 -21.333 -4.33301 -30 -13c-8.66699 -10 -14.334 -20.333 -17.001 -31l-44 36c6.66699 17.333 16.667 32.333 30 45c18 18 39 27 63 27c17.333 0 40 -7 68 -21c26.667 -14 45.334 -21 56.001 -21c12 0 22.667 4.66699 32 14c8 8 14 17.667 18 29z" />
    <glyph glyph-name="Adieresis" unicode="&#xc4;" horiz-adv-x="622" 
d="M532 0l-78 188h-284l-80 -188h-82l307 699l299 -699h-82zM199 258h226l-112 267zM168 784c0 14 5 26 15 36s22 15 36 15s26 -5 36 -15s15 -22 15 -36s-5 -26 -15 -36s-22 -15 -36 -15s-26 5 -36 15s-15 22 -15 36zM358 784c0 14 5 26 15 36s22 15 36 15s26 -5 36 -15
s15 -22 15 -36s-5 -26 -15 -36s-22 -15 -36 -15s-26 5 -36 15s-15 22 -15 36z" />
    <glyph glyph-name="Aring" unicode="&#xc5;" horiz-adv-x="622" 
d="M532 0l-78 188h-284l-80 -188h-82l307 699l299 -699h-82zM199 258h226l-112 267zM227 818c0 24 8.66699 44.667 26 62s38 26 62 26s44.667 -8.66699 62 -26s26 -38 26 -62s-8.66699 -44.667 -26 -62s-38 -26 -62 -26s-44.667 8.66699 -62 26s-26 38 -26 62zM273 819
c0 -11.333 4.16699 -21.166 12.5 -29.499s18.166 -12.5 29.499 -12.5s21.166 4.16699 29.499 12.5s12.5 18.166 12.5 29.499s-4.16699 21.166 -12.5 29.499s-18.166 12.5 -29.499 12.5s-21.166 -4.16699 -29.499 -12.5s-12.5 -18.166 -12.5 -29.499z" />
    <glyph glyph-name="AE" unicode="&#xc6;" horiz-adv-x="900" 
d="M538 0l-79 187h-284l-79 -187h-82l297 667h293l29 -70h-269l83 -198h264l29 -70h-262l108 -259h271l29 -70h-348zM207 257h223l-110 261z" />
    <glyph glyph-name="Ccedilla" unicode="&#xc7;" horiz-adv-x="646" 
d="M596 612l0.000976562 -92.001c-26.667 26.667 -55.667 47.334 -87 62.001c-38 17.333 -76.333 26 -115 26c-76.667 0 -140.5 -26.833 -191.5 -80.5s-76.5 -119.5 -76.5 -197.5c0 -84 27.833 -150.333 83.5 -199s117.5 -73 185.5 -73c42.667 0 84 10.333 124 31
c28 14 53.667 32.667 77 56v-92c-60.667 -43.333 -127.667 -65 -201 -65c-98.667 0 -180.834 33 -246.501 99s-98.5 147.333 -98.5 244c0 99.333 33.167 182 99.5 248s149.5 99 249.5 99c73.333 0 139 -22 197 -66zM364.001 -52.001l70 -30l-104 -128l-50 26z" />
    <glyph glyph-name="Egrave" unicode="&#xc8;" horiz-adv-x="482" 
d="M432 667v-70h-272v-198h264v-70h-264v-259h272v-70h-346v667h346zM271 720l-153 117l70 45l126 -130z" />
    <glyph glyph-name="Eacute" unicode="&#xc9;" horiz-adv-x="482" 
d="M432 667v-70h-272v-198h264v-70h-264v-259h272v-70h-346v667h346zM332 882l70 -45l-153 -117l-43 32z" />
    <glyph glyph-name="Ecircumflex" unicode="&#xca;" horiz-adv-x="482" 
d="M432 667v-70h-272v-198h264v-70h-264v-259h272v-70h-346v667h346zM260 797l-88 -76l-52 41l140 119l140 -119l-52 -41z" />
    <glyph glyph-name="Edieresis" unicode="&#xcb;" horiz-adv-x="482" 
d="M432 667v-70h-272v-198h264v-70h-264v-259h272v-70h-346v667h346zM114 784c0 14 5 26 15 36s22 15 36 15s26 -5 36 -15s15 -22 15 -36s-5 -26 -15 -36s-22 -15 -36 -15s-26 5 -36 15s-15 22 -15 36zM304 784c0 14 5 26 15 36s22 15 36 15s26 -5 36 -15s15 -22 15 -36
s-5 -26 -15 -36s-22 -15 -36 -15s-26 5 -36 15s-15 22 -15 36z" />
    <glyph glyph-name="Igrave" unicode="&#xcc;" horiz-adv-x="246" 
d="M86 667h74v-667h-74v667zM125 720l-153 117l70 45l126 -130z" />
    <glyph glyph-name="Iacute" unicode="&#xcd;" horiz-adv-x="246" 
d="M86 667h74v-667h-74v667zM213 882l70 -45l-153 -117l-43 32z" />
    <glyph glyph-name="Icircumflex" unicode="&#xce;" horiz-adv-x="246" 
d="M85 667h74v-667h-74v667zM123 797l-88 -76l-52 41l140 119l140 -119l-52 -41z" />
    <glyph glyph-name="Idieresis" unicode="&#xcf;" horiz-adv-x="246" 
d="M86 667h74v-667h-74v667zM15 784c0 14 4.33301 26 13 36s19.334 15 32.001 15s23.334 -5 32.001 -15s13 -22 13 -36s-4.33301 -26 -13 -36s-19.334 -15 -32.001 -15s-23.334 5 -32.001 15s-13 22 -13 36zM141 784c0 14 4.33301 26 13 36s19.334 15 32.001 15
s23.334 -5 32.001 -15s13 -22 13 -36s-4.33301 -26 -13 -36s-19.334 -15 -32.001 -15s-23.334 5 -32.001 15s-13 22 -13 36z" />
    <glyph glyph-name="Eth" unicode="&#xd0;" horiz-adv-x="632" 
d="M86 0v335.999h-86v64h86v267h136c102.667 0 184.667 -26 246 -78c76 -63.333 114 -148.666 114 -255.999c0 -104 -39 -189.333 -117 -256c-32 -27.333 -66.333 -47 -103 -59s-83.667 -18 -141 -18h-135zM160 596.999v-197.001h136v-64h-136v-266h65
c79.333 0 143 20 191 60c60 50.667 90 118.334 90 203.001c0 80 -25.667 144 -77 192s-119.333 72 -204 72h-65z" />
    <glyph glyph-name="Ntilde" unicode="&#xd1;" horiz-adv-x="766" 
d="M160 0h-74v695l520 -545v517h74v-697l-520 545v-515zM495 842l42.999 -35c-6 -16 -14.667 -29.667 -26 -41c-20 -20.667 -43.333 -31 -70 -31c-15.333 0 -37.666 7.33301 -66.999 22c-28 13.333 -46.667 20 -56 20c-11.333 0 -21.333 -4.33301 -30 -13
c-8.66699 -10 -14.334 -20.333 -17.001 -31l-44 36c6.66699 17.333 16.667 32.333 30 45c18 18 39 27 63 27c17.333 0 40 -7 68 -21c26.667 -14 45.334 -21 56.001 -21c12 0 22.667 4.66699 32 14c8 8 14 17.667 18 29z" />
    <glyph glyph-name="Ograve" unicode="&#xd2;" horiz-adv-x="794" 
d="M397 -12c-97.333 0 -179.5 33 -246.5 99s-100.5 148 -100.5 246c0 98.667 33.667 180.834 101 246.501s149.333 98.5 246 98.5s178.667 -32.833 246 -98.5s101 -147.834 101 -246.501c0 -98 -33.5 -180 -100.5 -246s-149.167 -99 -246.5 -99zM397 608
c-75.333 0 -139.333 -26.667 -192 -80s-79 -118.333 -79 -195s26.333 -141.667 79 -195s116.667 -80 192 -80s139.333 26.667 192 80s79 118.333 79 195s-26.333 141.667 -79 195s-116.667 80 -192 80zM411 720l-153 117l70 45l126 -130z" />
    <glyph glyph-name="Oacute" unicode="&#xd3;" horiz-adv-x="794" 
d="M397 -12c-97.333 0 -179.5 33 -246.5 99s-100.5 148 -100.5 246c0 98.667 33.667 180.834 101 246.501s149.333 98.5 246 98.5s178.667 -32.833 246 -98.5s101 -147.834 101 -246.501c0 -98 -33.5 -180 -100.5 -246s-149.167 -99 -246.5 -99zM397 608
c-75.333 0 -139.333 -26.667 -192 -80s-79 -118.333 -79 -195s26.333 -141.667 79 -195s116.667 -80 192 -80s139.333 26.667 192 80s79 118.333 79 195s-26.333 141.667 -79 195s-116.667 80 -192 80zM462 882l70 -45l-153 -117l-43 32z" />
    <glyph glyph-name="Ocircumflex" unicode="&#xd4;" horiz-adv-x="794" 
d="M397 -12c-97.333 0 -179.5 33 -246.5 99s-100.5 148 -100.5 246c0 98.667 33.667 180.834 101 246.501s149.333 98.5 246 98.5s178.667 -32.833 246 -98.5s101 -147.834 101 -246.501c0 -98 -33.5 -180 -100.5 -246s-149.167 -99 -246.5 -99zM397 608
c-75.333 0 -139.333 -26.667 -192 -80s-79 -118.333 -79 -195s26.333 -141.667 79 -195s116.667 -80 192 -80s139.333 26.667 192 80s79 118.333 79 195s-26.333 141.667 -79 195s-116.667 80 -192 80zM397 797l-88 -76l-52 41l140 119l140 -119l-52 -41z" />
    <glyph glyph-name="Otilde" unicode="&#xd5;" horiz-adv-x="794" 
d="M397 -12c-97.333 0 -179.5 33 -246.5 99s-100.5 148 -100.5 246c0 98.667 33.667 180.834 101 246.501s149.333 98.5 246 98.5s178.667 -32.833 246 -98.5s101 -147.834 101 -246.501c0 -98 -33.5 -180 -100.5 -246s-149.167 -99 -246.5 -99zM397 608
c-75.333 0 -139.333 -26.667 -192 -80s-79 -118.333 -79 -195s26.333 -141.667 79 -195s116.667 -80 192 -80s139.333 26.667 192 80s79 118.333 79 195s-26.333 141.667 -79 195s-116.667 80 -192 80zM509 842l42.999 -35c-6 -16 -14.667 -29.667 -26 -41
c-20 -20.667 -43.333 -31 -70 -31c-15.333 0 -37.666 7.33301 -66.999 22c-28 13.333 -46.667 20 -56 20c-11.333 0 -21.333 -4.33301 -30 -13c-8.66699 -10 -14.334 -20.333 -17.001 -31l-44 36c6.66699 17.333 16.667 32.333 30 45c18 18 39 27 63 27
c17.333 0 40 -7 68 -21c26.667 -14 45.334 -21 56.001 -21c12 0 22.667 4.66699 32 14c8 8 14 17.667 18 29z" />
    <glyph glyph-name="Odieresis" unicode="&#xd6;" horiz-adv-x="794" 
d="M397 -12c-97.333 0 -179.5 33 -246.5 99s-100.5 148 -100.5 246c0 98.667 33.667 180.834 101 246.501s149.333 98.5 246 98.5s178.667 -32.833 246 -98.5s101 -147.834 101 -246.501c0 -98 -33.5 -180 -100.5 -246s-149.167 -99 -246.5 -99zM397 608
c-75.333 0 -139.333 -26.667 -192 -80s-79 -118.333 -79 -195s26.333 -141.667 79 -195s116.667 -80 192 -80s139.333 26.667 192 80s79 118.333 79 195s-26.333 141.667 -79 195s-116.667 80 -192 80zM251 784c0 14 5 26 15 36s22 15 36 15s26 -5 36 -15s15 -22 15 -36
s-5 -26 -15 -36s-22 -15 -36 -15s-26 5 -36 15s-15 22 -15 36zM441 784c0 14 5 26 15 36s22 15 36 15s26 -5 36 -15s15 -22 15 -36s-5 -26 -15 -36s-22 -15 -36 -15s-26 5 -36 15s-15 22 -15 36z" />
    <glyph glyph-name="multiply" unicode="&#xd7;" 
d="M60 190l143 143l-149 149l47 47l149 -149l149 149l47 -47l-149 -149l143 -143l-47 -47l-143 143l-143 -143z" />
    <glyph glyph-name="Oslash" unicode="&#xd8;" horiz-adv-x="794" 
d="M744 635l-79 -80.001c52.667 -62.667 79 -136.667 79 -222c0 -98 -33.667 -180 -101 -246s-149.333 -99 -246 -99c-86 0 -160.333 26 -223 78l-80 -79l-50 50l80 79c-49.333 62.667 -74 135 -74 217c0 98.667 33.667 180.834 101 246.501s149.333 98.5 246 98.5
c82 0 154.667 -24.333 218 -73l79 80zM182 165.999l375 389c-46 35.333 -99.333 53 -160 53c-75.333 0 -139.333 -26.667 -192 -80s-79 -118.333 -79 -195c0 -63.333 18.667 -119 56 -167zM608 505.999l-376.999 -391c49.333 -38 104.666 -57 165.999 -57
c74.667 0 138.5 26.833 191.5 80.5s79.5 118.5 79.5 194.5c0 66 -20 123.667 -60 173z" />
    <glyph glyph-name="Ugrave" unicode="&#xd9;" horiz-adv-x="646" 
d="M160 667l0.00195312 -409c0 -25.333 0.5 -45 1.5 -59s5.66699 -31.167 14 -51.5s20.833 -37.5 37.5 -51.5c30 -25.333 66.667 -38 110 -38s80 12.667 110 38c16.667 14 29.167 31.167 37.5 51.5s13 37.5 14 51.5s1.5 33.667 1.5 59v409h74v-429
c0 -68 -14 -121.333 -42 -160c-20.667 -28 -47.834 -50 -81.501 -66s-71.5 -24 -113.5 -24s-79.833 8 -113.5 24s-60.834 38 -81.501 66c-28 38.667 -42 92 -42 160v429h74zM331.002 720l-153 117l70 45l126 -130z" />
    <glyph glyph-name="Uacute" unicode="&#xda;" horiz-adv-x="646" 
d="M160 667l0.00195312 -409c0 -25.333 0.5 -45 1.5 -59s5.66699 -31.167 14 -51.5s20.833 -37.5 37.5 -51.5c30 -25.333 66.667 -38 110 -38s80 12.667 110 38c16.667 14 29.167 31.167 37.5 51.5s13 37.5 14 51.5s1.5 33.667 1.5 59v409h74v-429
c0 -68 -14 -121.333 -42 -160c-20.667 -28 -47.834 -50 -81.501 -66s-71.5 -24 -113.5 -24s-79.833 8 -113.5 24s-60.834 38 -81.501 66c-28 38.667 -42 92 -42 160v429h74zM398.002 882l70 -45l-153 -117l-43 32z" />
    <glyph glyph-name="Ucircumflex" unicode="&#xdb;" horiz-adv-x="646" 
d="M160 667l0.00195312 -409c0 -25.333 0.5 -45 1.5 -59s5.66699 -31.167 14 -51.5s20.833 -37.5 37.5 -51.5c30 -25.333 66.667 -38 110 -38s80 12.667 110 38c16.667 14 29.167 31.167 37.5 51.5s13 37.5 14 51.5s1.5 33.667 1.5 59v409h74v-429
c0 -68 -14 -121.333 -42 -160c-20.667 -28 -47.834 -50 -81.501 -66s-71.5 -24 -113.5 -24s-79.833 8 -113.5 24s-60.834 38 -81.501 66c-28 38.667 -42 92 -42 160v429h74zM323.002 797l-88 -76l-52 41l140 119l140 -119l-52 -41z" />
    <glyph glyph-name="Udieresis" unicode="&#xdc;" horiz-adv-x="646" 
d="M160 667l0.00195312 -409c0 -25.333 0.5 -45 1.5 -59s5.66699 -31.167 14 -51.5s20.833 -37.5 37.5 -51.5c30 -25.333 66.667 -38 110 -38s80 12.667 110 38c16.667 14 29.167 31.167 37.5 51.5s13 37.5 14 51.5s1.5 33.667 1.5 59v409h74v-429
c0 -68 -14 -121.333 -42 -160c-20.667 -28 -47.834 -50 -81.501 -66s-71.5 -24 -113.5 -24s-79.833 8 -113.5 24s-60.834 38 -81.501 66c-28 38.667 -42 92 -42 160v429h74zM177.002 784c0 14 5 26 15 36s22 15 36 15s26 -5 36 -15s15 -22 15 -36s-5 -26 -15 -36
s-22 -15 -36 -15s-26 5 -36 15s-15 22 -15 36zM367.002 784c0 14 5 26 15 36s22 15 36 15s26 -5 36 -15s15 -22 15 -36s-5 -26 -15 -36s-22 -15 -36 -15s-26 5 -36 15s-15 22 -15 36z" />
    <glyph glyph-name="Yacute" unicode="&#xdd;" horiz-adv-x="530" 
d="M227 0v287l-219 380h86l170 -298l172 298h86l-221 -380v-287h-74zM347 882l70 -45l-153 -117l-43 32z" />
    <glyph glyph-name="Thorn" unicode="&#xde;" horiz-adv-x="456" 
d="M86 667l74 0.000976562v-100h47c76 0 132 -15.667 168 -47c40.667 -34.667 61 -82.334 61 -143.001c0 -52 -17.5 -96.167 -52.5 -132.5s-87.833 -54.5 -158.5 -54.5h-65v-190h-74v667zM160 497.001v-237h61c44 0 78.5 10.667 103.5 32s37.5 51 37.5 89
c0 77.333 -49 116 -147 116h-55z" />
    <glyph glyph-name="germandbls" unicode="&#xdf;" horiz-adv-x="532" 
d="M148 0l-72.0029 -0.00195312v349h-70v66h70v134c0 62.667 16.333 110.667 49 144c30.667 32 72.667 48 126 48c52.667 0 95.334 -16.667 128.001 -50c30 -30.667 45 -70 45 -118c0 -36.667 -7.33301 -66.667 -22 -90c-13.333 -22 -31.666 -38.667 -54.999 -50
c36.667 -12.667 66 -31 88 -55c36.667 -38 55 -86 55 -144c0 -65.333 -22 -120.666 -66 -165.999c-49.333 -50.667 -111.666 -77.334 -186.999 -80.001v70c54.667 4 99 23.667 133 59c29.333 30.667 44 68.334 44 113.001c0 47.333 -16 86.333 -48 117
c-32.667 31.333 -75.667 47.666 -129 48.999v64c36.667 0 66 11.333 88 34c16.667 18 25 42.667 25 74c0 38.667 -10 67.334 -30 86.001c-16.667 15.333 -39.667 23 -69 23c-35.333 0 -62 -12.667 -80 -38c-15.333 -21.333 -23 -60.666 -23 -117.999v-521z" />
    <glyph glyph-name="agrave" unicode="&#xe0;" horiz-adv-x="526" 
d="M386 356v59h72v-415h-72v58c-36 -46.667 -83.333 -70 -142 -70c-56 0 -103.667 19.333 -143 58s-59 92.667 -59 162c0 68 19.5 121.167 58.5 159.5s86.833 57.5 143.5 57.5c60 0 107.333 -23 142 -69zM252 361c-38 0 -70.167 -13.5 -96.5 -40.5s-39.5 -64.5 -39.5 -112.5
c0 -46 12.167 -83.5 36.5 -112.5s57.5 -43.5 99.5 -43.5s75.5 15 100.5 45s37.5 66.667 37.5 110c0 49.333 -14 87.333 -42 114s-60 40 -96 40zM249 497l-135 135l74 34l105 -145z" />
    <glyph glyph-name="aacute" unicode="&#xe1;" horiz-adv-x="526" 
d="M386 356v59h72v-415h-72v58c-36 -46.667 -83.333 -70 -142 -70c-56 0 -103.667 19.333 -143 58s-59 92.667 -59 162c0 68 19.5 121.167 58.5 159.5s86.833 57.5 143.5 57.5c60 0 107.333 -23 142 -69zM252 361c-38 0 -70.167 -13.5 -96.5 -40.5s-39.5 -64.5 -39.5 -112.5
c0 -46 12.167 -83.5 36.5 -112.5s57.5 -43.5 99.5 -43.5s75.5 15 100.5 45s37.5 66.667 37.5 110c0 49.333 -14 87.333 -42 114s-60 40 -96 40zM312 666l74 -34l-134 -135l-45 24z" />
    <glyph glyph-name="acircumflex" unicode="&#xe2;" horiz-adv-x="526" 
d="M386 356v59h72v-415h-72v58c-36 -46.667 -83.333 -70 -142 -70c-56 0 -103.667 19.333 -143 58s-59 92.667 -59 162c0 68 19.5 121.167 58.5 159.5s86.833 57.5 143.5 57.5c60 0 107.333 -23 142 -69zM252 361c-38 0 -70.167 -13.5 -96.5 -40.5s-39.5 -64.5 -39.5 -112.5
c0 -46 12.167 -83.5 36.5 -112.5s57.5 -43.5 99.5 -43.5s75.5 15 100.5 45s37.5 66.667 37.5 110c0 49.333 -14 87.333 -42 114s-60 40 -96 40zM256 578l-92 -81l-46 36l138 121l138 -121l-46 -36z" />
    <glyph glyph-name="atilde" unicode="&#xe3;" horiz-adv-x="526" 
d="M386 356v59h72v-415h-72v58c-36 -46.667 -83.333 -70 -142 -70c-56 0 -103.667 19.333 -143 58s-59 92.667 -59 162c0 68 19.5 121.167 58.5 159.5s86.833 57.5 143.5 57.5c60 0 107.333 -23 142 -69zM252 361c-38 0 -70.167 -13.5 -96.5 -40.5s-39.5 -64.5 -39.5 -112.5
c0 -46 12.167 -83.5 36.5 -112.5s57.5 -43.5 99.5 -43.5s75.5 15 100.5 45s37.5 66.667 37.5 110c0 49.333 -14 87.333 -42 114s-60 40 -96 40zM164 497l-42 34c11.333 18 22.666 33 33.999 45c16.667 16 35.667 24 57 24c20 0 43.333 -6.66699 70 -20
c25.333 -13.333 44 -20 56 -20s21.667 4 29 12c8.66699 10 15.667 20.333 21 31l41 -34c-5.33301 -14 -14 -27 -26 -39c-19.333 -20 -41.333 -30 -66 -30c-16.667 0 -39.667 7 -69 21c-27.333 12.667 -45.666 19 -54.999 19c-10 0 -19.667 -4.66699 -29 -14
c-7.33301 -7.33301 -14.333 -17 -21 -29z" />
    <glyph glyph-name="adieresis" unicode="&#xe4;" horiz-adv-x="526" 
d="M386 356v59h72v-415h-72v58c-36 -46.667 -83.333 -70 -142 -70c-56 0 -103.667 19.333 -143 58s-59 92.667 -59 162c0 68 19.5 121.167 58.5 159.5s86.833 57.5 143.5 57.5c60 0 107.333 -23 142 -69zM252 361c-38 0 -70.167 -13.5 -96.5 -40.5s-39.5 -64.5 -39.5 -112.5
c0 -46 12.167 -83.5 36.5 -112.5s57.5 -43.5 99.5 -43.5s75.5 15 100.5 45s37.5 66.667 37.5 110c0 49.333 -14 87.333 -42 114s-60 40 -96 40zM130 550c0 13.333 5 25 15 35s21.667 15 35 15s25 -5 35 -15s15 -21.667 15 -35s-5 -25 -15 -35s-21.667 -15 -35 -15
s-25 5 -35 15s-15 21.667 -15 35zM304 550c0 13.333 5 25 15 35s21.667 15 35 15s25 -5 35 -15s15 -21.667 15 -35s-5 -25 -15 -35s-21.667 -15 -35 -15s-25 5 -35 15s-15 21.667 -15 35z" />
    <glyph glyph-name="aring" unicode="&#xe5;" horiz-adv-x="526" 
d="M386 356v59h72v-415h-72v58c-36 -46.667 -83.333 -70 -142 -70c-56 0 -103.667 19.333 -143 58s-59 92.667 -59 162c0 68 19.5 121.167 58.5 159.5s86.833 57.5 143.5 57.5c60 0 107.333 -23 142 -69zM252 361c-38 0 -70.167 -13.5 -96.5 -40.5s-39.5 -64.5 -39.5 -112.5
c0 -46 12.167 -83.5 36.5 -112.5s57.5 -43.5 99.5 -43.5s75.5 15 100.5 45s37.5 66.667 37.5 110c0 49.333 -14 87.333 -42 114s-60 40 -96 40zM182 583c0 23.333 8.5 43.5 25.5 60.5s37.167 25.5 60.5 25.5s43.5 -8.5 60.5 -25.5s25.5 -37.167 25.5 -60.5
s-8.5 -43.5 -25.5 -60.5s-37.167 -25.5 -60.5 -25.5s-43.5 8.5 -60.5 25.5s-25.5 37.167 -25.5 60.5zM226 583c0 -11.333 4.33301 -21.166 13 -29.499s18.334 -12.5 29.001 -12.5s20.334 4.16699 29.001 12.5s13 18.166 13 29.499s-4.33301 21.166 -13 29.499
s-18.334 12.5 -29.001 12.5s-20.334 -4.16699 -29.001 -12.5s-13 -18.166 -13 -29.499z" />
    <glyph glyph-name="ae" unicode="&#xe6;" horiz-adv-x="774" 
d="M667 140l59.9961 -35.998c-40.667 -77.333 -103 -116 -187 -116c-71.333 0 -125.666 27.667 -162.999 83c-31.333 -55.333 -83.333 -83 -156 -83c-51.333 0 -94 11.667 -128 35s-51 56.666 -51 99.999s16.333 77 49 101s74 36 124 36
c46.667 0 86.334 -11.667 119.001 -35c1.33301 36 -5 65.333 -19 88c-18.667 32 -51.667 48 -99 48c-37.333 0 -80 -8.66699 -128 -26v68c44.667 14.667 87.667 22 129 22c78 0 130.333 -28 157 -84c34.667 56 88 84 160 84c60.667 0 108.834 -20.5 144.501 -61.5
s53.5 -95.5 53.5 -163.5v-7h-324c1.33301 -40.667 14.5 -74.334 39.5 -101.001s55.5 -40 91.5 -40c27.333 0 52.333 8.33301 75 25s40.334 37.667 53.001 63zM412.996 253.002h245.002c-4.66699 33.333 -18.334 59.666 -41.001 78.999s-50 29 -82 29
c-30.667 0 -57.334 -9.66699 -80.001 -29s-36.667 -45.666 -42 -78.999zM220.998 196.002c-34 0 -60.332 -6.83301 -78.999 -20.5s-28 -31.167 -28 -52.5c0 -18.667 8.16699 -35.167 24.5 -49.5s43.166 -21.5 80.499 -21.5c38 0 66 7.5 84 22.5s27 32.167 27 51.5
c0 17.333 -8.83301 33.333 -26.5 48s-45.167 22 -82.5 22z" />
    <glyph glyph-name="ccedilla" unicode="&#xe7;" horiz-adv-x="438" 
d="M393 385l0.00195312 -86c-32.667 41.333 -76 62 -130 62c-40.667 0 -75.334 -13.833 -104.001 -41.5s-43 -65.5 -43 -113.5s14.333 -85.667 43 -113s63 -41 103 -41c53.333 0 98 21.667 134 65v-86c-39.333 -28.667 -83.333 -43 -132 -43
c-64.667 0 -117.834 20.5 -159.501 61.5s-62.5 92.833 -62.5 155.5c0 63.333 21 115.833 63 157.5s95 62.5 159 62.5c48 0 91 -13.333 129 -40zM246.002 -52l66 -27l-101 -128l-49 24z" />
    <glyph glyph-name="egrave" unicode="&#xe8;" horiz-adv-x="481" 
d="M376 139l60.002 -33c-14 -26.667 -31 -49 -51 -67c-38 -34 -84 -51 -138 -51c-56 0 -104.167 18.167 -144.5 54.5s-60.5 90.5 -60.5 162.5c0 63.333 18.167 115.833 54.5 157.5s85.166 62.5 146.499 62.5c69.333 0 121.666 -25.333 156.999 -76c28 -40 41 -92 39 -156
h-323c0.666992 -42 13.667 -76 39 -102s56.333 -39 93 -39c32.667 0 61 10 85 30c18.667 16 33 35 43 57zM121.002 253l244 -0.00195312c-6 32.667 -20.167 58.834 -42.5 78.501s-48.833 29.5 -79.5 29.5c-30 0 -56.5 -10.167 -79.5 -30.5s-37.167 -46.166 -42.5 -77.499z
M249.002 496.998l-135 135l74 34l105 -145z" />
    <glyph glyph-name="eacute" unicode="&#xe9;" horiz-adv-x="481" 
d="M376 139l60.002 -33c-14 -26.667 -31 -49 -51 -67c-38 -34 -84 -51 -138 -51c-56 0 -104.167 18.167 -144.5 54.5s-60.5 90.5 -60.5 162.5c0 63.333 18.167 115.833 54.5 157.5s85.166 62.5 146.499 62.5c69.333 0 121.666 -25.333 156.999 -76c28 -40 41 -92 39 -156
h-323c0.666992 -42 13.667 -76 39 -102s56.333 -39 93 -39c32.667 0 61 10 85 30c18.667 16 33 35 43 57zM121.002 253l244 -0.00195312c-6 32.667 -20.167 58.834 -42.5 78.501s-48.833 29.5 -79.5 29.5c-30 0 -56.5 -10.167 -79.5 -30.5s-37.167 -46.166 -42.5 -77.499z
M292.002 665.998l74 -34l-134 -135l-45 24z" />
    <glyph glyph-name="ecircumflex" unicode="&#xea;" horiz-adv-x="481" 
d="M376 139l60.002 -33c-14 -26.667 -31 -49 -51 -67c-38 -34 -84 -51 -138 -51c-56 0 -104.167 18.167 -144.5 54.5s-60.5 90.5 -60.5 162.5c0 63.333 18.167 115.833 54.5 157.5s85.166 62.5 146.499 62.5c69.333 0 121.666 -25.333 156.999 -76c28 -40 41 -92 39 -156
h-323c0.666992 -42 13.667 -76 39 -102s56.333 -39 93 -39c32.667 0 61 10 85 30c18.667 16 33 35 43 57zM121.002 253l244 -0.00195312c-6 32.667 -20.167 58.834 -42.5 78.501s-48.833 29.5 -79.5 29.5c-30 0 -56.5 -10.167 -79.5 -30.5s-37.167 -46.166 -42.5 -77.499z
M242.002 577.998l-92 -81l-46 36l138 121l138 -121l-46 -36z" />
    <glyph glyph-name="edieresis" unicode="&#xeb;" horiz-adv-x="481" 
d="M376 139l60.002 -33c-14 -26.667 -31 -49 -51 -67c-38 -34 -84 -51 -138 -51c-56 0 -104.167 18.167 -144.5 54.5s-60.5 90.5 -60.5 162.5c0 63.333 18.167 115.833 54.5 157.5s85.166 62.5 146.499 62.5c69.333 0 121.666 -25.333 156.999 -76c28 -40 41 -92 39 -156
h-323c0.666992 -42 13.667 -76 39 -102s56.333 -39 93 -39c32.667 0 61 10 85 30c18.667 16 33 35 43 57zM121.002 253l244 -0.00195312c-6 32.667 -20.167 58.834 -42.5 78.501s-48.833 29.5 -79.5 29.5c-30 0 -56.5 -10.167 -79.5 -30.5s-37.167 -46.166 -42.5 -77.499z
M105.002 549.998c0 13.333 5 25 15 35s21.667 15 35 15s25 -5 35 -15s15 -21.667 15 -35s-5 -25 -15 -35s-21.667 -15 -35 -15s-25 5 -35 15s-15 21.667 -15 35zM279.002 549.998c0 13.333 5 25 15 35s21.667 15 35 15s25 -5 35 -15s15 -21.667 15 -35s-5 -25 -15 -35
s-21.667 -15 -35 -15s-25 5 -35 15s-15 21.667 -15 35z" />
    <glyph glyph-name="igrave" unicode="&#xec;" horiz-adv-x="208" 
d="M68 415h72v-415h-72v415zM109 493l-123 147l77 27l91 -153z" />
    <glyph glyph-name="iacute" unicode="&#xed;" horiz-adv-x="208" 
d="M68 415h72v-415h-72v415zM145 667l77 -27l-123 -147l-47 21z" />
    <glyph glyph-name="icircumflex" unicode="&#xee;" horiz-adv-x="208" 
d="M68 415h72v-415h-72v415zM104 572l-75 -67l-43 35l118 106l118 -106l-43 -35z" />
    <glyph glyph-name="idieresis" unicode="&#xef;" horiz-adv-x="208" 
d="M68 415h72v-415h-72v415zM-33 550c0 13.333 5 25 15 35s21.667 15 35 15s25 -5 35 -15s15 -21.667 15 -35s-5 -25 -15 -35s-21.667 -15 -35 -15s-25 5 -35 15s-15 21.667 -15 35zM141 550c0 13.333 5 25 15 35s21.667 15 35 15s25 -5 35 -15s15 -21.667 15 -35
s-5 -25 -15 -35s-21.667 -15 -35 -15s-25 5 -35 15s-15 21.667 -15 35z" />
    <glyph glyph-name="eth" unicode="&#xf0;" horiz-adv-x="524" 
d="M83 612l17 61.001c77.333 -6.66699 147.666 -30.334 210.999 -71.001l129 42l18 -54l-95 -31c30 -26.667 54.667 -59 74 -97c30 -60 45 -130 45 -210c0 -64 -11.667 -116.667 -35 -158c-40.667 -70.667 -102.334 -106 -185.001 -106c-63.333 0 -116.333 21.333 -159 64
c-40.667 42 -61 95.333 -61 160c0 68 21.667 123.667 65 167c38.667 38.667 88.334 58 149.001 58c53.333 0 98.333 -16.333 135 -49c-7.33301 26.667 -19.666 53 -36.999 79c-18 26 -39.333 48.667 -64 68l-179 -59l-18 54l134 44c-41.333 19.333 -89.333 32 -144 38z
M408 218.001c0 50.667 -15.999 90.667 -47.999 120c-24.667 23.333 -56.334 35 -95.001 35c-39.333 0 -73 -13.333 -101 -40c-32 -30 -48 -71 -48 -123c0 -48 15.333 -87 46 -117c28 -27.333 61.333 -41 100 -41s71 13 97 39c32.667 32 49 74.333 49 127z" />
    <glyph glyph-name="ntilde" unicode="&#xf1;" horiz-adv-x="470" 
d="M68 0v414.999h72v-48c29.333 38.667 69 58 119 58c53.333 0 93 -19 119 -57c16 -23.333 24 -60.333 24 -111v-257h-72v255c0 34 -6.33301 59.333 -19 76c-15.333 20 -38 30 -68 30c-30.667 0 -55 -10.667 -73 -32c-20 -23.333 -30 -60.666 -30 -111.999v-217h-72z
M118 496.999l-42 34c11.333 18 22.666 33 33.999 45c16.667 16 35.667 24 57 24c20 0 43.333 -6.66699 70 -20c25.333 -13.333 44 -20 56 -20s21.667 4 29 12c8.66699 10 15.667 20.333 21 31l41 -34c-5.33301 -14 -14 -27 -26 -39c-19.333 -20 -41.333 -30 -66 -30
c-16.667 0 -39.667 7 -69 21c-27.333 12.667 -45.666 19 -54.999 19c-10 0 -19.667 -4.66699 -29 -14c-7.33301 -7.33301 -14.333 -17 -21 -29z" />
    <glyph glyph-name="ograve" unicode="&#xf2;" horiz-adv-x="524" 
d="M262 -12c-63.333 0 -115.833 20.667 -157.5 62s-62.5 93.333 -62.5 156c0 63.333 20.833 115.666 62.5 156.999s94.167 62 157.5 62s115.833 -20.667 157.5 -62s62.5 -93.666 62.5 -156.999c0 -62.667 -20.833 -114.667 -62.5 -156s-94.167 -62 -157.5 -62zM262 361
c-40.667 0 -75.167 -13.833 -103.5 -41.5s-42.5 -65.5 -42.5 -113.5s14.333 -85.667 43 -113s63 -41 103 -41s74.333 13.667 103 41s43 65 43 113c0 48.667 -14.167 86.667 -42.5 114s-62.833 41 -103.5 41zM261 497l-135 135l74 34l105 -145z" />
    <glyph glyph-name="oacute" unicode="&#xf3;" horiz-adv-x="524" 
d="M262 -12c-63.333 0 -115.833 20.667 -157.5 62s-62.5 93.333 -62.5 156c0 63.333 20.833 115.666 62.5 156.999s94.167 62 157.5 62s115.833 -20.667 157.5 -62s62.5 -93.666 62.5 -156.999c0 -62.667 -20.833 -114.667 -62.5 -156s-94.167 -62 -157.5 -62zM262 361
c-40.667 0 -75.167 -13.833 -103.5 -41.5s-42.5 -65.5 -42.5 -113.5s14.333 -85.667 43 -113s63 -41 103 -41s74.333 13.667 103 41s43 65 43 113c0 48.667 -14.167 86.667 -42.5 114s-62.833 41 -103.5 41zM324 666l74 -34l-134 -135l-45 24z" />
    <glyph glyph-name="ocircumflex" unicode="&#xf4;" horiz-adv-x="524" 
d="M262 -12c-63.333 0 -115.833 20.667 -157.5 62s-62.5 93.333 -62.5 156c0 63.333 20.833 115.666 62.5 156.999s94.167 62 157.5 62s115.833 -20.667 157.5 -62s62.5 -93.666 62.5 -156.999c0 -62.667 -20.833 -114.667 -62.5 -156s-94.167 -62 -157.5 -62zM262 361
c-40.667 0 -75.167 -13.833 -103.5 -41.5s-42.5 -65.5 -42.5 -113.5s14.333 -85.667 43 -113s63 -41 103 -41s74.333 13.667 103 41s43 65 43 113c0 48.667 -14.167 86.667 -42.5 114s-62.833 41 -103.5 41zM262 578l-92 -81l-46 36l138 121l138 -121l-46 -36z" />
    <glyph glyph-name="otilde" unicode="&#xf5;" horiz-adv-x="524" 
d="M262 -12c-63.333 0 -115.833 20.667 -157.5 62s-62.5 93.333 -62.5 156c0 63.333 20.833 115.666 62.5 156.999s94.167 62 157.5 62s115.833 -20.667 157.5 -62s62.5 -93.666 62.5 -156.999c0 -62.667 -20.833 -114.667 -62.5 -156s-94.167 -62 -157.5 -62zM262 361
c-40.667 0 -75.167 -13.833 -103.5 -41.5s-42.5 -65.5 -42.5 -113.5s14.333 -85.667 43 -113s63 -41 103 -41s74.333 13.667 103 41s43 65 43 113c0 48.667 -14.167 86.667 -42.5 114s-62.833 41 -103.5 41zM150 497l-42.001 34c10.667 18 22 33 34 45
c16.667 16 35.667 24 57 24c20 0 43.333 -6.66699 70 -20c25.333 -13.333 44 -20 56 -20s21.667 4 29 12c8.66699 10 15.667 20.333 21 31l41 -34c-5.33301 -14 -14 -27 -26 -39c-19.333 -20 -41.333 -30 -66 -30c-16.667 0 -39.667 7 -69 21
c-27.333 12.667 -45.666 19 -54.999 19c-10 0 -19.667 -4.66699 -29 -14c-7.33301 -7.33301 -14.333 -17 -21 -29z" />
    <glyph glyph-name="odieresis" unicode="&#xf6;" horiz-adv-x="524" 
d="M262 -12c-63.333 0 -115.833 20.667 -157.5 62s-62.5 93.333 -62.5 156c0 63.333 20.833 115.666 62.5 156.999s94.167 62 157.5 62s115.833 -20.667 157.5 -62s62.5 -93.666 62.5 -156.999c0 -62.667 -20.833 -114.667 -62.5 -156s-94.167 -62 -157.5 -62zM262 361
c-40.667 0 -75.167 -13.833 -103.5 -41.5s-42.5 -65.5 -42.5 -113.5s14.333 -85.667 43 -113s63 -41 103 -41s74.333 13.667 103 41s43 65 43 113c0 48.667 -14.167 86.667 -42.5 114s-62.833 41 -103.5 41zM125 550c0 13.333 5 25 15 35s21.667 15 35 15s25 -5 35 -15
s15 -21.667 15 -35s-5 -25 -15 -35s-21.667 -15 -35 -15s-25 5 -35 15s-15 21.667 -15 35zM299 550c0 13.333 5 25 15 35s21.667 15 35 15s25 -5 35 -15s15 -21.667 15 -35s-5 -25 -15 -35s-21.667 -15 -35 -15s-25 5 -35 15s-15 21.667 -15 35z" />
    <glyph glyph-name="divide" unicode="&#xf7;" 
d="M201 515c0 13.333 4.83301 24.833 14.5 34.5s21.167 14.5 34.5 14.5s24.833 -4.83301 34.5 -14.5s14.5 -21.167 14.5 -34.5s-4.83301 -24.833 -14.5 -34.5s-21.167 -14.5 -34.5 -14.5s-24.833 4.83301 -34.5 14.5s-14.5 21.167 -14.5 34.5zM201 151
c0 13.333 4.83301 24.833 14.5 34.5s21.167 14.5 34.5 14.5s24.833 -4.83301 34.5 -14.5s14.5 -21.167 14.5 -34.5s-4.83301 -24.833 -14.5 -34.5s-21.167 -14.5 -34.5 -14.5s-24.833 4.83301 -34.5 14.5s-14.5 21.167 -14.5 34.5zM33 300v66h434v-66h-434z" />
    <glyph glyph-name="oslash" unicode="&#xf8;" horiz-adv-x="524" 
d="M497 400l-58.999 -58.999c29.333 -36.667 44 -81.667 44 -135c0 -63.333 -20.833 -115.5 -62.5 -156.5s-94.167 -61.5 -157.5 -61.5c-51.333 0 -96 14 -134 42l-61 -60l-46 45l61 60c-26.667 37.333 -40 81 -40 131c0 63.333 20.833 115.666 62.5 156.999
s94.167 62 157.5 62c51.333 0 94.666 -13.333 129.999 -40l61 60zM135.001 124.001l207 213.999c-23.333 15.333 -50 23 -80 23c-40.667 0 -75.167 -13.667 -103.5 -41s-42.5 -65.333 -42.5 -114c0 -29.333 6.33301 -56.666 19 -81.999zM386.001 292l-207 -214
c24 -17.333 51.667 -26 83 -26c40 0 74.333 13.5 103 40.5s43 64.833 43 113.5c0 31.333 -7.33301 60 -22 86z" />
    <glyph glyph-name="ugrave" unicode="&#xf9;" horiz-adv-x="466" 
d="M140 415v-242c0 -42 6.66699 -71.667 20 -89c16.667 -21.333 41 -32 73 -32s56.333 10.667 73 32c13.333 17.333 20 47 20 89v242h72v-250c0 -56 -12.667 -97.667 -38 -125c-32.667 -34.667 -75 -52 -127 -52s-94.333 17.333 -127 52c-25.333 27.333 -38 69 -38 125v250
h72zM239 497l-135 135l74 34l105 -145z" />
    <glyph glyph-name="uacute" unicode="&#xfa;" horiz-adv-x="466" 
d="M140 415v-242c0 -42 6.66699 -71.667 20 -89c16.667 -21.333 41 -32 73 -32s56.333 10.667 73 32c13.333 17.333 20 47 20 89v242h72v-250c0 -56 -12.667 -97.667 -38 -125c-32.667 -34.667 -75 -52 -127 -52s-94.333 17.333 -127 52c-25.333 27.333 -38 69 -38 125v250
h72zM286 666l74 -34l-134 -135l-45 24z" />
    <glyph glyph-name="ucircumflex" unicode="&#xfb;" horiz-adv-x="466" 
d="M140 415v-242c0 -42 6.66699 -71.667 20 -89c16.667 -21.333 41 -32 73 -32s56.333 10.667 73 32c13.333 17.333 20 47 20 89v242h72v-250c0 -56 -12.667 -97.667 -38 -125c-32.667 -34.667 -75 -52 -127 -52s-94.333 17.333 -127 52c-25.333 27.333 -38 69 -38 125v250
h72zM233 578l-92 -81l-46 36l138 121l138 -121l-46 -36z" />
    <glyph glyph-name="udieresis" unicode="&#xfc;" horiz-adv-x="466" 
d="M140 415v-242c0 -42 6.66699 -71.667 20 -89c16.667 -21.333 41 -32 73 -32s56.333 10.667 73 32c13.333 17.333 20 47 20 89v242h72v-250c0 -56 -12.667 -97.667 -38 -125c-32.667 -34.667 -75 -52 -127 -52s-94.333 17.333 -127 52c-25.333 27.333 -38 69 -38 125v250
h72zM96 550c0 13.333 5 25 15 35s21.667 15 35 15s25 -5 35 -15s15 -21.667 15 -35s-5 -25 -15 -35s-21.667 -15 -35 -15s-25 5 -35 15s-15 21.667 -15 35zM270 550c0 13.333 5 25 15 35s21.667 15 35 15s25 -5 35 -15s15 -21.667 15 -35s-5 -25 -15 -35
s-21.667 -15 -35 -15s-25 5 -35 15s-15 21.667 -15 35z" />
    <glyph glyph-name="yacute" unicode="&#xfd;" horiz-adv-x="460" 
d="M67 -230l132 269l-191 376h82l147 -297l135 297h80l-305 -645h-80zM292 666l74 -34l-134 -135l-45 24z" />
    <glyph glyph-name="thorn" unicode="&#xfe;" horiz-adv-x="526" 
d="M140 58v-288h-72v959h72v-372c36.667 45.333 84 68 142 68c62 0 111.167 -21.833 147.5 -65.5s54.5 -95.167 54.5 -154.5c0 -60 -18 -111.167 -54 -153.5s-84.333 -63.5 -145 -63.5s-109 23.333 -145 70zM275 52c40.667 0 73.333 14.832 98 44.499s37 65.834 37 108.501
c0 48 -13.667 86 -41 114s-59 42 -95 42s-68 -14 -96 -42s-42 -65.667 -42 -113c0 -43.333 12.833 -79.833 38.5 -109.5s59.167 -44.5 100.5 -44.5z" />
    <glyph glyph-name="ydieresis" unicode="&#xff;" horiz-adv-x="460" 
d="M67 -230l132 269l-191 376h82l147 -297l135 297h80l-305 -645h-80zM103 550c0 13.333 5 25 15 35s21.667 15 35 15s25 -5 35 -15s15 -21.667 15 -35s-5 -25 -15 -35s-21.667 -15 -35 -15s-25 5 -35 15s-15 21.667 -15 35zM277 550c0 13.333 5 25 15 35s21.667 15 35 15
s25 -5 35 -15s15 -21.667 15 -35s-5 -25 -15 -35s-21.667 -15 -35 -15s-25 5 -35 15s-15 21.667 -15 35z" />
    <glyph glyph-name="Amacron" unicode="&#x100;" horiz-adv-x="622" 
d="M532 0l-78 188h-284l-80 -188h-82l307 699l299 -699h-82zM199 258h226l-112 267zM155 733v64h320v-64h-320z" />
    <glyph glyph-name="amacron" unicode="&#x101;" horiz-adv-x="526" 
d="M386 356v59h72v-415h-72v58c-36 -46.667 -83.333 -70 -142 -70c-56 0 -103.667 19.333 -143 58s-59 92.667 -59 162c0 68 19.5 121.167 58.5 159.5s86.833 57.5 143.5 57.5c60 0 107.333 -23 142 -69zM252 361c-38 0 -70.167 -13.5 -96.5 -40.5s-39.5 -64.5 -39.5 -112.5
c0 -46 12.167 -83.5 36.5 -112.5s57.5 -43.5 99.5 -43.5s75.5 15 100.5 45s37.5 66.667 37.5 110c0 49.333 -14 87.333 -42 114s-60 40 -96 40zM113 513v60h302v-60h-302z" />
    <glyph glyph-name="Abreve" unicode="&#x102;" horiz-adv-x="622" 
d="M532 0l-78 188h-284l-80 -188h-82l307 699l299 -699h-82zM199 258h226l-112 267zM404 841h66.002c-4.66699 -26 -15 -48.333 -31 -67c-30.667 -35.333 -72 -53 -124 -53s-93.333 17.667 -124 53c-16 18.667 -26.333 41 -31 67h66c4.66699 -14.667 13 -26.667 25 -36
c17.333 -13.333 38.666 -20 63.999 -20s46.666 6.66699 63.999 20c12 9.33301 20.333 21.333 25 36z" />
    <glyph glyph-name="abreve" unicode="&#x103;" horiz-adv-x="526" 
d="M386 356v59h72v-415h-72v58c-36 -46.667 -83.333 -70 -142 -70c-56 0 -103.667 19.333 -143 58s-59 92.667 -59 162c0 68 19.5 121.167 58.5 159.5s86.833 57.5 143.5 57.5c60 0 107.333 -23 142 -69zM252 361c-38 0 -70.167 -13.5 -96.5 -40.5s-39.5 -64.5 -39.5 -112.5
c0 -46 12.167 -83.5 36.5 -112.5s57.5 -43.5 99.5 -43.5s75.5 15 100.5 45s37.5 66.667 37.5 110c0 49.333 -14 87.333 -42 114s-60 40 -96 40zM123 617h61c4.66699 -15.333 12.667 -28.333 24 -39c16 -14 36 -21 60 -21s44 7 60 21c11.333 10.667 19.333 23.667 24 39h61
c-4 -21.333 -13.667 -43.666 -29 -66.999c-27.333 -35.333 -66 -53 -116 -53s-88.667 17.667 -116 53c-15.333 23.333 -25 45.666 -29 66.999z" />
    <glyph glyph-name="Aogonek" unicode="&#x104;" horiz-adv-x="622" 
d="M315 699l299.002 -699h-20c-20.667 -12.667 -37.334 -26.334 -50.001 -41.001c-13.333 -16.667 -20 -32.667 -20 -48c0 -11.333 4 -21 12 -29c9.33301 -8 22 -12 38 -12c18 0 34.667 4.33301 50 13l-8 -59c-18 -9.33301 -36.333 -14 -55 -14
c-31.333 0 -57.333 9.66699 -78 29c-15.333 14 -23 33 -23 57c0 22 7.66699 43 23 63c13.333 16.667 29.666 30.334 48.999 41.001l-78 188h-284l-80 -188h-82zM199.002 258h226l-112 267z" />
    <glyph glyph-name="aogonek" unicode="&#x105;" horiz-adv-x="526" 
d="M386 356l0.00195312 59.001h72v-415h-14c-16 -9.33301 -31.667 -22.333 -47 -39c-15.333 -17.333 -23 -34.333 -23 -51c0 -12.667 4 -22.334 12 -29.001c8 -7.33301 21.333 -11 40 -11c18 0 34 4.33301 48 13l-8 -55c-16 -9.33301 -34.667 -14 -56 -14
c-30.667 0 -55.334 9.33301 -74.001 28c-14.667 14.667 -22 33.334 -22 56.001c0 40 24 74 72 102v58c-17.333 -20 -36 -36 -56 -48c-25.333 -14.667 -54 -22 -86 -22c-57.333 0 -105 19 -143 57c-39.333 41.333 -59 95.666 -59 162.999c0 68 20 122 60 162
c36.667 36.667 84 55 142 55c59.333 0 106.666 -23 141.999 -69zM252.002 361.001c-38 0 -69.666 -13.332 -94.999 -39.999c-27.333 -30 -41 -69 -41 -117c0 -50.667 14.667 -89.667 44 -117c25.333 -23.333 56.666 -35 93.999 -35c36 0 66.333 12.333 91 37
c30 31.333 45 70.666 45 117.999c0 46 -13 83.333 -39 112c-26 28 -59 42 -99 42z" />
    <glyph glyph-name="Cacute" unicode="&#x106;" horiz-adv-x="646" 
d="M596 612l0.000976562 -92.001c-26.667 26.667 -55.667 47.334 -87 62.001c-38 17.333 -76.333 26 -115 26c-76.667 0 -140.5 -26.833 -191.5 -80.5s-76.5 -119.5 -76.5 -197.5c0 -84 27.833 -150.333 83.5 -199s117.5 -73 185.5 -73c42.667 0 84 10.333 124 31
c28 14 53.667 32.667 77 56v-92c-60.667 -43.333 -127.667 -65 -201 -65c-98.667 0 -180.834 33 -246.501 99s-98.5 147.333 -98.5 244c0 99.333 33.167 182 99.5 248s149.5 99 249.5 99c73.333 0 139 -22 197 -66zM452.001 881.999l70 -45l-153 -117l-43 32z" />
    <glyph glyph-name="cacute" unicode="&#x107;" horiz-adv-x="438" 
d="M393 385l0.00195312 -86c-32.667 41.333 -76 62 -130 62c-40.667 0 -75.334 -13.833 -104.001 -41.5s-43 -65.5 -43 -113.5s14.333 -85.667 43 -113s63 -41 103 -41c53.333 0 98 21.667 134 65v-86c-39.333 -28.667 -83.333 -43 -132 -43
c-64.667 0 -117.834 20.5 -159.501 61.5s-62.5 92.833 -62.5 155.5c0 63.333 21 115.833 63 157.5s95 62.5 159 62.5c48 0 91 -13.333 129 -40zM292.002 666l74 -34l-134 -135l-45 24z" />
    <glyph glyph-name="Ccircumflex" unicode="&#x108;" horiz-adv-x="646" 
d="M596 612l0.000976562 -92.001c-26.667 26.667 -55.667 47.334 -87 62.001c-38 17.333 -76.333 26 -115 26c-76.667 0 -140.5 -26.833 -191.5 -80.5s-76.5 -119.5 -76.5 -197.5c0 -84 27.833 -150.333 83.5 -199s117.5 -73 185.5 -73c42.667 0 84 10.333 124 31
c28 14 53.667 32.667 77 56v-92c-60.667 -43.333 -127.667 -65 -201 -65c-98.667 0 -180.834 33 -246.501 99s-98.5 147.333 -98.5 244c0 99.333 33.167 182 99.5 248s149.5 99 249.5 99c73.333 0 139 -22 197 -66zM400.001 796.999l-88 -76l-52 41l140 119l140 -119
l-52 -41z" />
    <glyph glyph-name="ccircumflex" unicode="&#x109;" horiz-adv-x="438" 
d="M393 385l0.00195312 -86c-32.667 41.333 -76 62 -130 62c-40.667 0 -75.334 -13.833 -104.001 -41.5s-43 -65.5 -43 -113.5s14.333 -85.667 43 -113s63 -41 103 -41c53.333 0 98 21.667 134 65v-86c-39.333 -28.667 -83.333 -43 -132 -43
c-64.667 0 -117.834 20.5 -159.501 61.5s-62.5 92.833 -62.5 155.5c0 63.333 21 115.833 63 157.5s95 62.5 159 62.5c48 0 91 -13.333 129 -40zM260.002 578l-92 -81l-46 36l138 121l138 -121l-46 -36z" />
    <glyph glyph-name="Cdotaccent" unicode="&#x10a;" horiz-adv-x="646" 
d="M596 612l0.000976562 -92.001c-26.667 26.667 -55.667 47.334 -87 62.001c-38 17.333 -76.333 26 -115 26c-76.667 0 -140.5 -26.833 -191.5 -80.5s-76.5 -119.5 -76.5 -197.5c0 -84 27.833 -150.333 83.5 -199s117.5 -73 185.5 -73c42.667 0 84 10.333 124 31
c28 14 53.667 32.667 77 56v-92c-60.667 -43.333 -127.667 -65 -201 -65c-98.667 0 -180.834 33 -246.501 99s-98.5 147.333 -98.5 244c0 99.333 33.167 182 99.5 248s149.5 99 249.5 99c73.333 0 139 -22 197 -66zM338.001 783.999c0 16 5.16699 29.167 15.5 39.5
s23.5 15.5 39.5 15.5s29.167 -5.16699 39.5 -15.5s15.5 -23.5 15.5 -39.5s-5.16699 -29.167 -15.5 -39.5s-23.5 -15.5 -39.5 -15.5s-29.167 5.16699 -39.5 15.5s-15.5 23.5 -15.5 39.5z" />
    <glyph glyph-name="cdotaccent" unicode="&#x10b;" horiz-adv-x="438" 
d="M393 385l0.00195312 -86c-32.667 41.333 -76 62 -130 62c-40.667 0 -75.334 -13.833 -104.001 -41.5s-43 -65.5 -43 -113.5s14.333 -85.667 43 -113s63 -41 103 -41c53.333 0 98 21.667 134 65v-86c-39.333 -28.667 -83.333 -43 -132 -43
c-64.667 0 -117.834 20.5 -159.501 61.5s-62.5 92.833 -62.5 155.5c0 63.333 21 115.833 63 157.5s95 62.5 159 62.5c48 0 91 -13.333 129 -40zM211.002 553c0 15.333 5.16699 28 15.5 38s22.833 15 37.5 15s27.167 -5 37.5 -15s15.5 -22.667 15.5 -38
s-5.16699 -28 -15.5 -38s-22.833 -15 -37.5 -15s-27.167 5 -37.5 15s-15.5 22.667 -15.5 38z" />
    <glyph glyph-name="Ccaron" unicode="&#x10c;" horiz-adv-x="646" 
d="M596 612l0.000976562 -92.001c-26.667 26.667 -55.667 47.334 -87 62.001c-38 17.333 -76.333 26 -115 26c-76.667 0 -140.5 -26.833 -191.5 -80.5s-76.5 -119.5 -76.5 -197.5c0 -84 27.833 -150.333 83.5 -199s117.5 -73 185.5 -73c42.667 0 84 10.333 124 31
c28 14 53.667 32.667 77 56v-92c-60.667 -43.333 -127.667 -65 -201 -65c-98.667 0 -180.834 33 -246.501 99s-98.5 147.333 -98.5 244c0 99.333 33.167 182 99.5 248s149.5 99 249.5 99c73.333 0 139 -22 197 -66zM400.001 804.999l88 76l52 -41l-140 -119l-140 119l52 41z
" />
    <glyph glyph-name="ccaron" unicode="&#x10d;" horiz-adv-x="438" 
d="M393 385l0.00195312 -86c-32.667 41.333 -76 62 -130 62c-40.667 0 -75.334 -13.833 -104.001 -41.5s-43 -65.5 -43 -113.5s14.333 -85.667 43 -113s63 -41 103 -41c53.333 0 98 21.667 134 65v-86c-39.333 -28.667 -83.333 -43 -132 -43
c-64.667 0 -117.834 20.5 -159.501 61.5s-62.5 92.833 -62.5 155.5c0 63.333 21 115.833 63 157.5s95 62.5 159 62.5c48 0 91 -13.333 129 -40zM260.002 573l92 81l46 -36l-138 -121l-138 121l46 36z" />
    <glyph glyph-name="Dcaron" unicode="&#x10e;" horiz-adv-x="632" 
d="M86 0v666.999h136c102.667 0 184.667 -26 246 -78c76 -63.333 114 -148.666 114 -255.999c0 -104 -39 -189.333 -117 -256c-32 -27.333 -66.333 -47 -103 -59s-83.667 -18 -141 -18h-135zM160 596.999v-527.001h65c79.333 0 143 20 191 60
c60 50.667 90 118.334 90 203.001c0 80 -25.667 144 -77 192s-119.333 72 -204 72h-65zM280 804.998l88 76l52 -41l-140 -119l-140 119l52 41z" />
    <glyph glyph-name="dcaron" unicode="&#x10f;" horiz-adv-x="596" 
d="M386 356v373h72v-729h-72v58c-36 -46.667 -83.333 -70 -142 -70c-56 0 -103.667 19.333 -143 58s-59 92.667 -59 162c0 68 19.5 121.167 58.5 159.5s86.833 57.5 143.5 57.5c60 0 107.333 -23 142 -69zM252 361c-38 0 -70.167 -13.5 -96.5 -40.5
s-39.5 -64.5 -39.5 -112.5c0 -46 12.167 -83.5 36.5 -112.5s57.5 -43.5 99.5 -43.5s75.5 15 100.5 45s37.5 66.667 37.5 110c0 49.333 -14 87.333 -42 114s-60 40 -96 40zM500 530l52 160l64 -24l-70 -156z" />
    <glyph glyph-name="Dcroat" unicode="&#x110;" horiz-adv-x="632" 
d="M86 0v335.999h-86v64h86v267h136c102.667 0 184.667 -26 246 -78c76 -63.333 114 -148.666 114 -255.999c0 -104 -39 -189.333 -117 -256c-32 -27.333 -66.333 -47 -103 -59s-83.667 -18 -141 -18h-135zM160 596.999v-197.001h136v-64h-136v-266h65
c79.333 0 143 20 191 60c60 50.667 90 118.334 90 203.001c0 80 -25.667 144 -77 192s-119.333 72 -204 72h-65z" />
    <glyph glyph-name="dcroat" unicode="&#x111;" horiz-adv-x="526" 
d="M386 356v198h-200v60h200v115h72v-115h68v-60h-68v-554h-72v58c-36 -46.667 -83.333 -70 -142 -70c-56 0 -103.667 19.333 -143 58s-59 92.667 -59 162c0 68 19.5 121.167 58.5 159.5s86.833 57.5 143.5 57.5c60 0 107.333 -23 142 -69zM252 361
c-38 0 -70.168 -13.5 -96.501 -40.5s-39.5 -64.5 -39.5 -112.5c0 -46 12.167 -83.5 36.5 -112.5s57.5 -43.5 99.5 -43.5s75.5 15 100.5 45s37.5 66.667 37.5 110c0 50.667 -13.667 89 -41 115s-59.666 39 -96.999 39z" />
    <glyph glyph-name="Emacron" unicode="&#x112;" horiz-adv-x="482" 
d="M432 667v-70h-272v-198h264v-70h-264v-259h272v-70h-346v667h346zM100 733v64h320v-64h-320z" />
    <glyph glyph-name="emacron" unicode="&#x113;" horiz-adv-x="481" 
d="M376 139l60.002 -33c-14 -26.667 -31 -49 -51 -67c-38 -34 -84 -51 -138 -51c-56 0 -104.167 18.167 -144.5 54.5s-60.5 90.5 -60.5 162.5c0 63.333 18.167 115.833 54.5 157.5s85.166 62.5 146.499 62.5c69.333 0 121.666 -25.333 156.999 -76c28 -40 41 -92 39 -156
h-323c0.666992 -42 13.667 -76 39 -102s56.333 -39 93 -39c32.667 0 61 10 85 30c18.667 16 33 35 43 57zM121.002 253l244 -0.00195312c-6 32.667 -20.167 58.834 -42.5 78.501s-48.833 29.5 -79.5 29.5c-30 0 -56.5 -10.167 -79.5 -30.5s-37.167 -46.166 -42.5 -77.499z
M91.002 512.998v60h302v-60h-302z" />
    <glyph glyph-name="Edotaccent" unicode="&#x116;" horiz-adv-x="482" 
d="M432 667v-70h-272v-198h264v-70h-264v-259h272v-70h-346v667h346zM205 784c0 16 5.16699 29.167 15.5 39.5s23.5 15.5 39.5 15.5s29.167 -5.16699 39.5 -15.5s15.5 -23.5 15.5 -39.5s-5.16699 -29.167 -15.5 -39.5s-23.5 -15.5 -39.5 -15.5s-29.167 5.16699 -39.5 15.5
s-15.5 23.5 -15.5 39.5z" />
    <glyph glyph-name="edotaccent" unicode="&#x117;" horiz-adv-x="481" 
d="M376 139l60.002 -33c-14 -26.667 -31 -49 -51 -67c-38 -34 -84 -51 -138 -51c-56 0 -104.167 18.167 -144.5 54.5s-60.5 90.5 -60.5 162.5c0 63.333 18.167 115.833 54.5 157.5s85.166 62.5 146.499 62.5c69.333 0 121.666 -25.333 156.999 -76c28 -40 41 -92 39 -156
h-323c0.666992 -42 13.667 -76 39 -102s56.333 -39 93 -39c32.667 0 61 10 85 30c18.667 16 33 35 43 57zM121.002 253l244 -0.00195312c-6 32.667 -20.167 58.834 -42.5 78.501s-48.833 29.5 -79.5 29.5c-30 0 -56.5 -10.167 -79.5 -30.5s-37.167 -46.166 -42.5 -77.499z
M189.002 552.998c0 15.333 5.16699 28 15.5 38s22.833 15 37.5 15s27.167 -5 37.5 -15s15.5 -22.667 15.5 -38s-5.16699 -28 -15.5 -38s-22.833 -15 -37.5 -15s-27.167 5 -37.5 15s-15.5 22.667 -15.5 38z" />
    <glyph glyph-name="Eogonek" unicode="&#x118;" horiz-adv-x="482" 
d="M432 667l0.000976562 -69.999h-272v-198h264v-70h-264v-259h272v-70h-40c-20.667 -12.667 -37.334 -26.334 -50.001 -41.001c-13.333 -16.667 -20 -32.667 -20 -48c0 -11.333 4 -21 12 -29c9.33301 -8 22 -12 38 -12c18 0 34.667 4.33301 50 13l-8 -59
c-18 -9.33301 -36.333 -14 -55 -14c-31.333 0 -57.333 9.66699 -78 29c-15.333 14 -23 33 -23 57c0 23.333 7.66699 44.333 23 63c9.33301 12 24.333 25.667 45 41h-240v667h346z" />
    <glyph glyph-name="eogonek" unicode="&#x119;" horiz-adv-x="482" 
d="M377 139l60 -32.998c-11.333 -24 -28.333 -46 -51 -66c-13.333 -11.333 -34 -25.333 -62 -42c-20.667 -12 -37.667 -24.667 -51 -38c-15.333 -16 -23 -32.667 -23 -50c0 -10.667 3.66699 -19.667 11 -27c8.66699 -8.66699 22.334 -13 41.001 -13
c15.333 0 31.333 4.33301 48 13l-8 -55c-16.667 -9.33301 -35.334 -14 -56.001 -14c-30.667 0 -55 9 -73 27c-15.333 14 -23 33 -23 57c0 19.333 6 37.333 18 54c8.66699 12.667 20.334 24.667 35.001 36c-55.333 0 -102 18.333 -140 55c-40.667 39.333 -61 93.333 -61 162
c0 69.333 20.667 124.666 62 165.999c36 36 82.667 54 140 54c58 0 104.333 -18 139 -54c38 -38.667 57 -98 57 -178h-324c1.33301 -42.667 14.666 -77.334 39.999 -104.001c23.333 -24.667 54.333 -37 93 -37c32.667 0 61 10 85 30c16.667 14 31 33 43 57zM122 253.002
l244 -0.000976562c-5.33301 30.667 -18 55.334 -38 74.001c-23.333 22.667 -51.333 34 -84 34c-34.667 0 -63 -11.667 -85 -35c-18.667 -20 -31 -44.333 -37 -73z" />
    <glyph glyph-name="Ecaron" unicode="&#x11a;" horiz-adv-x="482" 
d="M432 667v-70h-272v-198h264v-70h-264v-259h272v-70h-346v667h346zM260 805l88 76l52 -41l-140 -119l-140 119l52 41z" />
    <glyph glyph-name="ecaron" unicode="&#x11b;" horiz-adv-x="481" 
d="M376 139l60.002 -33c-14 -26.667 -31 -49 -51 -67c-38 -34 -84 -51 -138 -51c-56 0 -104.167 18.167 -144.5 54.5s-60.5 90.5 -60.5 162.5c0 63.333 18.167 115.833 54.5 157.5s85.166 62.5 146.499 62.5c69.333 0 121.666 -25.333 156.999 -76c28 -40 41 -92 39 -156
h-323c0.666992 -42 13.667 -76 39 -102s56.333 -39 93 -39c32.667 0 61 10 85 30c18.667 16 33 35 43 57zM121.002 253l244 -0.00195312c-6 32.667 -20.167 58.834 -42.5 78.501s-48.833 29.5 -79.5 29.5c-30 0 -56.5 -10.167 -79.5 -30.5s-37.167 -46.166 -42.5 -77.499z
M242.002 572.998l92 81l46 -36l-138 -121l-138 121l46 36z" />
    <glyph glyph-name="Gcircumflex" unicode="&#x11c;" horiz-adv-x="758" 
d="M430 265l0.000976562 70.002h278v-16c0 -82.667 -21.333 -153 -64 -211c-59.333 -80 -142 -120 -248 -120c-98.667 0 -181 33.167 -247 99.5s-99 148.166 -99 245.499s33.167 179.166 99.5 245.499s149.166 99.5 248.499 99.5c78.667 0 146.667 -22 204 -66
c29.333 -22.667 55 -49 77 -79l-55 -50c-19.333 27.333 -40.333 50.333 -63 69c-46 37.333 -100 56 -162 56c-79.333 0 -144.666 -26.333 -195.999 -79s-77 -118.334 -77 -197.001c0 -57.333 14 -107.5 42 -150.5s62.167 -74.333 102.5 -94s82.5 -29.5 126.5 -29.5
s84.167 10.167 120.5 30.5s64.166 47.5 83.499 81.5c16.667 28.667 25.667 60.334 27 95.001h-198zM396.001 797.002l-88 -76l-52 41l140 119l140 -119l-52 -41z" />
    <glyph glyph-name="gcircumflex" unicode="&#x11d;" horiz-adv-x="526" 
d="M386 356l-0.000976562 59h72v-405c0 -72.667 -13.333 -127 -40 -163c-38 -51.333 -93.333 -77 -166 -77c-61.333 0 -110.666 18.667 -147.999 56c-36 36 -54 80.667 -54 134h71c0 -33.333 10.667 -62 32 -86c24 -26.667 57.333 -40 100 -40c50 0 86.667 19.333 110 58
c15.333 24.667 23 60 23 106v60c-36 -46.667 -83.333 -70 -142 -70c-57.333 0 -104.666 18.667 -141.999 56c-40 40 -60 94.667 -60 164c0 67.333 20 121 60 161c38.667 37.333 86 56 142 56c59.333 0 106.666 -23 141.999 -69zM251.999 361
c-36.667 0 -68 -12.999 -94 -38.999c-28 -28.667 -42 -66.667 -42 -114c0 -52.667 15.667 -93.334 47 -122.001c24.667 -22.667 54.334 -34 89.001 -34c37.333 0 67.666 11.667 90.999 35c31.333 30 47 70 47 120s-14.667 89 -44 117c-24.667 24.667 -56 37 -94 37z
M262.999 578.001l-92 -81l-46 36l138 121l138 -121l-46 -36z" />
    <glyph glyph-name="Gbreve" unicode="&#x11e;" horiz-adv-x="758" 
d="M430 265l0.000976562 70.002h278v-16c0 -82.667 -21.333 -153 -64 -211c-59.333 -80 -142 -120 -248 -120c-98.667 0 -181 33.167 -247 99.5s-99 148.166 -99 245.499s33.167 179.166 99.5 245.499s149.166 99.5 248.499 99.5c78.667 0 146.667 -22 204 -66
c29.333 -22.667 55 -49 77 -79l-55 -50c-19.333 27.333 -40.333 50.333 -63 69c-46 37.333 -100 56 -162 56c-79.333 0 -144.666 -26.333 -195.999 -79s-77 -118.334 -77 -197.001c0 -57.333 14 -107.5 42 -150.5s62.167 -74.333 102.5 -94s82.5 -29.5 126.5 -29.5
s84.167 10.167 120.5 30.5s64.166 47.5 83.499 81.5c16.667 28.667 25.667 60.334 27 95.001h-198zM485.001 841.002h66.002c-4.66699 -26 -15 -48.333 -31 -67c-30.667 -35.333 -72 -53 -124 -53s-93.333 17.667 -124 53c-16 18.667 -26.333 41 -31 67h66
c4.66699 -14.667 13 -26.667 25 -36c17.333 -13.333 38.666 -20 63.999 -20s46.666 6.66699 63.999 20c12 9.33301 20.333 21.333 25 36z" />
    <glyph glyph-name="gbreve" unicode="&#x11f;" horiz-adv-x="526" 
d="M386 356l-0.000976562 59h72v-405c0 -72.667 -13.333 -127 -40 -163c-38 -51.333 -93.333 -77 -166 -77c-61.333 0 -110.666 18.667 -147.999 56c-36 36 -54 80.667 -54 134h71c0 -33.333 10.667 -62 32 -86c24 -26.667 57.333 -40 100 -40c50 0 86.667 19.333 110 58
c15.333 24.667 23 60 23 106v60c-36 -46.667 -83.333 -70 -142 -70c-57.333 0 -104.666 18.667 -141.999 56c-40 40 -60 94.667 -60 164c0 67.333 20 121 60 161c38.667 37.333 86 56 142 56c59.333 0 106.666 -23 141.999 -69zM251.999 361
c-36.667 0 -68 -12.999 -94 -38.999c-28 -28.667 -42 -66.667 -42 -114c0 -52.667 15.667 -93.334 47 -122.001c24.667 -22.667 54.334 -34 89.001 -34c37.333 0 67.666 11.667 90.999 35c31.333 30 47 70 47 120s-14.667 89 -44 117c-24.667 24.667 -56 37 -94 37z
M117.999 617.001h61c4.66699 -15.333 12.667 -28.333 24 -39c16 -14 36 -21 60 -21s44 7 60 21c11.333 10.667 19.333 23.667 24 39h61c-4 -21.333 -13.667 -43.666 -29 -66.999c-27.333 -35.333 -66 -53 -116 -53s-88.667 17.667 -116 53
c-15.333 23.333 -25 45.666 -29 66.999z" />
    <glyph glyph-name="Gdotaccent" unicode="&#x120;" horiz-adv-x="758" 
d="M430 265l0.000976562 70.002h278v-16c0 -82.667 -21.333 -153 -64 -211c-59.333 -80 -142 -120 -248 -120c-98.667 0 -181 33.167 -247 99.5s-99 148.166 -99 245.499s33.167 179.166 99.5 245.499s149.166 99.5 248.499 99.5c78.667 0 146.667 -22 204 -66
c29.333 -22.667 55 -49 77 -79l-55 -50c-19.333 27.333 -40.333 50.333 -63 69c-46 37.333 -100 56 -162 56c-79.333 0 -144.666 -26.333 -195.999 -79s-77 -118.334 -77 -197.001c0 -57.333 14 -107.5 42 -150.5s62.167 -74.333 102.5 -94s82.5 -29.5 126.5 -29.5
s84.167 10.167 120.5 30.5s64.166 47.5 83.499 81.5c16.667 28.667 25.667 60.334 27 95.001h-198zM344.001 784.002c0 16 5.16699 29.167 15.5 39.5s23.5 15.5 39.5 15.5s29.167 -5.16699 39.5 -15.5s15.5 -23.5 15.5 -39.5s-5.16699 -29.167 -15.5 -39.5
s-23.5 -15.5 -39.5 -15.5s-29.167 5.16699 -39.5 15.5s-15.5 23.5 -15.5 39.5z" />
    <glyph glyph-name="gdotaccent" unicode="&#x121;" horiz-adv-x="526" 
d="M386 356l-0.000976562 59h72v-405c0 -72.667 -13.333 -127 -40 -163c-38 -51.333 -93.333 -77 -166 -77c-61.333 0 -110.666 18.667 -147.999 56c-36 36 -54 80.667 -54 134h71c0 -33.333 10.667 -62 32 -86c24 -26.667 57.333 -40 100 -40c50 0 86.667 19.333 110 58
c15.333 24.667 23 60 23 106v60c-36 -46.667 -83.333 -70 -142 -70c-57.333 0 -104.666 18.667 -141.999 56c-40 40 -60 94.667 -60 164c0 67.333 20 121 60 161c38.667 37.333 86 56 142 56c59.333 0 106.666 -23 141.999 -69zM251.999 361
c-36.667 0 -68 -12.999 -94 -38.999c-28 -28.667 -42 -66.667 -42 -114c0 -52.667 15.667 -93.334 47 -122.001c24.667 -22.667 54.334 -34 89.001 -34c37.333 0 67.666 11.667 90.999 35c31.333 30 47 70 47 120s-14.667 89 -44 117c-24.667 24.667 -56 37 -94 37z
M192.999 553.001c0 15.333 5.16699 28 15.5 38s22.833 15 37.5 15s27.167 -5 37.5 -15s15.5 -22.667 15.5 -38s-5.16699 -28 -15.5 -38s-22.833 -15 -37.5 -15s-27.167 5 -37.5 15s-15.5 22.667 -15.5 38z" />
    <glyph glyph-name="Gcommaaccent" unicode="&#x122;" horiz-adv-x="758" 
d="M430 265l0.000976562 70.002h278v-16c0 -82.667 -21.333 -153 -64 -211c-59.333 -80 -142 -120 -248 -120c-98.667 0 -181 33.167 -247 99.5s-99 148.166 -99 245.499s33.167 179.166 99.5 245.499s149.166 99.5 248.499 99.5c78.667 0 146.667 -22 204 -66
c29.333 -22.667 55 -49 77 -79l-55 -50c-19.333 27.333 -40.333 50.333 -63 69c-46 37.333 -100 56 -162 56c-79.333 0 -144.666 -26.333 -195.999 -79s-77 -118.334 -77 -197.001c0 -57.333 14 -107.5 42 -150.5s62.167 -74.333 102.5 -94s82.5 -29.5 126.5 -29.5
s84.167 10.167 120.5 30.5s64.166 47.5 83.499 81.5c16.667 28.667 25.667 60.334 27 95.001h-198zM318.001 -209.998l56 160l64 -24l-70 -156z" />
    <glyph glyph-name="gcommaaccent" unicode="&#x123;" horiz-adv-x="526" 
d="M386 356l-0.000976562 59h72v-405c0 -72.667 -13.333 -127 -40 -163c-38 -51.333 -93.333 -77 -166 -77c-61.333 0 -110.666 18.667 -147.999 56c-36 36 -54 80.667 -54 134h71c0 -33.333 10.667 -62 32 -86c24 -26.667 57.333 -40 100 -40c50 0 86.667 19.333 110 58
c15.333 24.667 23 60 23 106v60c-36 -46.667 -83.333 -70 -142 -70c-57.333 0 -104.666 18.667 -141.999 56c-40 40 -60 94.667 -60 164c0 67.333 20 121 60 161c38.667 37.333 86 56 142 56c59.333 0 106.666 -23 141.999 -69zM251.999 361
c-36.667 0 -68 -12.999 -94 -38.999c-28 -28.667 -42 -66.667 -42 -114c0 -52.667 15.667 -93.334 47 -122.001c24.667 -22.667 54.334 -34 89.001 -34c37.333 0 67.666 11.667 90.999 35c31.333 30 47 70 47 120s-14.667 89 -44 117c-24.667 24.667 -56 37 -94 37z
M314.999 650.001l-56 -160l-64 24l70 156z" />
    <glyph glyph-name="Hcircumflex" unicode="&#x124;" horiz-adv-x="662" 
d="M160 667v-271h342v271h74v-667h-74v326h-342v-326h-74v667h74zM331 797l-88 -76l-52 41l140 119l140 -119l-52 -41z" />
    <glyph glyph-name="hcircumflex" unicode="&#x125;" horiz-adv-x="470" 
d="M68 0v728.999h72v-362c29.333 38.667 69 58 119 58c53.333 0 93 -19 119 -57c16 -23.333 24 -60.333 24 -111v-257h-72v255c0 34 -6.33301 59.333 -19 76c-15.333 20 -38 30 -68 30c-30.667 0 -55 -10.667 -73 -32c-20 -23.333 -30 -60.666 -30 -111.999v-217h-72z
M106 817.999l-92 -81l-46 36l138 121l138 -121l-46 -36z" />
    <glyph glyph-name="Hbar" unicode="&#x126;" horiz-adv-x="662" 
d="M160 667v-53h342v53h74v-53h60v-62h-60v-552h-74v326h-342v-326h-74v552h-60v62h60v53h74zM502 552h-342v-156h342v156z" />
    <glyph glyph-name="hbar" unicode="&#x127;" horiz-adv-x="470" 
d="M68 0v553.999h-68v60h68v115h72v-115h200v-60h-200v-187c29.333 38.667 69 58 119 58c53.333 0 93 -19 119 -57c16 -23.333 24 -60.333 24 -111v-257h-72v255c0 34 -6.33301 59.333 -19 76c-15.333 20 -38 30 -68 30c-30.667 0 -55 -10.667 -73 -32
c-20 -23.333 -30 -60.666 -30 -111.999v-217h-72z" />
    <glyph glyph-name="Imacron" unicode="&#x12a;" horiz-adv-x="246" 
d="M86 667h74v-667h-74v667zM0 733v64h246v-64h-246z" />
    <glyph glyph-name="imacron" unicode="&#x12b;" horiz-adv-x="208" 
d="M68 415h72v-415h-72v415zM0 513v60h208v-60h-208z" />
    <glyph glyph-name="Iogonek" unicode="&#x12e;" horiz-adv-x="246" 
d="M86 667l74.001 -0.000976562v-667c-21.333 -14 -37 -27 -47 -39c-15.333 -18.667 -23 -35.667 -23 -51c0 -26.667 17.333 -40 52 -40c17.333 0 33.333 4.33301 48 13l-8 -59c-18.667 -9.33301 -38.334 -14 -59.001 -14c-26 0 -48.667 7.83301 -68 23.5
s-29 36.834 -29 63.501c0 22.667 8 44 24 64c12 15.333 28 28.333 48 39h-12v667z" />
    <glyph glyph-name="iogonek" unicode="&#x12f;" horiz-adv-x="208" 
d="M68 415h72v-415c-21.333 -14 -37 -27 -47 -39c-15.333 -18.667 -23 -35.667 -23 -51c0 -26.667 17.333 -40 52 -40c17.333 0 33.333 4.33301 48 13l-8 -55c-18 -9.33301 -36.667 -14 -56 -14c-26 0 -48.5 7.66699 -67.5 23s-28.5 35.333 -28.5 60c0 22.667 8 44 24 64
c12.667 16.667 28.667 29.667 48 39h-14v415zM53 572c0 14 5 26 15 36s22 15 36 15s26 -5 36 -15s15 -22 15 -36s-5 -26 -15 -36s-22 -15 -36 -15s-26 5 -36 15s-15 22 -15 36z" />
    <glyph glyph-name="Idotaccent" unicode="&#x130;" horiz-adv-x="246" 
d="M86 667h74v-667h-74v667zM68 784c0 16 5.16699 29.167 15.5 39.5s23.5 15.5 39.5 15.5s29.167 -5.16699 39.5 -15.5s15.5 -23.5 15.5 -39.5s-5.16699 -29.167 -15.5 -39.5s-23.5 -15.5 -39.5 -15.5s-29.167 5.16699 -39.5 15.5s-15.5 23.5 -15.5 39.5z" />
    <glyph glyph-name="dotlessi" unicode="&#x131;" horiz-adv-x="208" 
d="M68 415h72v-415h-72v415z" />
    <glyph glyph-name="Jcircumflex" unicode="&#x134;" horiz-adv-x="306" 
d="M146 667l74 -0.00195312v-480c0 -24 -0.5 -43.167 -1.5 -57.5s-4.66699 -31.166 -11 -50.499s-15.833 -35.666 -28.5 -48.999c-26 -28 -61.333 -42 -106 -42c-50.667 0 -90.334 16.333 -119.001 49l41 58c22.667 -24.667 48 -37 76 -37
c20.667 0 37.334 6.33301 50.001 19c16.667 16.667 25 52.667 25 108v482zM180 796.998l-88 -76l-52 41l140 119l140 -119l-52 -41z" />
    <glyph glyph-name="jcircumflex" unicode="&#x135;" horiz-adv-x="208" 
d="M68 415h72v-645h-72v645zM104 572l-75 -67l-43 35l118 106l118 -106l-43 -35z" />
    <glyph glyph-name="Kcommaaccent" unicode="&#x136;" horiz-adv-x="568" 
d="M160 667v-286l284 286h100l-312 -311l322 -356h-102l-273 306l-19 -19v-287h-74v667h74zM202 -210l56 160l64 -24l-70 -156z" />
    <glyph glyph-name="kcommaaccent" unicode="&#x137;" horiz-adv-x="422" 
d="M68 729h72v-468l152 154h94l-178 -178l210 -237h-94l-166 189l-18 -18v-171h-72v729zM131 -210l56 160l64 -24l-70 -156z" />
    <glyph glyph-name="Lacute" unicode="&#x139;" horiz-adv-x="358" 
d="M86 667h74v-597h184v-70h-258v667zM242 882l70 -45l-153 -117l-43 32z" />
    <glyph glyph-name="lacute" unicode="&#x13a;" horiz-adv-x="208" 
d="M68 729h72v-729h-72v729zM172 926l74 -34l-134 -135l-45 24z" />
    <glyph glyph-name="Lcommaaccent" unicode="&#x13b;" horiz-adv-x="358" 
d="M86 667h74v-597h184v-70h-258v667zM138 -210l56 160l64 -24l-70 -156z" />
    <glyph glyph-name="lcommaaccent" unicode="&#x13c;" horiz-adv-x="208" 
d="M68 729h72v-729h-72v729zM24 -210l56 160l64 -24l-70 -156z" />
    <glyph glyph-name="Lcaron" unicode="&#x13d;" horiz-adv-x="358" 
d="M86 667h74v-597h184v-70h-258v667zM250 520l52 160l64 -24l-70 -156z" />
    <glyph glyph-name="lcaron" unicode="&#x13e;" horiz-adv-x="278" 
d="M68 729h72v-729h-72v729zM182 530l52 160l64 -24l-70 -156z" />
    <glyph glyph-name="Ldot" unicode="&#x13f;" horiz-adv-x="357" 
d="M86 667h74v-597h184v-70h-258v667zM242 334c0 16 5.16699 29.167 15.5 39.5s23.5 15.5 39.5 15.5s29.167 -5.16699 39.5 -15.5s15.5 -23.5 15.5 -39.5s-5.16699 -29.167 -15.5 -39.5s-23.5 -15.5 -39.5 -15.5s-29.167 5.16699 -39.5 15.5s-15.5 23.5 -15.5 39.5z" />
    <glyph glyph-name="ldot" unicode="&#x140;" horiz-adv-x="314" 
d="M68 729h72v-729h-72v729zM208 365c0 15.333 5 28 15 38s22.667 15 38 15s28 -5 38 -15s15 -22.667 15 -38s-5 -28 -15 -38s-22.667 -15 -38 -15s-28 5 -38 15s-15 22.667 -15 38z" />
    <glyph glyph-name="Lslash" unicode="&#x141;" horiz-adv-x="358" 
d="M86 667h74v-261l100 64v-64l-100 -64v-272h184v-70h-258v305l-86 -55v64l86 55v298z" />
    <glyph glyph-name="lslash" unicode="&#x142;" horiz-adv-x="208" 
d="M68 729h72v-230l68 53v-60l-68 -53v-439h-72v393l-68 -53v60l68 53v276z" />
    <glyph glyph-name="Nacute" unicode="&#x143;" horiz-adv-x="766" 
d="M160 0h-74v695l520 -545v517h74v-697l-520 545v-515zM465 882l70 -45l-153 -117l-43 32z" />
    <glyph glyph-name="nacute" unicode="&#x144;" horiz-adv-x="470" 
d="M68 0v414.999h72v-48c29.333 38.667 69 58 119 58c53.333 0 93 -19 119 -57c16 -23.333 24 -60.333 24 -111v-257h-72v255c0 34 -6.33301 59.333 -19 76c-15.333 20 -38 30 -68 30c-30.667 0 -55 -10.667 -73 -32c-20 -23.333 -30 -60.666 -30 -111.999v-217h-72z
M312 665.999l74 -34l-134 -135l-45 24z" />
    <glyph glyph-name="Ncommaaccent" unicode="&#x145;" horiz-adv-x="766" 
d="M160 0h-74v695l520 -545v517h74v-697l-520 545v-515zM308 -210l56 160l64 -24l-70 -156z" />
    <glyph glyph-name="ncommaaccent" unicode="&#x146;" horiz-adv-x="470" 
d="M68 0v414.999h72v-48c29.333 38.667 69 58 119 58c53.333 0 93 -19 119 -57c16 -23.333 24 -60.333 24 -111v-257h-72v255c0 34 -6.33301 59.333 -19 76c-15.333 20 -38 30 -68 30c-30.667 0 -55 -10.667 -73 -32c-20 -23.333 -30 -60.666 -30 -111.999v-217h-72z
M155 -210.001l56 160l64 -24l-70 -156z" />
    <glyph glyph-name="Ncaron" unicode="&#x147;" horiz-adv-x="766" 
d="M160 0h-74v695l520 -545v517h74v-697l-520 545v-515zM383 805l88 76l52 -41l-140 -119l-140 119l52 41z" />
    <glyph glyph-name="ncaron" unicode="&#x148;" horiz-adv-x="470" 
d="M68 0v414.999h72v-48c29.333 38.667 69 58 119 58c53.333 0 93 -19 119 -57c16 -23.333 24 -60.333 24 -111v-257h-72v255c0 34 -6.33301 59.333 -19 76c-15.333 20 -38 30 -68 30c-30.667 0 -55 -10.667 -73 -32c-20 -23.333 -30 -60.666 -30 -111.999v-217h-72z
M250 572.999l92 81l46 -36l-138 -121l-138 121l46 36z" />
    <glyph glyph-name="Omacron" unicode="&#x14c;" horiz-adv-x="794" 
d="M397 -12c-97.333 0 -179.5 33 -246.5 99s-100.5 148 -100.5 246c0 98.667 33.667 180.834 101 246.501s149.333 98.5 246 98.5s178.667 -32.833 246 -98.5s101 -147.834 101 -246.501c0 -98 -33.5 -180 -100.5 -246s-149.167 -99 -246.5 -99zM397 608
c-75.333 0 -139.333 -26.667 -192 -80s-79 -118.333 -79 -195s26.333 -141.667 79 -195s116.667 -80 192 -80s139.333 26.667 192 80s79 118.333 79 195s-26.333 141.667 -79 195s-116.667 80 -192 80zM237 733v64h320v-64h-320z" />
    <glyph glyph-name="omacron" unicode="&#x14d;" horiz-adv-x="524" 
d="M262 -12c-63.333 0 -115.833 20.667 -157.5 62s-62.5 93.333 -62.5 156c0 63.333 20.833 115.666 62.5 156.999s94.167 62 157.5 62s115.833 -20.667 157.5 -62s62.5 -93.666 62.5 -156.999c0 -62.667 -20.833 -114.667 -62.5 -156s-94.167 -62 -157.5 -62zM262 361
c-40.667 0 -75.167 -13.833 -103.5 -41.5s-42.5 -65.5 -42.5 -113.5s14.333 -85.667 43 -113s63 -41 103 -41s74.333 13.667 103 41s43 65 43 113c0 48.667 -14.167 86.667 -42.5 114s-62.833 41 -103.5 41zM111 513v60h302v-60h-302z" />
    <glyph glyph-name="Obreve" unicode="&#x14e;" horiz-adv-x="794" 
d="M397 -12c-97.333 0 -179.5 33 -246.5 99s-100.5 148 -100.5 246c0 98.667 33.667 180.834 101 246.501s149.333 98.5 246 98.5s178.667 -32.833 246 -98.5s101 -147.834 101 -246.501c0 -98 -33.5 -180 -100.5 -246s-149.167 -99 -246.5 -99zM397 608
c-75.333 0 -139.333 -26.667 -192 -80s-79 -118.333 -79 -195s26.333 -141.667 79 -195s116.667 -80 192 -80s139.333 26.667 192 80s79 118.333 79 195s-26.333 141.667 -79 195s-116.667 80 -192 80zM486 841h66.002c-4.66699 -26 -15 -48.333 -31 -67
c-30.667 -35.333 -72 -53 -124 -53s-93.333 17.667 -124 53c-16 18.667 -26.333 41 -31 67h66c4.66699 -14.667 13 -26.667 25 -36c17.333 -13.333 38.666 -20 63.999 -20s46.666 6.66699 63.999 20c12 9.33301 20.333 21.333 25 36z" />
    <glyph glyph-name="obreve" unicode="&#x14f;" horiz-adv-x="524" 
d="M262 -12c-63.333 0 -115.833 20.667 -157.5 62s-62.5 93.333 -62.5 156c0 63.333 20.833 115.666 62.5 156.999s94.167 62 157.5 62s115.833 -20.667 157.5 -62s62.5 -93.666 62.5 -156.999c0 -62.667 -20.833 -114.667 -62.5 -156s-94.167 -62 -157.5 -62zM262 361
c-40.667 0 -75.167 -13.833 -103.5 -41.5s-42.5 -65.5 -42.5 -113.5s14.333 -85.667 43 -113s63 -41 103 -41s74.333 13.667 103 41s43 65 43 113c0 48.667 -14.167 86.667 -42.5 114s-62.833 41 -103.5 41zM117 617h61c4.66699 -15.333 12.667 -28.333 24 -39
c16 -14 36 -21 60 -21s44 7 60 21c11.333 10.667 19.333 23.667 24 39h61c-4 -21.333 -13.667 -43.666 -29 -66.999c-27.333 -35.333 -66 -53 -116 -53s-88.667 17.667 -116 53c-15.333 23.333 -25 45.666 -29 66.999z" />
    <glyph glyph-name="Ohungarumlaut" unicode="&#x150;" horiz-adv-x="794" 
d="M397 -12c-97.333 0 -179.5 33 -246.5 99s-100.5 148 -100.5 246c0 98.667 33.667 180.834 101 246.501s149.333 98.5 246 98.5s178.667 -32.833 246 -98.5s101 -147.834 101 -246.501c0 -98 -33.5 -180 -100.5 -246s-149.167 -99 -246.5 -99zM397 608
c-75.333 0 -139.333 -26.667 -192 -80s-79 -118.333 -79 -195s26.333 -141.667 79 -195s116.667 -80 192 -80s139.333 26.667 192 80s79 118.333 79 195s-26.333 141.667 -79 195s-116.667 80 -192 80zM401 882l70 -40l-147 -122l-43 26zM551 882l70 -40l-147 -122l-43 26z
" />
    <glyph glyph-name="ohungarumlaut" unicode="&#x151;" horiz-adv-x="524" 
d="M262 -12c-63.333 0 -115.833 20.667 -157.5 62s-62.5 93.333 -62.5 156c0 63.333 20.833 115.666 62.5 156.999s94.167 62 157.5 62s115.833 -20.667 157.5 -62s62.5 -93.666 62.5 -156.999c0 -62.667 -20.833 -114.667 -62.5 -156s-94.167 -62 -157.5 -62zM262 361
c-40.667 0 -75.167 -13.833 -103.5 -41.5s-42.5 -65.5 -42.5 -113.5s14.333 -85.667 43 -113s63 -41 103 -41s74.333 13.667 103 41s43 65 43 113c0 48.667 -14.167 86.667 -42.5 114s-62.833 41 -103.5 41zM262 666l72 -32l-137 -136l-41 23zM396 666l70 -32l-135 -136
l-41 23z" />
    <glyph glyph-name="OE" unicode="&#x152;" horiz-adv-x="1056" 
d="M1006 667l-0.000976562 -70h-267v-198h260v-70h-260v-259h267v-70h-341v128c-31.333 -47.333 -70.666 -82.5 -117.999 -105.5s-96 -34.5 -146 -34.5c-98 0 -181 33.833 -249 101.5s-102 148.5 -102 242.5c0 94.667 34 176 102 244s150 102 246 102
c53.333 0 103.333 -12.167 150 -36.5s85.667 -59.5 117 -105.5v131h341zM395.999 608c-74.667 0 -138.334 -27.1689 -191.001 -81.502s-79 -119.166 -79 -194.499c0 -74.667 26.167 -139 78.5 -193s115.833 -81 190.5 -81s138.334 26.833 191.001 80.5
s79 117.834 79 192.501c0 76 -26.333 141.167 -79 195.5s-116 81.5 -190 81.5z" />
    <glyph glyph-name="oe" unicode="&#x153;" horiz-adv-x="852" 
d="M810 209l0.000976562 -15.0029h-327c1.33301 -39.333 14.666 -72.833 39.999 -100.5s57.333 -41.5 96 -41.5c28.667 0 53.834 8.33301 75.501 25s38.167 38 49.5 64l61 -35c-18.667 -34.667 -44.167 -63 -76.5 -85s-69.833 -33 -112.5 -33
c-9.33301 0 -19.5 0.833008 -30.5 2.5s-25.833 5.33398 -44.5 11.001s-36.834 15.834 -54.501 30.501s-32.5 33 -44.5 55c-43.333 -66 -104 -99 -182 -99c-62 0 -113.833 21 -155.5 63s-62.5 93.667 -62.5 155c0 62.667 21 114.834 63 156.501s94.667 62.5 158 62.5
c79.333 0 139 -33 179 -99c35.333 66 91 99 167 99c62 0 111 -19.5 147 -58.5s54 -91.5 54 -157.5zM489.001 253.997h247c-4.66699 32 -18.5 57.833 -41.5 77.5s-50.5 29.5 -82.5 29.5c-30.667 0 -57.167 -9.5 -79.5 -28.5s-36.833 -45.167 -43.5 -78.5zM261.001 360.997
c-44.667 0 -79.999 -15.333 -105.999 -46s-39 -67 -39 -109s13.167 -78.167 39.5 -108.5s61.166 -45.5 104.499 -45.5c39.333 0 73.5 13.333 102.5 40s43.5 64 43.5 112c0 45.333 -12.833 82.833 -38.5 112.5s-61.167 44.5 -106.5 44.5z" />
    <glyph glyph-name="Racute" unicode="&#x154;" horiz-adv-x="502" 
d="M86 667h107c72 0 126 -12.333 162 -37c48.667 -32.667 73 -82 73 -148c0 -51.333 -15.5 -94 -46.5 -128s-71.5 -52.667 -121.5 -56l212 -298h-90l-203 292h-19v-292h-74v667zM160 597v-239h47c46 0 82 10.667 108 32s39 51.333 39 90c0 45.333 -17.667 78 -53 98
c-22.667 12.667 -54.667 19 -96 19h-45zM312 882l70 -45l-153 -117l-43 32z" />
    <glyph glyph-name="racute" unicode="&#x155;" horiz-adv-x="296" 
d="M68 0v414.999h72v-45c23.333 36.667 54.666 55 93.999 55c20 0 41.333 -5.66699 64 -17l-34 -65c-13.333 9.33301 -27.333 14 -42 14c-25.333 0 -44.666 -8.66699 -57.999 -26c-16 -21.333 -24 -58.666 -24 -111.999v-219h-72zM252 665.999l74 -34l-134 -135l-45 24z" />
    <glyph glyph-name="Rcommaaccent" unicode="&#x156;" horiz-adv-x="502" 
d="M86 667h107c72 0 126 -12.333 162 -37c48.667 -32.667 73 -82 73 -148c0 -51.333 -15.5 -94 -46.5 -128s-71.5 -52.667 -121.5 -56l212 -298h-90l-203 292h-19v-292h-74v667zM160 597v-239h47c46 0 82 10.667 108 32s39 51.333 39 90c0 45.333 -17.667 78 -53 98
c-22.667 12.667 -54.667 19 -96 19h-45zM178 -210l56 160l64 -24l-70 -156z" />
    <glyph glyph-name="rcommaaccent" unicode="&#x157;" horiz-adv-x="296" 
d="M68 0v414.999h72v-45c23.333 36.667 54.666 55 93.999 55c20 0 41.333 -5.66699 64 -17l-34 -65c-13.333 9.33301 -27.333 14 -42 14c-25.333 0 -44.666 -8.66699 -57.999 -26c-16 -21.333 -24 -58.666 -24 -111.999v-219h-72zM65 -210.001l56 160l64 -24l-70 -156z" />
    <glyph glyph-name="Rcaron" unicode="&#x158;" horiz-adv-x="502" 
d="M86 667h107c72 0 126 -12.333 162 -37c48.667 -32.667 73 -82 73 -148c0 -51.333 -15.5 -94 -46.5 -128s-71.5 -52.667 -121.5 -56l212 -298h-90l-203 292h-19v-292h-74v667zM160 597v-239h47c46 0 82 10.667 108 32s39 51.333 39 90c0 45.333 -17.667 78 -53 98
c-22.667 12.667 -54.667 19 -96 19h-45zM230 805l88 76l52 -41l-140 -119l-140 119l52 41z" />
    <glyph glyph-name="rcaron" unicode="&#x159;" horiz-adv-x="296" 
d="M68 0v414.999h72v-45c23.333 36.667 54.666 55 93.999 55c20 0 41.333 -5.66699 64 -17l-34 -65c-13.333 9.33301 -27.333 14 -42 14c-25.333 0 -44.666 -8.66699 -57.999 -26c-16 -21.333 -24 -58.666 -24 -111.999v-219h-72zM200 572.999l92 81l46 -36l-138 -121
l-138 121l46 36z" />
    <glyph glyph-name="Sacute" unicode="&#x15a;" horiz-adv-x="518" 
d="M443 574l-58.9961 -39.001c-10.667 20.667 -23.667 37.334 -39 50.001c-20 15.333 -45 23 -75 23c-33.333 0 -60.333 -9.5 -81 -28.5s-31 -43.833 -31 -74.5c0 -22.667 8.33301 -42 25 -58c13.333 -13.333 36.666 -27.333 69.999 -42l64 -28
c47.333 -20.667 81.666 -41.667 102.999 -63c32 -32 48 -72.333 48 -121c0 -60.667 -20 -110 -60 -148s-90.333 -57 -151 -57c-60 0 -108.333 18 -145 54c-30 29.333 -50.667 68.666 -62 117.999l72 20c4.66699 -33.333 18 -61.666 40 -84.999
c24.667 -24.667 56.667 -37 96 -37c42.667 0 75.667 12.833 99 38.5s35 56.834 35 93.501c0 32 -11 58 -33 78c-12.667 12 -39.334 27.333 -80.001 46l-60 28c-40.667 18.667 -70.334 37 -89.001 55c-30.667 29.333 -46 65.666 -46 108.999c0 51.333 17.5 92.833 52.5 124.5
s79.833 47.5 134.5 47.5c41.333 0 77 -10 107 -30c27.333 -18 49 -42.667 65 -74zM341.004 881.999l70 -45l-153 -117l-43 32z" />
    <glyph glyph-name="sacute" unicode="&#x15b;" horiz-adv-x="352" 
d="M298 350l-59.0029 -30.9971c-11.333 28 -30.666 42 -57.999 42c-14 0 -25.833 -4 -35.5 -12s-14.5 -19.667 -14.5 -35c0 -14 4.5 -24.5 13.5 -31.5s26.833 -16.167 53.5 -27.5c52.667 -22 87.334 -43.333 104.001 -64c14.667 -18 22 -40.333 22 -67
c0 -42 -13.5 -75.167 -40.5 -99.5s-61.167 -36.5 -102.5 -36.5c-8 0 -16.667 0.833008 -26 2.5s-22.166 5.33398 -38.499 11.001s-31.833 16.5 -46.5 32.5s-26 36 -34 60l62 26c16.667 -45.333 44.667 -68 84 -68c22 0 38.833 6.66699 50.5 20s17.5 28.666 17.5 45.999
c0 9.33301 -1.5 17.5 -4.5 24.5s-8 13.167 -15 18.5s-13.667 9.66602 -20 12.999s-15.5 7.66602 -27.5 12.999c-53.333 23.333 -87 43.666 -101 60.999c-12.667 16 -19 36.333 -19 61c0 36 11.167 64.333 33.5 85s51.5 31 87.5 31c52.667 0 90.667 -25 114 -75z
M237.997 666.003l74 -34l-134 -135l-45 24z" />
    <glyph glyph-name="Scircumflex" unicode="&#x15c;" horiz-adv-x="518" 
d="M443 574l-58.9961 -39.001c-10.667 20.667 -23.667 37.334 -39 50.001c-20 15.333 -45 23 -75 23c-33.333 0 -60.333 -9.5 -81 -28.5s-31 -43.833 -31 -74.5c0 -22.667 8.33301 -42 25 -58c13.333 -13.333 36.666 -27.333 69.999 -42l64 -28
c47.333 -20.667 81.666 -41.667 102.999 -63c32 -32 48 -72.333 48 -121c0 -60.667 -20 -110 -60 -148s-90.333 -57 -151 -57c-60 0 -108.333 18 -145 54c-30 29.333 -50.667 68.666 -62 117.999l72 20c4.66699 -33.333 18 -61.666 40 -84.999
c24.667 -24.667 56.667 -37 96 -37c42.667 0 75.667 12.833 99 38.5s35 56.834 35 93.501c0 32 -11 58 -33 78c-12.667 12 -39.334 27.333 -80.001 46l-60 28c-40.667 18.667 -70.334 37 -89.001 55c-30.667 29.333 -46 65.666 -46 108.999c0 51.333 17.5 92.833 52.5 124.5
s79.833 47.5 134.5 47.5c41.333 0 77 -10 107 -30c27.333 -18 49 -42.667 65 -74zM274.004 796.999l-88 -76l-52 41l140 119l140 -119l-52 -41z" />
    <glyph glyph-name="scircumflex" unicode="&#x15d;" horiz-adv-x="352" 
d="M298 350l-59.0029 -30.9971c-11.333 28 -30.666 42 -57.999 42c-14 0 -25.833 -4 -35.5 -12s-14.5 -19.667 -14.5 -35c0 -14 4.5 -24.5 13.5 -31.5s26.833 -16.167 53.5 -27.5c52.667 -22 87.334 -43.333 104.001 -64c14.667 -18 22 -40.333 22 -67
c0 -42 -13.5 -75.167 -40.5 -99.5s-61.167 -36.5 -102.5 -36.5c-8 0 -16.667 0.833008 -26 2.5s-22.166 5.33398 -38.499 11.001s-31.833 16.5 -46.5 32.5s-26 36 -34 60l62 26c16.667 -45.333 44.667 -68 84 -68c22 0 38.833 6.66699 50.5 20s17.5 28.666 17.5 45.999
c0 9.33301 -1.5 17.5 -4.5 24.5s-8 13.167 -15 18.5s-13.667 9.66602 -20 12.999s-15.5 7.66602 -27.5 12.999c-53.333 23.333 -87 43.666 -101 60.999c-12.667 16 -19 36.333 -19 61c0 36 11.167 64.333 33.5 85s51.5 31 87.5 31c52.667 0 90.667 -25 114 -75z
M183.997 578.003l-92 -81l-46 36l138 121l138 -121l-46 -36z" />
    <glyph glyph-name="Scedilla" unicode="&#x15e;" horiz-adv-x="518" 
d="M443 574l-58.9961 -39.001c-10.667 20.667 -23.667 37.334 -39 50.001c-20 15.333 -45 23 -75 23c-33.333 0 -60.333 -9.5 -81 -28.5s-31 -43.833 -31 -74.5c0 -22.667 8.33301 -42 25 -58c13.333 -13.333 36.666 -27.333 69.999 -42l64 -28
c47.333 -20.667 81.666 -41.667 102.999 -63c32 -32 48 -72.333 48 -121c0 -60.667 -20 -110 -60 -148s-90.333 -57 -151 -57c-60 0 -108.333 18 -145 54c-30 29.333 -50.667 68.666 -62 117.999l72 20c4.66699 -33.333 18 -61.666 40 -84.999
c24.667 -24.667 56.667 -37 96 -37c42.667 0 75.667 12.833 99 38.5s35 56.834 35 93.501c0 32 -11 58 -33 78c-12.667 12 -39.334 27.333 -80.001 46l-60 28c-40.667 18.667 -70.334 37 -89.001 55c-30.667 29.333 -46 65.666 -46 108.999c0 51.333 17.5 92.833 52.5 124.5
s79.833 47.5 134.5 47.5c41.333 0 77 -10 107 -30c27.333 -18 49 -42.667 65 -74zM254.004 -52.001l70 -30l-104 -128l-50 26z" />
    <glyph glyph-name="scedilla" unicode="&#x15f;" horiz-adv-x="352" 
d="M298 350l-59.0029 -30.9971c-11.333 28 -30.666 42 -57.999 42c-14 0 -25.833 -4 -35.5 -12s-14.5 -19.667 -14.5 -35c0 -14 4.5 -24.5 13.5 -31.5s26.833 -16.167 53.5 -27.5c52.667 -22 87.334 -43.333 104.001 -64c14.667 -18 22 -40.333 22 -67
c0 -42 -13.5 -75.167 -40.5 -99.5s-61.167 -36.5 -102.5 -36.5c-8 0 -16.667 0.833008 -26 2.5s-22.166 5.33398 -38.499 11.001s-31.833 16.5 -46.5 32.5s-26 36 -34 60l62 26c16.667 -45.333 44.667 -68 84 -68c22 0 38.833 6.66699 50.5 20s17.5 28.666 17.5 45.999
c0 9.33301 -1.5 17.5 -4.5 24.5s-8 13.167 -15 18.5s-13.667 9.66602 -20 12.999s-15.5 7.66602 -27.5 12.999c-53.333 23.333 -87 43.666 -101 60.999c-12.667 16 -19 36.333 -19 61c0 36 11.167 64.333 33.5 85s51.5 31 87.5 31c52.667 0 90.667 -25 114 -75z
M175.997 -51.9971l66 -27l-101 -128l-49 24z" />
    <glyph glyph-name="Scaron" unicode="&#x160;" horiz-adv-x="518" 
d="M443 574l-58.9961 -39.001c-10.667 20.667 -23.667 37.334 -39 50.001c-20 15.333 -45 23 -75 23c-33.333 0 -60.333 -9.5 -81 -28.5s-31 -43.833 -31 -74.5c0 -22.667 8.33301 -42 25 -58c13.333 -13.333 36.666 -27.333 69.999 -42l64 -28
c47.333 -20.667 81.666 -41.667 102.999 -63c32 -32 48 -72.333 48 -121c0 -60.667 -20 -110 -60 -148s-90.333 -57 -151 -57c-60 0 -108.333 18 -145 54c-30 29.333 -50.667 68.666 -62 117.999l72 20c4.66699 -33.333 18 -61.666 40 -84.999
c24.667 -24.667 56.667 -37 96 -37c42.667 0 75.667 12.833 99 38.5s35 56.834 35 93.501c0 32 -11 58 -33 78c-12.667 12 -39.334 27.333 -80.001 46l-60 28c-40.667 18.667 -70.334 37 -89.001 55c-30.667 29.333 -46 65.666 -46 108.999c0 51.333 17.5 92.833 52.5 124.5
s79.833 47.5 134.5 47.5c41.333 0 77 -10 107 -30c27.333 -18 49 -42.667 65 -74zM274.004 804.999l88 76l52 -41l-140 -119l-140 119l52 41z" />
    <glyph glyph-name="scaron" unicode="&#x161;" horiz-adv-x="352" 
d="M298 350l-59.0029 -30.9971c-11.333 28 -30.666 42 -57.999 42c-14 0 -25.833 -4 -35.5 -12s-14.5 -19.667 -14.5 -35c0 -14 4.5 -24.5 13.5 -31.5s26.833 -16.167 53.5 -27.5c52.667 -22 87.334 -43.333 104.001 -64c14.667 -18 22 -40.333 22 -67
c0 -42 -13.5 -75.167 -40.5 -99.5s-61.167 -36.5 -102.5 -36.5c-8 0 -16.667 0.833008 -26 2.5s-22.166 5.33398 -38.499 11.001s-31.833 16.5 -46.5 32.5s-26 36 -34 60l62 26c16.667 -45.333 44.667 -68 84 -68c22 0 38.833 6.66699 50.5 20s17.5 28.666 17.5 45.999
c0 9.33301 -1.5 17.5 -4.5 24.5s-8 13.167 -15 18.5s-13.667 9.66602 -20 12.999s-15.5 7.66602 -27.5 12.999c-53.333 23.333 -87 43.666 -101 60.999c-12.667 16 -19 36.333 -19 61c0 36 11.167 64.333 33.5 85s51.5 31 87.5 31c52.667 0 90.667 -25 114 -75z
M183.997 573.003l92 81l46 -36l-138 -121l-138 121l46 36z" />
    <glyph glyph-name="Tcedilla" unicode="&#x162;" horiz-adv-x="426" 
d="M412 597h-162v-597h-74v597h-162v70h398v-70zM204 -52l70 -30l-104 -128l-50 26z" />
    <glyph glyph-name="tcedilla" unicode="&#x163;" horiz-adv-x="214" 
d="M214 349h-72v-349h-72v349h-44v66h44v150h72v-150h72v-66zM96 -52l66 -27l-101 -128l-49 24z" />
    <glyph glyph-name="Tcaron" unicode="&#x164;" horiz-adv-x="426" 
d="M412 597h-162v-597h-74v597h-162v70h398v-70zM213 805l88 76l52 -41l-140 -119l-140 119l52 41z" />
    <glyph glyph-name="tcaron" unicode="&#x165;" horiz-adv-x="276" 
d="M214 349h-72v-349h-72v349h-44v66h44v150h72v-150h72v-66zM180 530l52 160l64 -24l-70 -156z" />
    <glyph glyph-name="Utilde" unicode="&#x168;" horiz-adv-x="646" 
d="M160 667l0.00195312 -409c0 -25.333 0.5 -45 1.5 -59s5.66699 -31.167 14 -51.5s20.833 -37.5 37.5 -51.5c30 -25.333 66.667 -38 110 -38s80 12.667 110 38c16.667 14 29.167 31.167 37.5 51.5s13 37.5 14 51.5s1.5 33.667 1.5 59v409h74v-429
c0 -68 -14 -121.333 -42 -160c-20.667 -28 -47.834 -50 -81.501 -66s-71.5 -24 -113.5 -24s-79.833 8 -113.5 24s-60.834 38 -81.501 66c-28 38.667 -42 92 -42 160v429h74zM435.002 842l42.999 -35c-6 -16 -14.667 -29.667 -26 -41c-20 -20.667 -43.333 -31 -70 -31
c-15.333 0 -37.666 7.33301 -66.999 22c-28 13.333 -46.667 20 -56 20c-11.333 0 -21.333 -4.33301 -30 -13c-8.66699 -10 -14.334 -20.333 -17.001 -31l-44 36c6.66699 17.333 16.667 32.333 30 45c18 18 39 27 63 27c17.333 0 40 -7 68 -21
c26.667 -14 45.334 -21 56.001 -21c12 0 22.667 4.66699 32 14c8 8 14 17.667 18 29z" />
    <glyph glyph-name="utilde" unicode="&#x169;" horiz-adv-x="466" 
d="M140 415v-242c0 -42 6.66699 -71.667 20 -89c16.667 -21.333 41 -32 73 -32s56.333 10.667 73 32c13.333 17.333 20 47 20 89v242h72v-250c0 -56 -12.667 -97.667 -38 -125c-32.667 -34.667 -75 -52 -127 -52s-94.333 17.333 -127 52c-25.333 27.333 -38 69 -38 125v250
h72zM121 497l-42 34c11.333 18 22.666 33 33.999 45c16.667 16 35.667 24 57 24c20 0 43.333 -6.66699 70 -20c25.333 -13.333 44 -20 56 -20s21.667 4 29 12c8.66699 10 15.667 20.333 21 31l41 -34c-5.33301 -14 -14 -27 -26 -39c-19.333 -20 -41.333 -30 -66 -30
c-16.667 0 -39.667 7 -69 21c-27.333 12.667 -45.666 19 -54.999 19c-10 0 -19.667 -4.66699 -29 -14c-7.33301 -7.33301 -14.333 -17 -21 -29z" />
    <glyph glyph-name="Umacron" unicode="&#x16a;" horiz-adv-x="646" 
d="M160 667l0.00195312 -409c0 -25.333 0.5 -45 1.5 -59s5.66699 -31.167 14 -51.5s20.833 -37.5 37.5 -51.5c30 -25.333 66.667 -38 110 -38s80 12.667 110 38c16.667 14 29.167 31.167 37.5 51.5s13 37.5 14 51.5s1.5 33.667 1.5 59v409h74v-429
c0 -68 -14 -121.333 -42 -160c-20.667 -28 -47.834 -50 -81.501 -66s-71.5 -24 -113.5 -24s-79.833 8 -113.5 24s-60.834 38 -81.501 66c-28 38.667 -42 92 -42 160v429h74zM163.002 733v64h320v-64h-320z" />
    <glyph glyph-name="umacron" unicode="&#x16b;" horiz-adv-x="466" 
d="M140 415v-242c0 -42 6.66699 -71.667 20 -89c16.667 -21.333 41 -32 73 -32s56.333 10.667 73 32c13.333 17.333 20 47 20 89v242h72v-250c0 -56 -12.667 -97.667 -38 -125c-32.667 -34.667 -75 -52 -127 -52s-94.333 17.333 -127 52c-25.333 27.333 -38 69 -38 125v250
h72zM82 513v60h302v-60h-302z" />
    <glyph glyph-name="Ubreve" unicode="&#x16c;" horiz-adv-x="646" 
d="M160 667l0.00195312 -409c0 -25.333 0.5 -45 1.5 -59s5.66699 -31.167 14 -51.5s20.833 -37.5 37.5 -51.5c30 -25.333 66.667 -38 110 -38s80 12.667 110 38c16.667 14 29.167 31.167 37.5 51.5s13 37.5 14 51.5s1.5 33.667 1.5 59v409h74v-429
c0 -68 -14 -121.333 -42 -160c-20.667 -28 -47.834 -50 -81.501 -66s-71.5 -24 -113.5 -24s-79.833 8 -113.5 24s-60.834 38 -81.501 66c-28 38.667 -42 92 -42 160v429h74zM412.002 841h66.002c-4.66699 -26 -15 -48.333 -31 -67c-30.667 -35.333 -72 -53 -124 -53
s-93.333 17.667 -124 53c-16 18.667 -26.333 41 -31 67h66c4.66699 -14.667 13 -26.667 25 -36c17.333 -13.333 38.666 -20 63.999 -20s46.666 6.66699 63.999 20c12 9.33301 20.333 21.333 25 36z" />
    <glyph glyph-name="ubreve" unicode="&#x16d;" horiz-adv-x="466" 
d="M140 415v-242c0 -42 6.66699 -71.667 20 -89c16.667 -21.333 41 -32 73 -32s56.333 10.667 73 32c13.333 17.333 20 47 20 89v242h72v-250c0 -56 -12.667 -97.667 -38 -125c-32.667 -34.667 -75 -52 -127 -52s-94.333 17.333 -127 52c-25.333 27.333 -38 69 -38 125v250
h72zM88 617h61c4.66699 -15.333 12.667 -28.333 24 -39c16 -14 36 -21 60 -21s44 7 60 21c11.333 10.667 19.333 23.667 24 39h61c-4 -21.333 -13.667 -43.666 -29 -66.999c-27.333 -35.333 -66 -53 -116 -53s-88.667 17.667 -116 53c-15.333 23.333 -25 45.666 -29 66.999z
" />
    <glyph glyph-name="Uring" unicode="&#x16e;" horiz-adv-x="646" 
d="M160 667l0.00195312 -409c0 -25.333 0.5 -45 1.5 -59s5.66699 -31.167 14 -51.5s20.833 -37.5 37.5 -51.5c30 -25.333 66.667 -38 110 -38s80 12.667 110 38c16.667 14 29.167 31.167 37.5 51.5s13 37.5 14 51.5s1.5 33.667 1.5 59v409h74v-429
c0 -68 -14 -121.333 -42 -160c-20.667 -28 -47.834 -50 -81.501 -66s-71.5 -24 -113.5 -24s-79.833 8 -113.5 24s-60.834 38 -81.501 66c-28 38.667 -42 92 -42 160v429h74zM235.002 818c0 24 8.66699 44.667 26 62s38 26 62 26s44.667 -8.66699 62 -26s26 -38 26 -62
s-8.66699 -44.667 -26 -62s-38 -26 -62 -26s-44.667 8.66699 -62 26s-26 38 -26 62zM281.002 819c0 -11.333 4.16699 -21.166 12.5 -29.499s18.166 -12.5 29.499 -12.5s21.166 4.16699 29.499 12.5s12.5 18.166 12.5 29.499s-4.16699 21.166 -12.5 29.499
s-18.166 12.5 -29.499 12.5s-21.166 -4.16699 -29.499 -12.5s-12.5 -18.166 -12.5 -29.499z" />
    <glyph glyph-name="uring" unicode="&#x16f;" horiz-adv-x="466" 
d="M140 415v-242c0 -42 6.66699 -71.667 20 -89c16.667 -21.333 41 -32 73 -32s56.333 10.667 73 32c13.333 17.333 20 47 20 89v242h72v-250c0 -56 -12.667 -97.667 -38 -125c-32.667 -34.667 -75 -52 -127 -52s-94.333 17.333 -127 52c-25.333 27.333 -38 69 -38 125v250
h72zM147 583c0 23.333 8.5 43.5 25.5 60.5s37.167 25.5 60.5 25.5s43.5 -8.5 60.5 -25.5s25.5 -37.167 25.5 -60.5s-8.5 -43.5 -25.5 -60.5s-37.167 -25.5 -60.5 -25.5s-43.5 8.5 -60.5 25.5s-25.5 37.167 -25.5 60.5zM191 583c0 -11.333 4.16699 -21.166 12.5 -29.499
s18.166 -12.5 29.499 -12.5s21.166 4.16699 29.499 12.5s12.5 18.166 12.5 29.499s-4.16699 21.166 -12.5 29.499s-18.166 12.5 -29.499 12.5s-21.166 -4.16699 -29.499 -12.5s-12.5 -18.166 -12.5 -29.499z" />
    <glyph glyph-name="Uhungarumlaut" unicode="&#x170;" horiz-adv-x="646" 
d="M160 667l0.00195312 -409c0 -25.333 0.5 -45 1.5 -59s5.66699 -31.167 14 -51.5s20.833 -37.5 37.5 -51.5c30 -25.333 66.667 -38 110 -38s80 12.667 110 38c16.667 14 29.167 31.167 37.5 51.5s13 37.5 14 51.5s1.5 33.667 1.5 59v409h74v-429
c0 -68 -14 -121.333 -42 -160c-20.667 -28 -47.834 -50 -81.501 -66s-71.5 -24 -113.5 -24s-79.833 8 -113.5 24s-60.834 38 -81.501 66c-28 38.667 -42 92 -42 160v429h74zM327.002 882l70 -40l-147 -122l-43 26zM477.002 882l70 -40l-147 -122l-43 26z" />
    <glyph glyph-name="uhungarumlaut" unicode="&#x171;" horiz-adv-x="466" 
d="M140 415v-242c0 -42 6.66699 -71.667 20 -89c16.667 -21.333 41 -32 73 -32s56.333 10.667 73 32c13.333 17.333 20 47 20 89v242h72v-250c0 -56 -12.667 -97.667 -38 -125c-32.667 -34.667 -75 -52 -127 -52s-94.333 17.333 -127 52c-25.333 27.333 -38 69 -38 125v250
h72zM233 666l72 -32l-137 -136l-41 23zM367 666l70 -32l-135 -136l-41 23z" />
    <glyph glyph-name="Uogonek" unicode="&#x172;" horiz-adv-x="646" 
d="M160 667l0.00195312 -422.002c0 -63.333 14.333 -109.666 43 -138.999c14 -14 32 -25.5 54 -34.5s44 -13.5 66 -13.5c43.333 0 80 12.667 110 38c16 14 28.333 31.167 37 51.5s13.5 37 14.5 50s1.5 29.5 1.5 49.5v420h74v-429c0 -80 -19 -139.667 -57 -179
c-10.667 -10.667 -40.334 -30.334 -89.001 -59.001c-29.333 -16 -49 -30 -59 -42c-13.333 -15.333 -20 -31.333 -20 -48c0 -11.333 4.33301 -21 13 -29c8.66699 -7.33301 21.667 -11 39 -11c16.667 0 32.667 4.33301 48 13l-8 -59c-18.667 -9.33301 -38.334 -14 -59.001 -14
c-30.667 0 -56 10 -76 30c-14 14.667 -21 33.334 -21 56.001c0 20.667 7 40.667 21 60c9.33301 13.333 19.666 24 30.999 32c-37.333 0 -73.666 7.33301 -108.999 22s-64 37.334 -86 68.001c-28 38.667 -42 92 -42 160v429h74z" />
    <glyph glyph-name="uogonek" unicode="&#x173;" horiz-adv-x="466" 
d="M140 415l0.000976562 -241.997c0 -42 6.66699 -71.667 20 -89c16.667 -21.333 41 -32 73 -32s56.333 10.667 73 32c13.333 17.333 20 47 20 89v242h72v-250c0 -57.333 -12.667 -99 -38 -125c-9.33301 -9.33301 -29.333 -23.333 -60 -42
c-21.333 -12.667 -38 -26.334 -50 -41.001c-13.333 -16 -20 -31.667 -20 -47c0 -12.667 4.33301 -22.334 13 -29.001c9.33301 -7.33301 22.333 -11 39 -11s32.667 4.33301 48 13l-8 -55c-16 -9.33301 -35 -14 -57 -14c-30 0 -54.333 9.33301 -73 28
c-14.667 14.667 -22 33 -22 55c0 19.333 5.33301 36.666 16 51.999c9.33301 14 21.666 27 36.999 39c-47.333 2.66699 -86.333 20 -117 52c-25.333 27.333 -38 69 -38 125v250h72z" />
    <glyph glyph-name="Ydieresis" unicode="&#x178;" horiz-adv-x="530" 
d="M227 0v287l-219 380h86l170 -298l172 298h86l-221 -380v-287h-74zM119 784c0 14 5 26 15 36s22 15 36 15s26 -5 36 -15s15 -22 15 -36s-5 -26 -15 -36s-22 -15 -36 -15s-26 5 -36 15s-15 22 -15 36zM309 784c0 14 5 26 15 36s22 15 36 15s26 -5 36 -15s15 -22 15 -36
s-5 -26 -15 -36s-22 -15 -36 -15s-26 5 -36 15s-15 22 -15 36z" />
    <glyph glyph-name="Zacute" unicode="&#x179;" horiz-adv-x="536" 
d="M512 667l-364 -597h354v-70h-478l364 597h-317v70h441zM350 882l70 -45l-153 -117l-43 32z" />
    <glyph glyph-name="zacute" unicode="&#x17a;" horiz-adv-x="460" 
d="M452 415l-300 -349h288v-66h-432l300 349h-242v66h386zM292 666l74 -34l-134 -135l-45 24z" />
    <glyph glyph-name="Zdotaccent" unicode="&#x17b;" horiz-adv-x="536" 
d="M512 667l-364 -597h354v-70h-478l364 597h-317v70h441zM225 784c0 16 5.16699 29.167 15.5 39.5s23.5 15.5 39.5 15.5s29.167 -5.16699 39.5 -15.5s15.5 -23.5 15.5 -39.5s-5.16699 -29.167 -15.5 -39.5s-23.5 -15.5 -39.5 -15.5s-29.167 5.16699 -39.5 15.5
s-15.5 23.5 -15.5 39.5z" />
    <glyph glyph-name="zdotaccent" unicode="&#x17c;" horiz-adv-x="460" 
d="M452 415l-300 -349h288v-66h-432l300 349h-242v66h386zM197 553c0 15.333 5.16699 28 15.5 38s22.833 15 37.5 15s27.167 -5 37.5 -15s15.5 -22.667 15.5 -38s-5.16699 -28 -15.5 -38s-22.833 -15 -37.5 -15s-27.167 5 -37.5 15s-15.5 22.667 -15.5 38z" />
    <glyph glyph-name="Zcaron" unicode="&#x17d;" horiz-adv-x="536" 
d="M512 667l-364 -597h354v-70h-478l364 597h-317v70h441zM280 805l88 76l52 -41l-140 -119l-140 119l52 41z" />
    <glyph glyph-name="zcaron" unicode="&#x17e;" horiz-adv-x="460" 
d="M452 415l-300 -349h288v-66h-432l300 349h-242v66h386zM250 573l92 81l46 -36l-138 -121l-138 121l46 36z" />
    <glyph glyph-name="uni018F" unicode="&#x18f;" horiz-adv-x="756" 
d="M132 483l-55.002 49.9971c22 30 47.667 56.333 77 79c57.333 44 125.333 66 204 66c99.333 0 182.166 -33.167 248.499 -99.5s99.5 -148.166 99.5 -245.499s-32.833 -179.166 -98.5 -245.499s-147.5 -99.5 -245.5 -99.5c-55.333 0 -104.166 11.333 -146.499 34
s-76.166 51.334 -101.499 86.001c-42.667 58 -64 128.333 -64 211v16h580c0 76 -25.667 140.5 -77 193.5s-116.666 79.5 -195.999 79.5c-64 0 -118 -18.667 -162 -56c-22.667 -18.667 -43.667 -41.667 -63 -69zM622.998 264.997l-496.999 0.000976562
c1.33301 -34.667 10.333 -66.334 27 -95.001c19.333 -34 47.166 -61.167 83.499 -81.5s76.5 -30.5 120.5 -30.5c64 0 121 19.5 171 58.5s81.667 88.5 95 148.5z" />
    <glyph glyph-name="florin" unicode="&#x192;" horiz-adv-x="568" 
d="M427 355l-107.997 -0.000976562l-61 -329c-4 -23.333 -7.83301 -41.833 -11.5 -55.5s-9.83398 -29.5 -18.501 -47.5s-19.334 -33.333 -32.001 -46c-32 -31.333 -78.333 -47 -139 -47c-12 0 -26 1.33301 -42 4l14 64c9.33301 -1.33301 17.666 -2 24.999 -2
c39.333 0 69 9.66699 89 29c20.667 20.667 36.667 63.334 48 128.001l55 302h-72l9 60h74l33 179c9.33301 52 25.666 89.667 48.999 113c22 22 52.667 33 92 33c22.667 0 44 -3.33301 64 -10l-13 -67c-17.333 7.33301 -32.666 11 -45.999 11c-17.333 0 -32 -5.33301 -44 -16
c-13.333 -13.333 -24 -41.333 -32 -84l-30 -159h106z" />
    <glyph glyph-name="uni01CF" unicode="&#x1cf;" horiz-adv-x="246" 
d="M85 667h74v-667h-74v667zM123 805l88 76l52 -41l-140 -119l-140 119l52 41z" />
    <glyph glyph-name="uni01D0" unicode="&#x1d0;" horiz-adv-x="208" 
d="M68 415h72v-415h-72v415zM104 579l75 67l43 -35l-118 -106l-118 106l43 35z" />
    <glyph glyph-name="uni01DD" unicode="&#x1dd;" horiz-adv-x="482" 
d="M105 274l-60 33c14 26.667 31 49 51 67c37.333 34 83.333 51 138 51c56 0 104.333 -18.333 145 -55s61 -90.667 61 -162c0 -63.333 -18.333 -115.833 -55 -157.5s-85.667 -62.5 -147 -62.5c-68.667 0 -121.334 25.333 -158.001 76c-30 42.667 -42.667 94.667 -38 156h324
c-0.666992 42 -13.667 76 -39 102s-56.666 39 -93.999 39c-34 0 -62.333 -10 -85 -30c-18.667 -16 -33 -35 -43 -57zM360 160l-244 0.000976562c5.33301 -32 19 -58 41 -78s49 -30 81 -30c30 0 56.5 10.167 79.5 30.5s37.167 46.166 42.5 77.499z" />
    <glyph glyph-name="Gcaron" unicode="&#x1e6;" horiz-adv-x="758" 
d="M430 265l0.000976562 70.002h278v-16c0 -82.667 -21.333 -153 -64 -211c-59.333 -80 -142 -120 -248 -120c-98.667 0 -181 33.167 -247 99.5s-99 148.166 -99 245.499s33.167 179.166 99.5 245.499s149.166 99.5 248.499 99.5c78.667 0 146.667 -22 204 -66
c29.333 -22.667 55 -49 77 -79l-55 -50c-19.333 27.333 -40.333 50.333 -63 69c-46 37.333 -100 56 -162 56c-79.333 0 -144.666 -26.333 -195.999 -79s-77 -118.334 -77 -197.001c0 -57.333 14 -107.5 42 -150.5s62.167 -74.333 102.5 -94s82.5 -29.5 126.5 -29.5
s84.167 10.167 120.5 30.5s64.166 47.5 83.499 81.5c16.667 28.667 25.667 60.334 27 95.001h-198zM379.001 805.002l88 76l52 -41l-140 -119l-140 119l52 41z" />
    <glyph glyph-name="gcaron" unicode="&#x1e7;" horiz-adv-x="526" 
d="M386 356l-0.000976562 59h72v-405c0 -72.667 -13.333 -127 -40 -163c-38 -51.333 -93.333 -77 -166 -77c-61.333 0 -110.666 18.667 -147.999 56c-36 36 -54 80.667 -54 134h71c0 -33.333 10.667 -62 32 -86c24 -26.667 57.333 -40 100 -40c50 0 86.667 19.333 110 58
c15.333 24.667 23 60 23 106v60c-36 -46.667 -83.333 -70 -142 -70c-57.333 0 -104.666 18.667 -141.999 56c-40 40 -60 94.667 -60 164c0 67.333 20 121 60 161c38.667 37.333 86 56 142 56c59.333 0 106.666 -23 141.999 -69zM251.999 361
c-36.667 0 -68 -12.999 -94 -38.999c-28 -28.667 -42 -66.667 -42 -114c0 -52.667 15.667 -93.334 47 -122.001c24.667 -22.667 54.334 -34 89.001 -34c37.333 0 67.666 11.667 90.999 35c31.333 30 47 70 47 120s-14.667 89 -44 117c-24.667 24.667 -56 37 -94 37z
M262.999 573.001l92 81l46 -36l-138 -121l-138 121l46 36z" />
    <glyph glyph-name="AEacute" unicode="&#x1fc;" horiz-adv-x="900" 
d="M538 0l-79 187h-284l-79 -187h-82l297 667h293l29 -70h-269l83 -198h264l29 -70h-262l108 -259h271l29 -70h-348zM207 257h223l-110 261zM532 882l70 -45l-153 -117l-43 32z" />
    <glyph glyph-name="aeacute" unicode="&#x1fd;" horiz-adv-x="774" 
d="M667 140l59.9961 -35.998c-40.667 -77.333 -103 -116 -187 -116c-71.333 0 -125.666 27.667 -162.999 83c-31.333 -55.333 -83.333 -83 -156 -83c-51.333 0 -94 11.667 -128 35s-51 56.666 -51 99.999s16.333 77 49 101s74 36 124 36
c46.667 0 86.334 -11.667 119.001 -35c1.33301 36 -5 65.333 -19 88c-18.667 32 -51.667 48 -99 48c-37.333 0 -80 -8.66699 -128 -26v68c44.667 14.667 87.667 22 129 22c78 0 130.333 -28 157 -84c34.667 56 88 84 160 84c60.667 0 108.834 -20.5 144.501 -61.5
s53.5 -95.5 53.5 -163.5v-7h-324c1.33301 -40.667 14.5 -74.334 39.5 -101.001s55.5 -40 91.5 -40c27.333 0 52.333 8.33301 75 25s40.334 37.667 53.001 63zM412.996 253.002h245.002c-4.66699 33.333 -18.334 59.666 -41.001 78.999s-50 29 -82 29
c-30.667 0 -57.334 -9.66699 -80.001 -29s-36.667 -45.666 -42 -78.999zM220.998 196.002c-34 0 -60.332 -6.83301 -78.999 -20.5s-28 -31.167 -28 -52.5c0 -18.667 8.16699 -35.167 24.5 -49.5s43.166 -21.5 80.499 -21.5c38 0 66 7.5 84 22.5s27 32.167 27 51.5
c0 17.333 -8.83301 33.333 -26.5 48s-45.167 22 -82.5 22zM448.999 666.002l74 -34l-134 -135l-45 24z" />
    <glyph glyph-name="Scommaaccent" unicode="&#x218;" horiz-adv-x="518" 
d="M443 574l-58.9961 -39.001c-10.667 20.667 -23.667 37.334 -39 50.001c-20 15.333 -45 23 -75 23c-33.333 0 -60.333 -9.5 -81 -28.5s-31 -43.833 -31 -74.5c0 -22.667 8.33301 -42 25 -58c13.333 -13.333 36.666 -27.333 69.999 -42l64 -28
c47.333 -20.667 81.666 -41.667 102.999 -63c32 -32 48 -72.333 48 -121c0 -60.667 -20 -110 -60 -148s-90.333 -57 -151 -57c-60 0 -108.333 18 -145 54c-30 29.333 -50.667 68.666 -62 117.999l72 20c4.66699 -33.333 18 -61.666 40 -84.999
c24.667 -24.667 56.667 -37 96 -37c42.667 0 75.667 12.833 99 38.5s35 56.834 35 93.501c0 32 -11 58 -33 78c-12.667 12 -39.334 27.333 -80.001 46l-60 28c-40.667 18.667 -70.334 37 -89.001 55c-30.667 29.333 -46 65.666 -46 108.999c0 51.333 17.5 92.833 52.5 124.5
s79.833 47.5 134.5 47.5c41.333 0 77 -10 107 -30c27.333 -18 49 -42.667 65 -74zM188.004 -210.001l56 160l64 -24l-70 -156z" />
    <glyph glyph-name="scommaaccent" unicode="&#x219;" horiz-adv-x="352" 
d="M298 350l-59.0029 -30.9971c-11.333 28 -30.666 42 -57.999 42c-14 0 -25.833 -4 -35.5 -12s-14.5 -19.667 -14.5 -35c0 -14 4.5 -24.5 13.5 -31.5s26.833 -16.167 53.5 -27.5c52.667 -22 87.334 -43.333 104.001 -64c14.667 -18 22 -40.333 22 -67
c0 -42 -13.5 -75.167 -40.5 -99.5s-61.167 -36.5 -102.5 -36.5c-8 0 -16.667 0.833008 -26 2.5s-22.166 5.33398 -38.499 11.001s-31.833 16.5 -46.5 32.5s-26 36 -34 60l62 26c16.667 -45.333 44.667 -68 84 -68c22 0 38.833 6.66699 50.5 20s17.5 28.666 17.5 45.999
c0 9.33301 -1.5 17.5 -4.5 24.5s-8 13.167 -15 18.5s-13.667 9.66602 -20 12.999s-15.5 7.66602 -27.5 12.999c-53.333 23.333 -87 43.666 -101 60.999c-12.667 16 -19 36.333 -19 61c0 36 11.167 64.333 33.5 85s51.5 31 87.5 31c52.667 0 90.667 -25 114 -75z
M109.997 -209.997l56 160l64 -24l-70 -156z" />
    <glyph glyph-name="Tcommaaccent" unicode="&#x21a;" horiz-adv-x="426" 
d="M412 597h-162v-597h-74v597h-162v70h398v-70zM128 -210l56 160l64 -24l-70 -156z" />
    <glyph glyph-name="tcommaaccent" unicode="&#x21b;" horiz-adv-x="214" 
d="M214 349h-72v-349h-72v349h-44v66h44v150h72v-150h72v-66zM30 -210l56 160l64 -24l-70 -156z" />
    <glyph glyph-name="uni0228" unicode="&#x228;" horiz-adv-x="482" 
d="M432 667v-70h-272v-198h264v-70h-264v-259h272v-70h-346v667h346zM255 -52l70 -30l-104 -128l-50 26z" />
    <glyph glyph-name="uni0229" unicode="&#x229;" horiz-adv-x="481" 
d="M376 139l60.002 -33c-14 -26.667 -31 -49 -51 -67c-38 -34 -84 -51 -138 -51c-56 0 -104.167 18.167 -144.5 54.5s-60.5 90.5 -60.5 162.5c0 63.333 18.167 115.833 54.5 157.5s85.166 62.5 146.499 62.5c69.333 0 121.666 -25.333 156.999 -76c28 -40 41 -92 39 -156
h-323c0.666992 -42 13.667 -76 39 -102s56.333 -39 93 -39c32.667 0 61 10 85 30c18.667 16 33 35 43 57zM121.002 253l244 -0.00195312c-6 32.667 -20.167 58.834 -42.5 78.501s-48.833 29.5 -79.5 29.5c-30 0 -56.5 -10.167 -79.5 -30.5s-37.167 -46.166 -42.5 -77.499z
M256.002 -52.002l66 -27l-101 -128l-49 24z" />
    <glyph glyph-name="uni0237" unicode="&#x237;" horiz-adv-x="208" 
d="M68 415h72v-645h-72v645z" />
    <glyph glyph-name="uni0259" unicode="&#x259;" horiz-adv-x="482" 
d="M105 274l-60 33c14 26.667 31 49 51 67c37.333 34 83.333 51 138 51c56 0 104.333 -18.333 145 -55s61 -90.667 61 -162c0 -63.333 -18.333 -115.833 -55 -157.5s-85.667 -62.5 -147 -62.5c-68.667 0 -121.334 25.333 -158.001 76c-30 42.667 -42.667 94.667 -38 156h324
c-0.666992 42 -13.667 76 -39 102s-56.666 39 -93.999 39c-34 0 -62.333 -10 -85 -30c-18.667 -16 -33 -35 -43 -57zM360 160l-244 0.000976562c5.33301 -32 19 -58 41 -78s49 -30 81 -30c30 0 56.5 10.167 79.5 30.5s37.167 46.166 42.5 77.499z" />
    <glyph glyph-name="afii57929" unicode="&#x2bc;" 
d="M190 530l52 160l64 -24l-70 -156z" />
    <glyph glyph-name="circumflex" unicode="&#x2c6;" 
d="M250 578l-92 -81l-46 36l138 121l138 -121l-46 -36z" />
    <glyph glyph-name="caron" unicode="&#x2c7;" 
d="M250 573l92 81l46 -36l-138 -121l-138 121l46 36z" />
    <glyph glyph-name="uni02C9" unicode="&#x2c9;" 
d="M99 513v60h302v-60h-302z" />
    <glyph glyph-name="breve" unicode="&#x2d8;" 
d="M105 617h61c4.66699 -15.333 12.667 -28.333 24 -39c16 -14 36 -21 60 -21s44 7 60 21c11.333 10.667 19.333 23.667 24 39h61c-4 -21.333 -13.667 -43.666 -29 -66.999c-27.333 -35.333 -66 -53 -116 -53s-88.667 17.667 -116 53c-15.333 23.333 -25 45.666 -29 66.999z
" />
    <glyph glyph-name="dotaccent" unicode="&#x2d9;" 
d="M197 553c0 15.333 5.16699 28 15.5 38s22.833 15 37.5 15s27.167 -5 37.5 -15s15.5 -22.667 15.5 -38s-5.16699 -28 -15.5 -38s-22.833 -15 -37.5 -15s-27.167 5 -37.5 15s-15.5 22.667 -15.5 38z" />
    <glyph glyph-name="ring" unicode="&#x2da;" 
d="M164 583c0 23.333 8.5 43.5 25.5 60.5s37.167 25.5 60.5 25.5s43.5 -8.5 60.5 -25.5s25.5 -37.167 25.5 -60.5s-8.5 -43.5 -25.5 -60.5s-37.167 -25.5 -60.5 -25.5s-43.5 8.5 -60.5 25.5s-25.5 37.167 -25.5 60.5zM208 583c0 -11.333 4.33301 -21.166 13 -29.499
s18.334 -12.5 29.001 -12.5s20.334 4.16699 29.001 12.5s13 18.166 13 29.499s-4.33301 21.166 -13 29.499s-18.334 12.5 -29.001 12.5s-20.334 -4.16699 -29.001 -12.5s-13 -18.166 -13 -29.499z" />
    <glyph glyph-name="ogonek" unicode="&#x2db;" 
d="M364 -117l-8 -55c-18 -9.33301 -36.667 -14 -56 -14c-26 0 -48.5 7.66699 -67.5 23s-28.5 35.333 -28.5 60c0 22.667 8 44 24 64c12.667 16.667 28.667 29.667 48 39h58c-21.333 -14 -37 -27 -47 -39c-15.333 -18.667 -23 -35.667 -23 -51c0 -26.667 17.333 -40 52 -40
c17.333 0 33.333 4.33301 48 13z" />
    <glyph glyph-name="tilde" unicode="&#x2dc;" 
d="M138 497l-42.001 34c10.667 18 22 33 34 45c16.667 16 35.667 24 57 24c20 0 43.333 -6.66699 70 -20c25.333 -13.333 44 -20 56 -20s21.667 4 29 12c8.66699 10 15.667 20.333 21 31l41 -34c-5.33301 -14 -14 -27 -26 -39c-19.333 -20 -41.333 -30 -66 -30
c-16.667 0 -39.667 7 -69 21c-27.333 12.667 -45.666 19 -54.999 19c-10 0 -19.667 -4.66699 -29 -14c-7.33301 -7.33301 -14.333 -17 -21 -29z" />
    <glyph glyph-name="hungarumlaut" unicode="&#x2dd;" 
d="M250 666l72 -32l-137 -136l-41 23zM384 666l70 -32l-135 -136l-41 23z" />
    <glyph glyph-name="acutecomb" unicode="&#x301;" horiz-adv-x="2" 
d="M-186 666l74 -34l-134 -135l-45 24z" />
    <glyph glyph-name="uni0394" unicode="&#x394;" horiz-adv-x="668" 
d="M640 0h-612l268 667h76zM334 574l-200 -504h400z" />
    <glyph glyph-name="uni0394" unicode="&#x2206;" horiz-adv-x="668" 
d="M640 0h-612l268 667h76zM334 574l-200 -504h400z" />
    <glyph glyph-name="uni03A9" unicode="&#x3a9;" horiz-adv-x="668" 
d="M379 0l-0.00195312 70c56.667 30 101 67.667 133 113c34 49.333 51 105.666 51 168.999c0 83.333 -25.333 149 -76 197c-42 39.333 -93 59 -153 59s-111 -19.667 -153 -59c-50.667 -48 -76 -113.667 -76 -197c0 -63.333 17 -119.666 51 -168.999
c32 -45.333 76.333 -83 133 -113v-70h-260v70h179c-49.333 26 -89.666 60.333 -120.999 103c-38.667 53.333 -58 115.333 -58 186c0 98 30.667 177 92 237c54.667 54.667 125.667 82 213 82s158.333 -27.333 213 -82c61.333 -60 92 -139 92 -237
c0 -70.667 -19.333 -132.667 -58 -186c-31.333 -42.667 -71.666 -77 -120.999 -103h179v-70h-260z" />
    <glyph glyph-name="uni03A9" unicode="&#x2126;" horiz-adv-x="668" 
d="M379 0l-0.00195312 70c56.667 30 101 67.667 133 113c34 49.333 51 105.666 51 168.999c0 83.333 -25.333 149 -76 197c-42 39.333 -93 59 -153 59s-111 -19.667 -153 -59c-50.667 -48 -76 -113.667 -76 -197c0 -63.333 17 -119.666 51 -168.999
c32 -45.333 76.333 -83 133 -113v-70h-260v70h179c-49.333 26 -89.666 60.333 -120.999 103c-38.667 53.333 -58 115.333 -58 186c0 98 30.667 177 92 237c54.667 54.667 125.667 82 213 82s158.333 -27.333 213 -82c61.333 -60 92 -139 92 -237
c0 -70.667 -19.333 -132.667 -58 -186c-31.333 -42.667 -71.666 -77 -120.999 -103h179v-70h-260z" />
    <glyph glyph-name="pi" unicode="&#x3c0;" horiz-adv-x="538" 
d="M174 0h-72v349h-74v66h482v-66h-74v-349h-72v349h-190v-349z" />
    <glyph glyph-name="afii10023" unicode="&#x401;" horiz-adv-x="482" 
d="M432 667v-70h-272v-198h264v-70h-264v-259h272v-70h-346v667h346zM112 784c0 14 5 26 15 36s22 15 36 15s26 -5 36 -15s15 -22 15 -36s-5 -26 -15 -36s-22 -15 -36 -15s-26 5 -36 15s-15 22 -15 36zM302 784c0 14 5 26 15 36s22 15 36 15s26 -5 36 -15s15 -22 15 -36
s-5 -26 -15 -36s-22 -15 -36 -15s-26 5 -36 15s-15 22 -15 36z" />
    <glyph glyph-name="afii10051" unicode="&#x402;" horiz-adv-x="646" 
d="M450 597l-201.998 -0.000976562v-212c47.333 15.333 93 23 137 23c80 0 138.333 -22.333 175 -67c29.333 -36 44 -85 44 -147c0 -74.667 -23.333 -129 -70 -163c-32.667 -24.667 -77.334 -37 -134.001 -37c-18.667 0 -41.334 2 -68.001 6v70c18.667 -4 39.667 -6 63 -6
c40.667 0 71.667 9 93 27c26.667 22.667 40 57.334 40 104.001c0 42 -9.33301 74.333 -28 97c-26 30.667 -66.667 46 -122 46c-42.667 0 -86 -7.66699 -130 -23v-315h-74v597h-160v70h436v-70z" />
    <glyph glyph-name="afii10052" unicode="&#x403;" horiz-adv-x="404" 
d="M86 0v667h304v-70h-230v-597h-74zM322 882l70 -45l-153 -117l-43 32z" />
    <glyph glyph-name="afii10053" unicode="&#x404;" horiz-adv-x="645" 
d="M595 612l0.00292969 -92c-24 24 -53 44 -87 60c-42.667 18.667 -87.667 28 -135 28c-67.333 0 -123.5 -21.833 -168.5 -65.5s-70.167 -97.834 -75.5 -162.501h386v-70h-389c-0.666992 -73.333 23.666 -133.666 72.999 -180.999s107.666 -71 174.999 -71
c50 0 98 11 144 33c31.333 15.333 57 33.333 77 54v-92c-67.333 -43.333 -141 -65 -221 -65c-98.667 0 -177.334 32.333 -236.001 97s-88 146.667 -88 246c0 101.333 29.833 184.5 89.5 249.5s139.167 97.5 238.5 97.5c80.667 0 153 -22 217 -66z" />
    <glyph glyph-name="afii10054" unicode="&#x405;" horiz-adv-x="518" 
d="M443 574l-58.9961 -39.001c-10.667 20.667 -23.667 37.334 -39 50.001c-20 15.333 -45 23 -75 23c-33.333 0 -60.333 -9.5 -81 -28.5s-31 -43.833 -31 -74.5c0 -22.667 8.33301 -42 25 -58c13.333 -13.333 36.666 -27.333 69.999 -42l64 -28
c47.333 -20.667 81.666 -41.667 102.999 -63c32 -32 48 -72.333 48 -121c0 -60.667 -20 -110 -60 -148s-90.333 -57 -151 -57c-60 0 -108.333 18 -145 54c-30 29.333 -50.667 68.666 -62 117.999l72 20c4.66699 -33.333 18 -61.666 40 -84.999
c24.667 -24.667 56.667 -37 96 -37c42.667 0 75.667 12.833 99 38.5s35 56.834 35 93.501c0 32 -11 58 -33 78c-12.667 12 -39.334 27.333 -80.001 46l-60 28c-40.667 18.667 -70.334 37 -89.001 55c-30.667 29.333 -46 65.666 -46 108.999c0 51.333 17.5 92.833 52.5 124.5
s79.833 47.5 134.5 47.5c41.333 0 77 -10 107 -30c27.333 -18 49 -42.667 65 -74z" />
    <glyph glyph-name="afii10055" unicode="&#x406;" horiz-adv-x="246" 
d="M86 667h74v-667h-74v667z" />
    <glyph glyph-name="afii10056" unicode="&#x407;" horiz-adv-x="246" 
d="M86 667h74v-667h-74v667zM15 784c0 14 4.33301 26 13 36s19.334 15 32.001 15s23.334 -5 32.001 -15s13 -22 13 -36s-4.33301 -26 -13 -36s-19.334 -15 -32.001 -15s-23.334 5 -32.001 15s-13 22 -13 36zM141 784c0 14 4.33301 26 13 36s19.334 15 32.001 15
s23.334 -5 32.001 -15s13 -22 13 -36s-4.33301 -26 -13 -36s-19.334 -15 -32.001 -15s-23.334 5 -32.001 15s-13 22 -13 36z" />
    <glyph glyph-name="afii10057" unicode="&#x408;" horiz-adv-x="306" 
d="M146 667l74 -0.00195312v-480c0 -24 -0.5 -43.167 -1.5 -57.5s-4.66699 -31.166 -11 -50.499s-15.833 -35.666 -28.5 -48.999c-26 -28 -61.333 -42 -106 -42c-50.667 0 -90.334 16.333 -119.001 49l41 58c22.667 -24.667 48 -37 76 -37
c20.667 0 37.334 6.33301 50.001 19c16.667 16.667 25 52.667 25 108v482z" />
    <glyph glyph-name="afii10058" unicode="&#x409;" horiz-adv-x="922" 
d="M154 667h406.002v-277h90c153.333 0 230 -62.667 230 -188c0 -62.667 -19.5 -112 -58.5 -148s-91.5 -54 -157.5 -54h-178v597h-258v-358c0 -31.333 -0.333008 -54.833 -1 -70.5s-5.83398 -37.667 -15.501 -66s-24.167 -51.166 -43.5 -68.499
c-30 -26.667 -68 -40 -114 -40c-10.667 0 -24 2 -40 6v70c13.333 -4 25.666 -6 36.999 -6c26 0 47.667 8.66699 65 26c12 12 21 29.167 27 51.5s9.33301 41.166 10 56.499s1 39 1 71v398zM560.002 320v-250h86c56.667 0 97.667 12.333 123 37c23.333 22 35 53.667 35 95
c0 48 -18 81.667 -54 101c-20.667 11.333 -58 17 -112 17h-78z" />
    <glyph glyph-name="afii10059" unicode="&#x40a;" horiz-adv-x="938" 
d="M160 667v-277h342v277h74v-277h90c153.333 0 230 -62.667 230 -188c0 -62.667 -19.5 -112 -58.5 -148s-91.5 -54 -157.5 -54h-178v320h-342v-320h-74v667h74zM576 320v-250h86c56.667 0 97.667 12.333 123 37c23.333 22 35 53.667 35 95c0 48 -18 81.667 -54 101
c-20.667 11.333 -58 17 -112 17h-78z" />
    <glyph glyph-name="afii10060" unicode="&#x40b;" horiz-adv-x="678" 
d="M450 597h-201.999v-196c62 4.66699 108 7 138 7c79.333 0 134.333 -12 165 -36c40.667 -31.333 61 -83 61 -155v-217h-74v207c0 54 -13.333 90.667 -40 110c-18.667 14 -57.334 21 -116.001 21c-39.333 0 -84 -2.33301 -134 -7v-331h-74v597h-160v70h436v-70z" />
    <glyph glyph-name="afii10061" unicode="&#x40c;" horiz-adv-x="568" 
d="M160 667v-286l284 286h100l-312 -311l322 -356h-102l-273 306l-19 -19v-287h-74v667h74zM366 882l70 -45l-153 -117l-43 32z" />
    <glyph glyph-name="afii10062" unicode="&#x40e;" horiz-adv-x="568" 
d="M8 667h90l208 -393l174 393h80l-301 -667h-80l85 186zM135 818l70.0059 23c4 -12.667 10.167 -23.167 18.5 -31.5s17.666 -14 27.999 -17s18.166 -5 23.499 -6s10.333 -1.5 15 -1.5s9.66699 0.5 15 1.5s13.166 3 23.499 6s19.666 8.66699 27.999 17
s14.5 18.833 18.5 31.5l70 -23c-2.66699 -7.33301 -6.5 -15 -11.5 -23s-13.167 -18.333 -24.5 -31s-27.333 -23 -48 -31s-44.334 -12 -71.001 -12s-50.334 4 -71.001 12s-36.667 18.333 -48 31s-19.5 23 -24.5 31s-8.83301 15.667 -11.5 23z" />
    <glyph glyph-name="afii10145" unicode="&#x40f;" horiz-adv-x="658" 
d="M86 0v667h74v-597h338v597h74v-667h-208v-160h-70v160h-208z" />
    <glyph glyph-name="afii10017" unicode="&#x410;" horiz-adv-x="622" 
d="M532 0l-78 188h-284l-80 -188h-82l307 699l299 -699h-82zM199 258h226l-112 267z" />
    <glyph glyph-name="afii10018" unicode="&#x411;" horiz-adv-x="530" 
d="M86 0v667h331v-70h-257v-207h90c153.333 0 230 -62.667 230 -188c0 -62.667 -19.5 -112 -58.5 -148s-91.5 -54 -157.5 -54h-178zM160 320v-250h86c56.667 0 97.667 12.333 123 37c23.333 22 35 53.667 35 95c0 48 -18 81.667 -54 101c-20.667 11.333 -58 17 -112 17h-78z
" />
    <glyph glyph-name="afii10019" unicode="&#x412;" horiz-adv-x="530" 
d="M86 667l119.999 -0.000976562c66.667 0 117.667 -14 153 -42c40 -30.667 60 -76.667 60 -138c0 -57.333 -22 -101 -66 -131c42.667 -10.667 74.5 -32.167 95.5 -64.5s31.5 -66.833 31.5 -103.5c0 -30 -6.5 -57.667 -19.5 -83s-29.167 -45.666 -48.5 -60.999
c-37.333 -29.333 -90.666 -44 -159.999 -44h-166v667zM159.999 596.999l-0.00195312 -222.999h56c10 0 19.667 0.5 29 1.5s20.5 3.66699 33.5 8s24.333 10.166 34 17.499s17.834 18.333 24.501 33s10 31.667 10 51c0 20.667 -4 38.5 -12 53.5s-17 26.167 -27 33.5
s-22 13 -36 17s-24.667 6.33301 -32 7s-14.666 1 -21.999 1h-58zM159.997 308v-238.001h85c54 0 93 9.33301 117 28c29.333 21.333 44 52 44 92c0 44.667 -19 77.334 -57 98.001c-24 13.333 -61.667 20 -113 20h-76z" />
    <glyph glyph-name="afii10020" unicode="&#x413;" horiz-adv-x="404" 
d="M86 0v667h304v-70h-230v-597h-74z" />
    <glyph glyph-name="afii10021" unicode="&#x414;" horiz-adv-x="640" 
d="M144 667h405.998v-597h76v-210h-70v140h-472v-140h-70v210c22.667 -0.666992 43.334 7.5 62.001 24.5s33.334 38.833 44.001 65.5c16 40.667 24 99 24 175v332zM217.998 597v-262c0 -82 -8 -144 -24 -186c-11.333 -30 -28.333 -56.333 -51 -79h333v527h-258z" />
    <glyph glyph-name="afii10022" unicode="&#x415;" horiz-adv-x="482" 
d="M432 667v-70h-272v-198h264v-70h-264v-259h272v-70h-346v667h346z" />
    <glyph glyph-name="afii10024" unicode="&#x416;" horiz-adv-x="810" 
d="M368 667h74v-286l254 286h92l-280 -311l288 -356h-94l-244 305l-16 -18v-287h-74v287l-16 18l-244 -305h-94l288 356l-280 311h92l254 -286v286z" />
    <glyph glyph-name="afii10025" unicode="&#x417;" horiz-adv-x="576" 
d="M157 536l-56.999 44.999c43.333 64.667 107 97 191 97c60 0 107 -15.667 141 -47c34.667 -31.333 52 -72.333 52 -123c0 -32.667 -8.5 -61.167 -25.5 -85.5s-39.167 -42.833 -66.5 -55.5c43.333 -10 76.5 -30.667 99.5 -62s34.5 -68 34.5 -110
c0 -69.333 -27.667 -123.666 -83 -162.999c-42.667 -29.333 -93.334 -44 -152.001 -44c-60.667 0 -111 15.333 -151 46s-70 68.667 -90 114l72 32c13.333 -37.333 35.333 -67 66 -89s66 -33 106 -33c40.667 0 74.667 9.33301 102 28c36 25.333 54 61 54 107
c0 87.333 -59.333 131 -178 131h-60v70h60c44 0 77.667 10.667 101 32s35 48.333 35 81c0 28.667 -9 52 -27 70c-20 20.667 -50 31 -90 31c-56 0 -100.667 -24 -134 -72z" />
    <glyph glyph-name="afii10026" unicode="&#x418;" horiz-adv-x="710" 
d="M550 0v509l-464 -539v697h74v-511l464 539v-695h-74z" />
    <glyph glyph-name="afii10027" unicode="&#x419;" horiz-adv-x="710" 
d="M550 0v509l-464 -539v697h74v-511l464 539v-695h-74zM200 818l70.0059 23c4 -12.667 10.167 -23.167 18.5 -31.5s17.666 -14 27.999 -17s18.166 -5 23.499 -6s10.333 -1.5 15 -1.5s9.66699 0.5 15 1.5s13.166 3 23.499 6s19.666 8.66699 27.999 17s14.5 18.833 18.5 31.5
l70 -23c-2.66699 -7.33301 -6.5 -15 -11.5 -23s-13.167 -18.333 -24.5 -31s-27.333 -23 -48 -31s-44.334 -12 -71.001 -12s-50.334 4 -71.001 12s-36.667 18.333 -48 31s-19.5 23 -24.5 31s-8.83301 15.667 -11.5 23z" />
    <glyph glyph-name="afii10028" unicode="&#x41a;" horiz-adv-x="568" 
d="M160 667v-286l284 286h100l-312 -311l322 -356h-102l-273 306l-19 -19v-287h-74v667h74z" />
    <glyph glyph-name="afii10029" unicode="&#x41b;" horiz-adv-x="646" 
d="M154 667h406.002v-667h-74v597h-258v-358c0 -31.333 -0.333008 -54.833 -1 -70.5s-5.83398 -37.667 -15.501 -66s-24.167 -51.166 -43.5 -68.499c-30 -26.667 -68 -40 -114 -40c-10.667 0 -24 2 -40 6v70c13.333 -4 25.666 -6 36.999 -6c26 0 47.667 8.66699 65 26
c12 12 21 29.167 27 51.5s9.33301 41.166 10 56.499s1 39 1 71v398z" />
    <glyph glyph-name="afii10030" unicode="&#x41c;" horiz-adv-x="863" 
d="M139 0h-76l111 704l256 -563l261 564l104 -705h-76l-63 464l-227 -492l-224 492z" />
    <glyph glyph-name="afii10031" unicode="&#x41d;" horiz-adv-x="662" 
d="M160 667v-271h342v271h74v-667h-74v326h-342v-326h-74v667h74z" />
    <glyph glyph-name="afii10032" unicode="&#x41e;" horiz-adv-x="794" 
d="M397 -12c-97.333 0 -179.5 33 -246.5 99s-100.5 148 -100.5 246c0 98.667 33.667 180.834 101 246.501s149.333 98.5 246 98.5s178.667 -32.833 246 -98.5s101 -147.834 101 -246.501c0 -98 -33.5 -180 -100.5 -246s-149.167 -99 -246.5 -99zM397 608
c-75.333 0 -139.333 -26.667 -192 -80s-79 -118.333 -79 -195s26.333 -141.667 79 -195s116.667 -80 192 -80s139.333 26.667 192 80s79 118.333 79 195s-26.333 141.667 -79 195s-116.667 80 -192 80z" />
    <glyph glyph-name="afii10033" unicode="&#x41f;" horiz-adv-x="662" 
d="M86 667h490v-667h-74v597h-342v-597h-74v667z" />
    <glyph glyph-name="afii10034" unicode="&#x420;" horiz-adv-x="456" 
d="M86 667l121 0.000976562c76 0 132 -15.667 168 -47c40.667 -34.667 61 -82.334 61 -143.001c0 -52 -17.5 -96.167 -52.5 -132.5s-87.833 -54.5 -158.5 -54.5h-65v-290h-74v667zM160 597.001v-237h61c44 0 78.5 10.667 103.5 32s37.5 51 37.5 89
c0 77.333 -49 116 -147 116h-55z" />
    <glyph glyph-name="afii10035" unicode="&#x421;" horiz-adv-x="646" 
d="M596 612l0.000976562 -92.001c-26.667 26.667 -55.667 47.334 -87 62.001c-38 17.333 -76.333 26 -115 26c-76.667 0 -140.5 -26.833 -191.5 -80.5s-76.5 -119.5 -76.5 -197.5c0 -84 27.833 -150.333 83.5 -199s117.5 -73 185.5 -73c42.667 0 84 10.333 124 31
c28 14 53.667 32.667 77 56v-92c-60.667 -43.333 -127.667 -65 -201 -65c-98.667 0 -180.834 33 -246.501 99s-98.5 147.333 -98.5 244c0 99.333 33.167 182 99.5 248s149.5 99 249.5 99c73.333 0 139 -22 197 -66z" />
    <glyph glyph-name="afii10036" unicode="&#x422;" horiz-adv-x="426" 
d="M412 597h-162v-597h-74v597h-162v70h398v-70z" />
    <glyph glyph-name="afii10037" unicode="&#x423;" horiz-adv-x="568" 
d="M8 667h90l208 -393l174 393h80l-301 -667h-80l85 186z" />
    <glyph glyph-name="afii10038" unicode="&#x424;" horiz-adv-x="822" 
d="M374 0v94h-18c-47.333 0 -89.5 5.66699 -126.5 17s-66.5 25.666 -88.5 42.999s-40.167 38 -54.5 62s-24 47.167 -29 69.5s-7.5 45.166 -7.5 68.499s2.5 46.166 7.5 68.499s14.667 45.5 29 69.5s32.5 44.667 54.5 62s51.5 31.666 88.5 42.999s79.167 17 126.5 17h18v80h74
v-80h18c47.333 0 89.5 -5.66699 126.5 -17s66.5 -25.666 88.5 -42.999s40.167 -38 54.5 -62s24 -47.167 29 -69.5s7.5 -45.166 7.5 -68.499s-2.5 -46.166 -7.5 -68.499s-14.667 -45.5 -29 -69.5s-32.5 -44.667 -54.5 -62s-51.5 -31.666 -88.5 -42.999
s-79.167 -17 -126.5 -17h-18v-94h-74zM374 164v380.002h-20c-43.333 0 -80.666 -5.66699 -111.999 -17s-55 -26.833 -71 -46.5s-27.5 -39.834 -34.5 -60.501s-10.5 -42.667 -10.5 -66s3.5 -45.333 10.5 -66s18.5 -40.834 34.5 -60.501s39.667 -35.167 71 -46.5
s68.666 -17 111.999 -17h20zM448 544.002v-380.002h20c43.333 0 80.666 5.66699 111.999 17s55 26.833 71 46.5s27.5 39.834 34.5 60.501s10.5 42.667 10.5 66s-3.5 45.333 -10.5 66s-18.5 40.834 -34.5 60.501s-39.667 35.167 -71 46.5s-68.666 17 -111.999 17h-20z" />
    <glyph glyph-name="afii10039" unicode="&#x425;" horiz-adv-x="504" 
d="M14 0l197 345l-179 322h84l138 -251l142 251h84l-183 -322l193 -345h-84l-153 274l-155 -274h-84z" />
    <glyph glyph-name="afii10040" unicode="&#x426;" horiz-adv-x="662" 
d="M86 0v667h74v-597h338v597h74v-597h76v-210h-70v140h-492z" />
    <glyph glyph-name="afii10041" unicode="&#x427;" horiz-adv-x="590" 
d="M430 0l-0.000976562 286c-62 -4.66699 -108 -7 -138 -7c-79.333 0 -134.333 12 -165 36c-40.667 31.333 -61 83 -61 155v197h74v-187c0 -54 13.333 -90.667 40 -110c18.667 -14 57.334 -21 116.001 -21c39.333 0 84 2.33301 134 7v311h74v-667h-74z" />
    <glyph glyph-name="afii10042" unicode="&#x428;" horiz-adv-x="922" 
d="M86 0v667h74v-597h264v597h74v-597h264v597h74v-667h-750z" />
    <glyph glyph-name="afii10043" unicode="&#x429;" horiz-adv-x="926" 
d="M86 0v667h74v-597h264v597h74v-597h264v597h74v-597h76v-210h-70v140h-756z" />
    <glyph glyph-name="afii10044" unicode="&#x42a;" horiz-adv-x="610" 
d="M174 0v597h-160v70h234v-277h90c153.333 0 230 -62.667 230 -188c0 -62.667 -19.5 -112 -58.5 -148s-91.5 -54 -157.5 -54h-178zM248 320v-250h86c56.667 0 97.667 12.333 123 37c23.333 22 35 53.667 35 95c0 48 -18 81.667 -54 101c-20.667 11.333 -58 17 -112 17h-78z
" />
    <glyph glyph-name="afii10045" unicode="&#x42b;" horiz-adv-x="710" 
d="M86 0v667h74v-277h90c153.333 0 230 -62.667 230 -188c0 -62.667 -19.5 -112 -58.5 -148s-91.5 -54 -157.5 -54h-178zM160 320v-250h86c56.667 0 97.667 12.333 123 37c23.333 22 35 53.667 35 95c0 48 -18 81.667 -54 101c-20.667 11.333 -58 17 -112 17h-78zM550 667
h74v-667h-74v667z" />
    <glyph glyph-name="afii10046" unicode="&#x42c;" horiz-adv-x="522" 
d="M86 0v667h74v-277h90c153.333 0 230 -62.667 230 -188c0 -62.667 -19.5 -112 -58.5 -148s-91.5 -54 -157.5 -54h-178zM160 320v-250h86c56.667 0 97.667 12.333 123 37c23.333 22 35 53.667 35 95c0 48 -18 81.667 -54 101c-20.667 11.333 -58 17 -112 17h-78z" />
    <glyph glyph-name="afii10047" unicode="&#x42d;" horiz-adv-x="645" 
d="M50 520l0.00292969 92c64 44 136.333 66 217 66c99.333 0 178.833 -32.5 238.5 -97.5s89.5 -148.167 89.5 -249.5c0 -99.333 -29.333 -181.333 -88 -246s-137.334 -97 -236.001 -97c-80 0 -153.667 21.667 -221 65v92c20 -20.667 45.667 -38.667 77 -54
c46 -22 94 -33 144 -33c67.333 0 125.666 23.667 174.999 71s73.666 107.666 72.999 180.999h-389v70h386c-5.33301 64.667 -30.5 118.834 -75.5 162.501s-101.167 65.5 -168.5 65.5c-47.333 0 -92.333 -9.33301 -135 -28c-34 -16 -63 -36 -87 -60z" />
    <glyph glyph-name="afii10048" unicode="&#x42e;" horiz-adv-x="990" 
d="M160 389h101.999c12 83.333 49.167 152.333 111.5 207s137.5 82 225.5 82c98.667 0 180.167 -32.333 244.5 -97s96.5 -147.334 96.5 -248.001c0 -99.333 -32.333 -181.666 -97 -246.999s-146 -98 -244 -98c-96.667 0 -176.667 32.333 -240 97
s-96.666 142.667 -99.999 234h-99v-319h-74v667h74v-278zM598.999 608c-74 0 -136.5 -26.333 -187.5 -79s-76.5 -118 -76.5 -196s25.5 -143.333 76.5 -196s113.5 -79 187.5 -79s136.667 26.333 188 79s77 118 77 196s-25.667 143.333 -77 196s-114 79 -188 79z" />
    <glyph glyph-name="afii10049" unicode="&#x42f;" horiz-adv-x="510" 
d="M30 0l195.999 296.001c-45.333 4.66699 -82.666 18.667 -111.999 42c-38.667 31.333 -58 76.666 -58 135.999c0 54.667 15.333 99 46 133c36 40 91.333 60 166 60h156v-667h-74v292h-40l-190 -292h-90zM349.999 597.001l-72 0.000976562
c-53.333 0 -91.333 -11.667 -114 -35c-21.333 -22.667 -32 -51.334 -32 -86.001c0 -39.333 12.667 -69.333 38 -90c24 -18.667 58 -28 102 -28h78v239z" />
    <glyph glyph-name="afii10065" unicode="&#x430;" horiz-adv-x="526" 
d="M386 356v59h72v-415h-72v58c-36 -46.667 -83.333 -70 -142 -70c-56 0 -103.667 19.333 -143 58s-59 92.667 -59 162c0 68 19.5 121.167 58.5 159.5s86.833 57.5 143.5 57.5c60 0 107.333 -23 142 -69zM252 361c-38 0 -70.167 -13.5 -96.5 -40.5s-39.5 -64.5 -39.5 -112.5
c0 -46 12.167 -83.5 36.5 -112.5s57.5 -43.5 99.5 -43.5s75.5 15 100.5 45s37.5 66.667 37.5 110c0 49.333 -14 87.333 -42 114s-60 40 -96 40z" />
    <glyph glyph-name="afii10066" unicode="&#x431;" horiz-adv-x="524" 
d="M388 700h79.999c-7.33301 -24.667 -19.833 -45.5 -37.5 -62.5s-33.667 -28.5 -48 -34.5s-31.166 -11.333 -50.499 -16c-3.33301 -0.666992 -11.333 -2.5 -24 -5.5s-22.334 -5.5 -29.001 -7.5l-26 -8c-10.667 -3.33301 -20.334 -7.33301 -29.001 -12
s-16.667 -9.66699 -24 -15c-25.333 -19.333 -45.833 -46.166 -61.5 -80.499s-24.167 -70.833 -25.5 -109.5h2c30 50.667 80.333 76 151 76c62 0 113.5 -21 154.5 -63s61.5 -94 61.5 -156c0 -62.667 -21 -114.667 -63 -156s-96.667 -62 -164 -62
c-58 0 -105.667 17.333 -143 52c-46.667 42.667 -70 114 -70 214c0 174 39.333 288 118 342c6 4 12.333 7.83301 19 11.5s13.834 7 21.501 10s14.167 5.66699 19.5 8s12.833 4.66602 22.5 6.99902s16.334 4 20.001 5s11 2.66699 22 5s17.833 3.83301 20.5 4.5
c26.667 6 46 13.167 58 21.5s20.333 18.833 25 31.5zM261.999 361c-40.667 0 -75.167 -13.833 -103.5 -41.5s-42.5 -65.5 -42.5 -113.5s14.333 -85.667 43 -113s63 -41 103 -41s74.333 13.667 103 41s43 65 43 113c0 48.667 -14.167 86.667 -42.5 114s-62.833 41 -103.5 41z
" />
    <glyph glyph-name="afii10067" unicode="&#x432;" horiz-adv-x="430" 
d="M68 415l157.001 -0.000976562c38 0 67 -8 87 -24c24 -19.333 36 -45.333 36 -78c0 -36 -15 -63.667 -45 -83c20.667 -5.33301 38 -14.666 52 -27.999c22 -21.333 33 -48 33 -80c0 -40 -14.333 -71.333 -43 -94c-24.667 -18.667 -57.334 -28 -98.001 -28h-179v415z
M140.001 245.999h76.001c19.333 0 34.666 4 45.999 12c13.333 10 20 24.333 20 43c0 16.667 -6.66699 30 -20 40c-10 6.66699 -29.333 10 -58 10h-64v-105zM140.002 63.999h89c30.667 0 52.334 4.66699 65.001 14c16 12 24 27.333 24 46c0 20 -7 35.667 -21 47
c-12.667 10 -34.334 15 -65.001 15h-92v-122z" />
    <glyph glyph-name="afii10068" unicode="&#x433;" horiz-adv-x="318" 
d="M68 0v415h246v-66h-174v-349h-72z" />
    <glyph glyph-name="afii10069" unicode="&#x434;" horiz-adv-x="460" 
d="M98 415h291.999v-349h62v-176h-66v110h-316v-110h-66v176c34.667 0.666992 60.334 18.667 77.001 54c11.333 23.333 17 60 17 110v185zM317.999 66v282.999h-148v-156c0 -55.333 -16.667 -97.666 -50 -126.999h198z" />
    <glyph glyph-name="afii10070" unicode="&#x435;" horiz-adv-x="481" 
d="M376 139l60.002 -33c-14 -26.667 -31 -49 -51 -67c-38 -34 -84 -51 -138 -51c-56 0 -104.167 18.167 -144.5 54.5s-60.5 90.5 -60.5 162.5c0 63.333 18.167 115.833 54.5 157.5s85.166 62.5 146.499 62.5c69.333 0 121.666 -25.333 156.999 -76c28 -40 41 -92 39 -156
h-323c0.666992 -42 13.667 -76 39 -102s56.333 -39 93 -39c32.667 0 61 10 85 30c18.667 16 33 35 43 57zM121.002 253l244 -0.00195312c-6 32.667 -20.167 58.834 -42.5 78.501s-48.833 29.5 -79.5 29.5c-30 0 -56.5 -10.167 -79.5 -30.5s-37.167 -46.166 -42.5 -77.499z
" />
    <glyph glyph-name="afii10072" unicode="&#x436;" horiz-adv-x="596" 
d="M262 415h72v-170l156 170h84l-180 -192l198 -223h-90l-154 175l-14 -14v-161h-72v161l-14 14l-154 -175h-90l198 223l-180 192h84l156 -170v170z" />
    <glyph glyph-name="afii10073" unicode="&#x437;" horiz-adv-x="422" 
d="M122 309l-50 41.002c16 23.333 33.667 40.666 53 51.999c26 15.333 56.333 23 91 23c42 0 74.667 -9.66699 98 -29c24 -20.667 36 -47 36 -79c0 -38.667 -15.667 -67.667 -47 -87c20 -4.66699 36 -13.667 48 -27c19.333 -20.667 29 -46 29 -76
c0 -44.667 -18 -80.334 -54 -107.001c-29.333 -21.333 -68.666 -32 -117.999 -32c-44 0 -81 11.667 -111 35c-22.667 16.667 -41 40.334 -55 71.001l62 26c7.33301 -18.667 19.666 -34.334 36.999 -47.001c18.667 -14 41.334 -21 68.001 -21
c31.333 0 54.666 5.33301 69.999 16c19.333 12.667 29 32 29 58c0 21.333 -8.33301 37.333 -25 48c-14 9.33301 -36.667 14 -68 14h-42v66h35c25.333 0 43.333 3.66699 54 11c14.667 9.33301 22 22 22 38c0 18.667 -6 33 -18 43c-11.333 10 -29 15 -53 15
c-20.667 0 -39.667 -5.33301 -57 -16c-14.667 -9.33301 -26 -21.333 -34 -36z" />
    <glyph glyph-name="afii10074" unicode="&#x438;" horiz-adv-x="492" 
d="M68 415h72v-274l284 306v-447h-72v277l-284 -306v444z" />
    <glyph glyph-name="afii10075" unicode="&#x439;" horiz-adv-x="492" 
d="M68 415h72v-274l284 306v-447h-72v277l-284 -306v444zM104 594l60.0039 23c12 -40 40.333 -60 85 -60s73 20 85 60l60 -23c-10.667 -30 -28.834 -53.667 -54.501 -71s-55.834 -26 -90.501 -26s-64.834 8.66699 -90.501 26s-43.834 41 -54.501 71z" />
    <glyph glyph-name="afii10076" unicode="&#x43a;" horiz-adv-x="422" 
d="M68 415h72v-170l168 170h88l-180 -185l202 -230h-94l-162 182l-22 -21v-161h-72v415z" />
    <glyph glyph-name="afii10077" unicode="&#x43b;" horiz-adv-x="450" 
d="M382 415v-415.001h-72v349h-148v-187c0 -54 -10.667 -94 -32 -120c-24 -29.333 -57.333 -44 -100 -44c-5.33301 0 -12.666 0.666992 -21.999 2v66c6.66699 -1.33301 12 -2 16 -2c23.333 0 40.666 9 51.999 27c9.33301 14.667 14 38.334 14 71.001v253h292z" />
    <glyph glyph-name="afii10078" unicode="&#x43c;" horiz-adv-x="580" 
d="M20 0l100 447l172 -338l168 338l100 -447h-74l-55 257l-141 -286l-143 286l-53 -257h-74z" />
    <glyph glyph-name="afii10079" unicode="&#x43d;" horiz-adv-x="476" 
d="M68 0v415h72v-170h196v170h72v-415h-72v179h-196v-179h-72z" />
    <glyph glyph-name="afii10080" unicode="&#x43e;" horiz-adv-x="524" 
d="M262 -12c-63.333 0 -115.833 20.667 -157.5 62s-62.5 93.333 -62.5 156c0 63.333 20.833 115.666 62.5 156.999s94.167 62 157.5 62s115.833 -20.667 157.5 -62s62.5 -93.666 62.5 -156.999c0 -62.667 -20.833 -114.667 -62.5 -156s-94.167 -62 -157.5 -62zM262 361
c-40.667 0 -75.167 -13.833 -103.5 -41.5s-42.5 -65.5 -42.5 -113.5s14.333 -85.667 43 -113s63 -41 103 -41s74.333 13.667 103 41s43 65 43 113c0 48.667 -14.167 86.667 -42.5 114s-62.833 41 -103.5 41z" />
    <glyph glyph-name="afii10081" unicode="&#x43f;" horiz-adv-x="470" 
d="M68 415h334v-415h-72v349h-190v-349h-72v415z" />
    <glyph glyph-name="afii10082" unicode="&#x440;" horiz-adv-x="526" 
d="M140 58v-288h-72v645h72v-58c36.667 45.333 84 68 142 68c62 0 111.167 -21.833 147.5 -65.5s54.5 -95.167 54.5 -154.5c0 -60 -18 -111.167 -54 -153.5s-84.333 -63.5 -145 -63.5s-109 23.333 -145 70zM275 52c40.667 0 73.333 14.832 98 44.499s37 65.834 37 108.501
c0 48 -13.667 86 -41 114s-59 42 -95 42s-68 -14 -96 -42s-42 -65.667 -42 -113c0 -43.333 12.833 -79.833 38.5 -109.5s59.167 -44.5 100.5 -44.5z" />
    <glyph glyph-name="afii10083" unicode="&#x441;" horiz-adv-x="438" 
d="M393 385l0.00195312 -86c-32.667 41.333 -76 62 -130 62c-40.667 0 -75.334 -13.833 -104.001 -41.5s-43 -65.5 -43 -113.5s14.333 -85.667 43 -113s63 -41 103 -41c53.333 0 98 21.667 134 65v-86c-39.333 -28.667 -83.333 -43 -132 -43
c-64.667 0 -117.834 20.5 -159.501 61.5s-62.5 92.833 -62.5 155.5c0 63.333 21 115.833 63 157.5s95 62.5 159 62.5c48 0 91 -13.333 129 -40z" />
    <glyph glyph-name="afii10084" unicode="&#x442;" horiz-adv-x="348" 
d="M340 349h-130v-349h-72v349h-130v66h332v-66z" />
    <glyph glyph-name="afii10085" unicode="&#x443;" horiz-adv-x="460" 
d="M67 -230l132 269l-191 376h82l147 -297l135 297h80l-305 -645h-80z" />
    <glyph glyph-name="afii10086" unicode="&#x444;" horiz-adv-x="650" 
d="M289 -230l-0.00195312 223c-72.667 0 -131 18 -175 54c-48 38.667 -72 92.334 -72 161.001c0 68 23.667 121.333 71 160c42.667 36 101.334 54 176.001 54v245h72v-245c74.667 0 133.334 -18 176.001 -54c47.333 -38.667 71 -92 71 -160
c0 -68.667 -24 -122.334 -72 -161.001c-44 -36 -102.333 -54 -175 -54v-223h-72zM288.998 57v300.999c-47.333 0 -84.333 -8.66699 -111 -26c-41.333 -26 -62 -67.333 -62 -124c0 -53.333 19.333 -93.666 58 -120.999c28 -20 66.333 -30 115 -30zM360.998 357.999v-300.999
c48.667 0 87 10 115 30c38.667 27.333 58 67.666 58 120.999c0 56.667 -20.667 98 -62 124c-26.667 17.333 -63.667 26 -111 26z" />
    <glyph glyph-name="afii10087" unicode="&#x445;" horiz-adv-x="454" 
d="M8 0l177 222l-151 193h88l107 -141l109 141h88l-152 -194l172 -221h-88l-131 169l-131 -169h-88z" />
    <glyph glyph-name="afii10088" unicode="&#x446;" horiz-adv-x="474" 
d="M68 0v415h72v-349h186v349h72v-349h68v-176h-66v110h-332z" />
    <glyph glyph-name="afii10089" unicode="&#x447;" horiz-adv-x="430" 
d="M290 0v163c-39.333 -6 -72 -9 -98 -9c-45.333 0 -79 10 -101 30c-23.333 20.667 -35 54.667 -35 102v129h72v-119c0 -22.667 3 -39 9 -49c9.33301 -18 30.333 -27 63 -27c29.333 0 59.333 3 90 9v186h72v-415h-72z" />
    <glyph glyph-name="afii10090" unicode="&#x448;" horiz-adv-x="672" 
d="M68 0v415h72v-349h160v349h72v-349h160v349h72v-415h-536z" />
    <glyph glyph-name="afii10091" unicode="&#x449;" horiz-adv-x="680" 
d="M68 0v415h72v-349h160v349h72v-349h160v349h72v-349h68v-176h-66v110h-538z" />
    <glyph glyph-name="afii10092" unicode="&#x44a;" horiz-adv-x="430" 
d="M98 0l0.000976562 349h-90v66h162v-159h74c57.333 0 99.333 -13.667 126 -41c21.333 -21.333 32 -50.333 32 -87c0 -38.667 -12.333 -69.667 -37 -93s-65.334 -35 -122.001 -35h-145zM170.001 64h67c30 0 51.333 3.66699 64 11c18 12 27 29.667 27 53
c0 24 -8.66699 41.333 -26 52c-12 8 -33.333 12 -64 12h-68v-128z" />
    <glyph glyph-name="afii10093" unicode="&#x44b;" horiz-adv-x="562" 
d="M68 0l0.000976562 415h72v-159h74c57.333 0 99.333 -13.667 126 -41c21.333 -21.333 32 -50.333 32 -87c0 -38.667 -12.333 -69.667 -37 -93s-65.334 -35 -122.001 -35h-145zM140.001 64h67c30 0 51.333 3.66699 64 11c18 12 27 29.667 27 53
c0 24 -8.66699 41.333 -26 52c-12 8 -33.333 12 -64 12h-68v-128zM422.001 0v415h72v-415h-72z" />
    <glyph glyph-name="afii10094" unicode="&#x44c;" horiz-adv-x="400" 
d="M68 0l0.000976562 415h72v-159h74c57.333 0 99.333 -13.667 126 -41c21.333 -21.333 32 -50.333 32 -87c0 -38.667 -12.333 -69.667 -37 -93s-65.334 -35 -122.001 -35h-145zM140.001 64h67c30 0 51.333 3.66699 64 11c18 12 27 29.667 27 53
c0 24 -8.66699 41.333 -26 52c-12 8 -33.333 12 -64 12h-68v-128z" />
    <glyph glyph-name="afii10095" unicode="&#x44d;" horiz-adv-x="423" 
d="M42 334l-0.000976562 69.999c34.667 14 72.334 21 113.001 21c70 0 125.167 -20.333 165.5 -61s60.5 -93.667 60.5 -159c0 -63.333 -20.5 -115.333 -61.5 -156s-94.167 -61 -159.5 -61c-41.333 0 -80.666 7.66699 -117.999 23v70c36.667 -19.333 75.667 -29 117 -29
c38.667 0 72 11.833 100 35.5s44 54.5 48 92.5h-219v64h219c-8 36.667 -25.667 65.334 -53 86.001s-59.333 31 -96 31c-38.667 0 -77.334 -9 -116.001 -27z" />
    <glyph glyph-name="afii10096" unicode="&#x44e;" horiz-adv-x="690" 
d="M140 245l75 -0.000976562c6.66699 46.667 25.334 86 56.001 118c39.333 41.333 91.666 62 156.999 62c64 0 116.667 -20.667 158 -62s62 -93.666 62 -156.999c0 -62.667 -20.833 -114.667 -62.5 -156s-94.167 -62 -157.5 -62c-72.667 0 -129.667 26 -171 78
c-26.667 33.333 -42 71 -46 113h-71v-179h-72v415h72v-170zM428 360.999c-40 0 -73.833 -13.833 -101.5 -41.5s-41.5 -65.5 -41.5 -113.5c0 -48.667 14 -86.5 42 -113.5s61.667 -40.5 101 -40.5c40 0 74.333 13.667 103 41s43 65 43 113s-14.167 85.833 -42.5 113.5
s-62.833 41.5 -103.5 41.5z" />
    <glyph glyph-name="afii10097" unicode="&#x44f;" horiz-adv-x="408" 
d="M20 0l128.999 171c-4 0 -9.5 0.666992 -16.5 2s-17.167 4.66602 -30.5 9.99902s-24.333 12.333 -33 21c-22 20.667 -33 48.334 -33 83.001c0 39.333 12.333 70.333 37 93c24.667 23.333 65.334 35 122.001 35h145v-415h-72v167h-44l-118 -167h-86zM267.999 227v124.001
h-67c-31.333 0 -53 -3.66699 -65 -11c-17.333 -11.333 -26 -28.333 -26 -51s8.66699 -39.334 26 -50.001c12.667 -8 34 -12 64 -12h68z" />
    <glyph glyph-name="afii10071" unicode="&#x451;" horiz-adv-x="481" 
d="M376 139l60.002 -33c-14 -26.667 -31 -49 -51 -67c-38 -34 -84 -51 -138 -51c-56 0 -104.167 18.167 -144.5 54.5s-60.5 90.5 -60.5 162.5c0 63.333 18.167 115.833 54.5 157.5s85.166 62.5 146.499 62.5c69.333 0 121.666 -25.333 156.999 -76c28 -40 41 -92 39 -156
h-323c0.666992 -42 13.667 -76 39 -102s56.333 -39 93 -39c32.667 0 61 10 85 30c18.667 16 33 35 43 57zM121.002 253l244 -0.00195312c-6 32.667 -20.167 58.834 -42.5 78.501s-48.833 29.5 -79.5 29.5c-30 0 -56.5 -10.167 -79.5 -30.5s-37.167 -46.166 -42.5 -77.499z
M110.002 549.998c0 13.333 5 25 15 35s21.667 15 35 15s25 -5 35 -15s15 -21.667 15 -35s-5 -25 -15 -35s-21.667 -15 -35 -15s-25 5 -35 15s-15 21.667 -15 35zM284.002 549.998c0 13.333 5 25 15 35s21.667 15 35 15s25 -5 35 -15s15 -21.667 15 -35s-5 -25 -15 -35
s-21.667 -15 -35 -15s-25 5 -35 15s-15 21.667 -15 35z" />
    <glyph glyph-name="afii10099" unicode="&#x452;" horiz-adv-x="470" 
d="M68 0v513.999h-68v60h68v155h72v-155h200v-60h-200v-187c29.333 38.667 69 58 119 58c53.333 0 93 -19 119 -57c16 -23.333 24 -60.333 24 -111v-303c0 -50 -10.667 -86.333 -32 -109c-22.667 -23.333 -53 -35 -91 -35c-18 0 -35 3 -51 9v70
c16.667 -6 32.334 -9 47.001 -9c21.333 0 36.666 7.33301 45.999 22c6 10 9 30 9 60v293c0 34 -6.33301 59.333 -19 76c-15.333 20 -38 30 -68 30c-30.667 0 -55 -10.667 -73 -32c-20 -23.333 -30 -60.666 -30 -111.999v-177h-72z" />
    <glyph glyph-name="afii10100" unicode="&#x453;" horiz-adv-x="318" 
d="M68 0v415h246v-66h-174v-349h-72zM252 666l74 -34l-134 -135l-45 24z" />
    <glyph glyph-name="afii10101" unicode="&#x454;" horiz-adv-x="438" 
d="M393 385l0.00195312 -86c-34.667 41.333 -78 62 -130 62c-34 0 -64.833 -10.5 -92.5 -31.5s-44.834 -49.5 -51.501 -85.5h217v-64h-218c4.66699 -38 20.667 -68.833 48 -92.5s59.333 -35.5 96 -35.5c53.333 0 98 21.667 134 65v-86c-39.333 -28.667 -83.333 -43 -132 -43
c-64.667 0 -117.834 20.5 -159.501 61.5s-62.5 92.833 -62.5 155.5c0 63.333 21 115.833 63 157.5s95 62.5 159 62.5c48 0 91 -13.333 129 -40z" />
    <glyph glyph-name="afii10102" unicode="&#x455;" horiz-adv-x="352" 
d="M298 350l-59.0029 -30.9971c-11.333 28 -30.666 42 -57.999 42c-14 0 -25.833 -4 -35.5 -12s-14.5 -19.667 -14.5 -35c0 -14 4.5 -24.5 13.5 -31.5s26.833 -16.167 53.5 -27.5c52.667 -22 87.334 -43.333 104.001 -64c14.667 -18 22 -40.333 22 -67
c0 -42 -13.5 -75.167 -40.5 -99.5s-61.167 -36.5 -102.5 -36.5c-8 0 -16.667 0.833008 -26 2.5s-22.166 5.33398 -38.499 11.001s-31.833 16.5 -46.5 32.5s-26 36 -34 60l62 26c16.667 -45.333 44.667 -68 84 -68c22 0 38.833 6.66699 50.5 20s17.5 28.666 17.5 45.999
c0 9.33301 -1.5 17.5 -4.5 24.5s-8 13.167 -15 18.5s-13.667 9.66602 -20 12.999s-15.5 7.66602 -27.5 12.999c-53.333 23.333 -87 43.666 -101 60.999c-12.667 16 -19 36.333 -19 61c0 36 11.167 64.333 33.5 85s51.5 31 87.5 31c52.667 0 90.667 -25 114 -75z" />
    <glyph glyph-name="afii10103" unicode="&#x456;" horiz-adv-x="208" 
d="M68 415h72v-415h-72v415zM53 572c0 14 5 26 15 36s22 15 36 15s26 -5 36 -15s15 -22 15 -36s-5 -26 -15 -36s-22 -15 -36 -15s-26 5 -36 15s-15 22 -15 36z" />
    <glyph glyph-name="afii10104" unicode="&#x457;" horiz-adv-x="208" 
d="M68 415h72v-415h-72v415zM9 573c0 13.333 4.16699 25 12.5 35s18.166 15 29.499 15s21.166 -5 29.499 -15s12.5 -21.667 12.5 -35s-4.16699 -25 -12.5 -35s-18.166 -15 -29.499 -15s-21.166 5 -29.499 15s-12.5 21.667 -12.5 35zM115 573c0 13.333 4.16699 25 12.5 35
s18.166 15 29.499 15s21.166 -5 29.499 -15s12.5 -21.667 12.5 -35s-4.16699 -25 -12.5 -35s-18.166 -15 -29.499 -15s-21.166 5 -29.499 15s-12.5 21.667 -12.5 35z" />
    <glyph glyph-name="afii10105" unicode="&#x458;" horiz-adv-x="208" 
d="M68 415h72v-645h-72v645zM53 572c0 14 5 26 15 36s22 15 36 15s26 -5 36 -15s15 -22 15 -36s-5 -26 -15 -36s-22 -15 -36 -15s-26 5 -36 15s-15 22 -15 36z" />
    <glyph glyph-name="afii10106" unicode="&#x459;" horiz-adv-x="642" 
d="M382 415l0.000976562 -159.001h74c57.333 0 99.333 -13.667 126 -41c21.333 -21.333 32 -50.333 32 -87c0 -38.667 -12.333 -69.667 -37 -93s-65.334 -35 -122.001 -35h-145v349h-148v-187c0 -54 -10.667 -94 -32 -120c-24 -29.333 -57.333 -44 -100 -44
c-5.33301 0 -12.666 0.666992 -21.999 2v66c6.66699 -1.33301 12 -2 16 -2c23.333 0 40.666 9 51.999 27c9.33301 14.667 14 38.334 14 71.001v253h292zM382.001 63.999h67c30 0 51.333 3.66699 64 11c18 12 27 29.667 27 53c0 24 -8.66699 41.333 -26 52
c-12 8 -33.333 12 -64 12h-68v-128z" />
    <glyph glyph-name="afii10107" unicode="&#x45a;" horiz-adv-x="668" 
d="M68 0l0.000976562 415h72v-157h196v157h72v-159h74c57.333 0 99.333 -13.667 126 -41c21.333 -21.333 32 -50.333 32 -87c0 -38.667 -12.333 -69.667 -37 -93s-65.334 -35 -122.001 -35h-145v192h-196v-192h-72zM408.001 64h67c30 0 51.333 3.66699 64 11
c18 12 27 29.667 27 53c0 24 -8.66699 41.333 -26 52c-12 8 -33.333 12 -64 12h-68v-128z" />
    <glyph glyph-name="afii10108" unicode="&#x45b;" horiz-adv-x="470" 
d="M68 0v513.999h-68v60h68v155h72v-155h200v-60h-200v-187c29.333 38.667 69 58 119 58c53.333 0 93 -19 119 -57c16 -23.333 24 -60.333 24 -111v-217h-72v215c0 34 -6.33301 59.333 -19 76c-15.333 20 -38 30 -68 30c-30.667 0 -55 -10.667 -73 -32
c-20 -23.333 -30 -60.666 -30 -111.999v-177h-72z" />
    <glyph glyph-name="afii10109" unicode="&#x45c;" horiz-adv-x="422" 
d="M68 415h72v-170l168 170h88l-180 -185l202 -230h-94l-162 182l-22 -21v-161h-72v415zM273 666l74 -34l-134 -135l-45 24z" />
    <glyph glyph-name="afii10110" unicode="&#x45e;" horiz-adv-x="460" 
d="M67 -230l132 269l-191 376h82l147 -297l135 297h80l-305 -645h-80zM95 594l60.0039 23c12 -40 40.333 -60 85 -60s73 20 85 60l60 -23c-10.667 -30 -28.834 -53.667 -54.501 -71s-55.834 -26 -90.501 -26s-64.834 8.66699 -90.501 26s-43.834 41 -54.501 71z" />
    <glyph glyph-name="afii10193" unicode="&#x45f;" horiz-adv-x="466" 
d="M68 0v415h72v-349h186v349h72v-415h-132v-120h-66v120h-132z" />
    <glyph glyph-name="afii10146" unicode="&#x462;" horiz-adv-x="610" 
d="M174 0v517h-160v70h160v107h74v-107h180v-70h-180v-127h90c153.333 0 230 -62.667 230 -188c0 -62.667 -19.5 -112 -58.5 -148s-91.5 -54 -157.5 -54h-178zM248 320v-250h86c56.667 0 97.667 12.333 123 37c23.333 22 35 53.667 35 95c0 48 -18 81.667 -54 101
c-20.667 11.333 -58 17 -112 17h-78z" />
    <glyph glyph-name="afii10194" unicode="&#x463;" horiz-adv-x="430" 
d="M8 415h90.001v252h72v-252h120v-66h-120v-93h74c57.333 0 99.333 -13.667 126 -41c21.333 -21.333 32 -50.333 32 -87c0 -38.667 -12.333 -69.667 -37 -93s-65.334 -35 -122.001 -35h-145v349h-90v66zM170.001 64h67c30 0 51.333 3.66699 64 11c18 12 27 29.667 27 53
c0 24 -8.66699 41.333 -26 52c-12 8 -33.333 12 -64 12h-68v-128z" />
    <glyph glyph-name="afii10147" unicode="&#x472;" horiz-adv-x="792" 
d="M396 -12c-96.667 0 -178.5 33 -245.5 99s-100.5 148 -100.5 246c0 98.667 33.5 180.834 100.5 246.501s148.833 98.5 245.5 98.5s178.5 -32.833 245.5 -98.5s100.5 -147.834 100.5 -246.501c0 -98 -33.5 -180 -100.5 -246s-148.833 -99 -245.5 -99zM129 380h534
c-12 70.667 -44 126.334 -96 167.001s-109 61 -171 61s-119 -20.333 -171 -61s-84 -96.334 -96 -167.001zM666 310h-540c6.66699 -74.667 36.167 -135.334 88.5 -182.001s112.833 -70 181.5 -70s129.167 23.333 181.5 70s81.833 107.334 88.5 182.001z" />
    <glyph glyph-name="afii10195" unicode="&#x473;" horiz-adv-x="524" 
d="M262 -12c-63.333 0 -115.833 20.667 -157.5 62s-62.5 93.333 -62.5 156c0 63.333 20.833 115.666 62.5 156.999s94.167 62 157.5 62s115.833 -20.667 157.5 -62s62.5 -93.666 62.5 -156.999c0 -62.667 -20.833 -114.667 -62.5 -156s-94.167 -62 -157.5 -62zM120 244h284
c-6.66699 36.667 -23.5 65.334 -50.5 86.001s-57.5 31 -91.5 31s-64.5 -10.333 -91.5 -31s-43.833 -49.334 -50.5 -86.001zM406 180h-288.001c3.33301 -38 19 -68.833 47 -92.5s60.333 -35.5 97 -35.5s68.834 11.833 96.501 35.5s43.5 54.5 47.5 92.5z" />
    <glyph glyph-name="afii10148" unicode="&#x474;" horiz-adv-x="556" 
d="M8 667h82l188 -509l188 509h82l-270 -707z" />
    <glyph glyph-name="afii10196" unicode="&#x475;" horiz-adv-x="424" 
d="M8 415h80l124 -280l124 280h80l-204 -442z" />
    <glyph glyph-name="afii10050" unicode="&#x490;" horiz-adv-x="404" 
d="M86 0v667h234v140h70v-210h-230v-597h-74z" />
    <glyph glyph-name="afii10098" unicode="&#x491;" horiz-adv-x="328" 
d="M68 0v415h180v110h66v-176h-174v-349h-72z" />
    <glyph glyph-name="uni0492" unicode="&#x492;" horiz-adv-x="404" 
d="M86 0v334h-86v66h86v267h304v-70h-230v-197h136v-66h-136v-334h-74z" />
    <glyph glyph-name="uni0493" unicode="&#x493;" horiz-adv-x="318" 
d="M68 0v188h-68v60h68v167h246v-66h-174v-101h100v-60h-100v-188h-72z" />
    <glyph glyph-name="uni0494" unicode="&#x494;" horiz-adv-x="558" 
d="M402 597l-241.998 -0.000976562v-212c47.333 15.333 93 23 137 23c80 0 138.333 -22.333 175 -67c29.333 -36 44 -85 44 -147c0 -74.667 -23.333 -129 -70 -163c-32.667 -24.667 -77.334 -37 -134.001 -37c-18.667 0 -41.334 2 -68.001 6v70c18.667 -4 39.667 -6 63 -6
c40.667 0 71.667 9 93 27c26.667 22.667 40 57.334 40 104.001c0 42 -9.33301 74.333 -28 97c-26 30.667 -66.667 46 -122 46c-42.667 0 -86 -7.66699 -130 -23v-315h-74v667h316v-70z" />
    <glyph glyph-name="uni0495" unicode="&#x495;" horiz-adv-x="430" 
d="M68 0v415h246v-66h-174v-113h30c73.333 0 129 -19 167 -57c34 -35.333 51 -81.666 51 -138.999c0 -72.667 -26.333 -133.334 -79 -182.001c-41.333 -38 -90 -60 -146 -66v70c36 4.66699 68 20.667 96 48c35.333 33.333 53 77 53 131c0 44 -13 77 -39 99
c-22.667 20 -57 30 -103 30h-30v-170h-72z" />
    <glyph glyph-name="uni0496" unicode="&#x496;" horiz-adv-x="810" 
d="M368 667h74v-286l254 286h92l-280 -311l231 -286h57v-210h-70v140h-24l-244 305l-16 -18v-287h-74v287l-16 18l-244 -305h-94l288 356l-280 311h92l254 -286v286z" />
    <glyph glyph-name="uni0497" unicode="&#x497;" horiz-adv-x="596" 
d="M262 415h72v-170l156 170h84l-180 -192l140 -157h58v-176h-66v110h-24l-154 175l-14 -14v-161h-72v161l-14 14l-154 -175h-90l198 223l-180 192h84l156 -170v170z" />
    <glyph glyph-name="uni0498" unicode="&#x498;" horiz-adv-x="576" 
d="M157 536l-57.001 45.001c21.333 31.333 47.333 55.333 78 72s67 25 109 25c64 0 113.667 -17 149 -51c32 -30.667 48 -70 48 -118c0 -34 -9 -63.667 -27 -89c-18 -24 -39.667 -41.667 -65 -53c34.667 -8 63.667 -23.667 87 -47c31.333 -31.333 47 -72 47 -122
c0 -56 -18.667 -103.667 -56 -143c-38 -39.333 -85.333 -61 -142 -65v-150h-70v150c-51.333 4.66699 -96.333 23.667 -135 57c-32 27.333 -56.333 61 -73 101l72 32c10.667 -30 26.334 -54.333 47.001 -73c33.333 -32.667 76 -49 128 -49c48.667 0 87 13.333 115 40
c25.333 25.333 38 58.333 38 99c0 36.667 -12 66 -36 88c-28 26 -75.333 39 -142 39h-60v70h60c44 0 77.667 10.333 101 31c23.333 19.333 35 46.666 35 81.999c0 28.667 -9 52 -27 70c-20.667 20.667 -50.667 31 -90 31c-34.667 0 -64 -8.33301 -88 -25
c-18.667 -13.333 -34 -29 -46 -47z" />
    <glyph glyph-name="uni0499" unicode="&#x499;" horiz-adv-x="422" 
d="M122 309l-50.002 41c16 23.333 33.667 40.666 53 51.999c24.667 15.333 56.334 23 95.001 23c39.333 0 70.666 -9.66699 93.999 -29c24 -20 36 -47 36 -81c0 -20.667 -4.66699 -38.667 -14 -54c-7.33301 -12.667 -18.333 -23 -33 -31
c18.667 -4.66699 34.667 -13.667 48 -27c19.333 -19.333 29 -45 29 -77c0 -34.667 -12.667 -65.334 -38 -92.001c-26 -27.333 -57.667 -42 -95 -44v-110h-66v110c-30.667 2.66699 -58.667 13.667 -84 33c-21.333 16.667 -39.666 40.334 -54.999 71.001l62 26
c9.33301 -20 21.666 -35.667 36.999 -47c18.667 -14 41.334 -21 68.001 -21c28.667 0 51.334 5 68.001 15c20.667 12.667 31 32.334 31 59.001c0 20.667 -8.33301 36.667 -25 48c-14.667 9.33301 -37.334 14 -68.001 14h-42v66h35c24 0 42 3.66699 54 11
c14.667 10 22 23 22 39c0 17.333 -6 31.333 -18 42c-12 10 -30.667 15 -56 15c-20.667 0 -38.667 -5.33301 -54 -16s-26.666 -22.667 -33.999 -36z" />
    <glyph glyph-name="uni049A" unicode="&#x49a;" horiz-adv-x="568" 
d="M86 667h74v-286l284 286h100l-312 -311l259 -286h63v-210h-70v140h-32l-273 306l-19 -19v-287h-74v667z" />
    <glyph glyph-name="uni049B" unicode="&#x49b;" horiz-adv-x="422" 
d="M68 415h72v-170l168 170h88l-180 -185l144 -164h58v-176h-66v110h-28l-162 182l-22 -21v-161h-72v415z" />
    <glyph glyph-name="uni049C" unicode="&#x49c;" horiz-adv-x="644" 
d="M86 667h74v-291h80v140h66v-140l233 291h82l-255 -315l264 -352h-88l-236 310v-150h-66v150h-80v-310h-74v667z" />
    <glyph glyph-name="uni049D" unicode="&#x49d;" horiz-adv-x="450" 
d="M68 415h72v-170h50v100h60v-100l109 170h78l-131 -199l140 -216h-80l-116 185v-110h-60v110h-50v-185h-72v415z" />
    <glyph glyph-name="uni04A0" unicode="&#x4a0;" horiz-adv-x="656" 
d="M174 0v597h-160v70h234v-286l284 286h100l-312 -311l322 -356h-102l-273 306l-19 -19v-287h-74z" />
    <glyph glyph-name="uni04A1" unicode="&#x4a1;" horiz-adv-x="452" 
d="M98 0v349h-90v66h162v-170l168 170h88l-180 -185l202 -230h-94l-162 182l-22 -21v-161h-72z" />
    <glyph glyph-name="uni04A2" unicode="&#x4a2;" horiz-adv-x="666" 
d="M86 0v667h74v-271h342v271h74v-597h76v-210h-70v140h-80v326h-342v-326h-74z" />
    <glyph glyph-name="uni04A3" unicode="&#x4a3;" horiz-adv-x="484" 
d="M68 0v415h72v-170h196v170h72v-349h68v-176h-66v110h-74v179h-196v-179h-72z" />
    <glyph glyph-name="uni04A4" unicode="&#x4a4;" horiz-adv-x="820" 
d="M86 0v667h74v-271h342v271h304v-70h-230v-597h-74v326h-342v-326h-74z" />
    <glyph glyph-name="uni04A5" unicode="&#x4a5;" horiz-adv-x="586" 
d="M68 0v415h72v-170h196v170h246v-66h-174v-349h-72v179h-196v-179h-72z" />
    <glyph glyph-name="uni04AA" unicode="&#x4aa;" horiz-adv-x="646" 
d="M596 612v-92.001c-26.667 26.667 -55.667 47.334 -87 62.001c-36.667 17.333 -75 26 -115 26c-74.667 0 -138 -26 -190 -78c-52 -53.333 -78 -120 -78 -200c0 -78 25.333 -142.333 76 -193c52.667 -52.667 117 -79 193 -79c39.333 0 77.333 8.66699 114 26
c30 14 59 34.333 87 61v-92c-42.667 -32.667 -97 -53.667 -163 -63v-150h-70v150c-84.667 5.33301 -157 38.333 -217 99c-64 65.333 -96 146 -96 242s31.333 177.333 94 244c65.333 68.667 150.333 103 255 103c78 0 143.667 -22 197 -66z" />
    <glyph glyph-name="uni04AB" unicode="&#x4ab;" horiz-adv-x="438" 
d="M393 385l-0.00292969 -86.002c-33.333 41.333 -76.666 62 -129.999 62c-42 0 -77.333 -14.333 -106 -43c-27.333 -27.333 -41 -64.666 -41 -111.999c0 -43.333 12 -78.333 36 -105c28.667 -32.667 66.334 -49 113.001 -49c51.333 0 95 21.667 131 65v-86
c-26.667 -23.333 -58 -36.666 -94 -39.999v-111h-66v110c-53.333 4 -98.333 24.333 -135 61c-39.333 39.333 -59 90.333 -59 153c0 64 20.333 116.333 61 157c42.667 42.667 97.334 64 164.001 64c46 0 88 -13.333 126 -40z" />
    <glyph glyph-name="uni04AE" unicode="&#x4ae;" horiz-adv-x="530" 
d="M227 0v287l-219 380h86l170 -298l172 298h86l-221 -380v-287h-74z" />
    <glyph glyph-name="uni04AF" unicode="&#x4af;" horiz-adv-x="424" 
d="M8 415h80l124 -280l124 280h80l-168 -364v-281h-72v281z" />
    <glyph glyph-name="uni04B0" unicode="&#x4b0;" horiz-adv-x="530" 
d="M227 0v221h-190v66h190l-219 380h86l170 -298l172 298h86l-221 -380h190v-66h-190v-221h-74z" />
    <glyph glyph-name="uni04B1" unicode="&#x4b1;" horiz-adv-x="424" 
d="M8 415h80l124 -280l124 280h80l-168 -364v-51h120v-66h-120v-164h-72v164h-120v66h120v51z" />
    <glyph glyph-name="uni04B2" unicode="&#x4b2;" horiz-adv-x="520" 
d="M14 0l197 345l-179 322h84l138 -251l142 251h84l-183 -322l154 -275h55v-210h-70v140h-30l-153 274l-155 -274h-84z" />
    <glyph glyph-name="uni04B3" unicode="&#x4b3;" horiz-adv-x="454" 
d="M8 0l177 222l-151 193h88l107 -141l109 141h88l-152 -194l121 -155h51v-176h-66v110h-22l-131 169l-131 -169h-88z" />
    <glyph glyph-name="uni04B6" unicode="&#x4b6;" horiz-adv-x="594" 
d="M430 0l-0.000976562 286c-62 -4.66699 -108 -7 -138 -7c-79.333 0 -134.333 12 -165 36c-40.667 31.333 -61 83 -61 155v197h74v-187c0 -54 13.333 -90.667 40 -110c18.667 -14 57.334 -21 116.001 -21c39.333 0 84 2.33301 134 7v311h74v-597h76v-210h-70v140h-80z" />
    <glyph glyph-name="uni04B7" unicode="&#x4b7;" horiz-adv-x="438" 
d="M290 0v163c-39.333 -6 -72 -9 -98 -9c-45.333 0 -79 10 -101 30c-23.333 20.667 -35 54.667 -35 102v129h72v-119c0 -22.667 3 -39 9 -49c9.33301 -18 30.333 -27 63 -27c29.333 0 59.333 3 90 9v186h72v-349h68v-176h-66v110h-74z" />
    <glyph glyph-name="uni04B8" unicode="&#x4b8;" horiz-adv-x="620" 
d="M460 0l-0.000976562 285.999c-31.333 -2 -70 -4 -116 -6v-140h-66v139c-69.333 0 -119.666 12 -150.999 36c-40.667 30.667 -61 82.334 -61 155.001v197h74v-187c0 -54 13.333 -90.667 40 -110c21.333 -16 54 -23 98 -21v147h66v-146c43.333 1.33301 82 3.33301 116 6
v311h74v-667h-74z" />
    <glyph glyph-name="uni04B9" unicode="&#x4b9;" horiz-adv-x="460" 
d="M320 0l0.000976562 163c-20 -4 -41.333 -6 -64 -6v-102h-60v99c-44 -2.66699 -79 7.33301 -105 30c-23.333 20 -35 54 -35 102v129h72v-119c0 -23.333 3 -39.666 9 -48.999c11.333 -18.667 31 -27.334 59 -26.001v104h60v-103c19.333 0 40.666 2.33301 63.999 7v186h72
v-415h-72z" />
    <glyph glyph-name="uni04BA" unicode="&#x4ba;" horiz-adv-x="590" 
d="M160 667l0.000976562 -266c62 4.66699 108 7 138 7c79.333 0 134.333 -12 165 -36c40.667 -31.333 61 -83 61 -155v-217h-74v207c0 54 -13.333 90.667 -40 110c-18.667 14 -57.334 21 -116.001 21c-39.333 0 -84 -2.33301 -134 -7v-331h-74v667h74z" />
    <glyph glyph-name="uni04BB" unicode="&#x4bb;" horiz-adv-x="470" 
d="M68 0v728.999h72v-362c29.333 38.667 69 58 119 58c53.333 0 93 -19 119 -57c16 -23.333 24 -60.333 24 -111v-257h-72v255c0 34 -6.33301 59.333 -19 76c-15.333 20 -38 30 -68 30c-30.667 0 -55 -10.667 -73 -32c-20 -23.333 -30 -60.666 -30 -111.999v-217h-72z" />
    <glyph glyph-name="uni04C0" unicode="&#x4c0;" horiz-adv-x="246" 
d="M86 667h74v-667h-74v667z" />
    <glyph glyph-name="uni04C1" unicode="&#x4c1;" horiz-adv-x="810" 
d="M368 667h74v-286l254 286h92l-280 -311l288 -356h-94l-244 305l-16 -18v-287h-74v287l-16 18l-244 -305h-94l288 356l-280 311h92l254 -286v286zM250 818l70.0059 23c4 -12.667 10.167 -23.167 18.5 -31.5s17.666 -14 27.999 -17s18.166 -5 23.499 -6
s10.333 -1.5 15 -1.5s9.66699 0.5 15 1.5s13.166 3 23.499 6s19.666 8.66699 27.999 17s14.5 18.833 18.5 31.5l70 -23c-2.66699 -7.33301 -6.5 -15 -11.5 -23s-13.167 -18.333 -24.5 -31s-27.333 -23 -48 -31s-44.334 -12 -71.001 -12s-50.334 4 -71.001 12
s-36.667 18.333 -48 31s-19.5 23 -24.5 31s-8.83301 15.667 -11.5 23z" />
    <glyph glyph-name="uni04C2" unicode="&#x4c2;" horiz-adv-x="596" 
d="M262 415h72v-170l156 170h84l-180 -192l198 -223h-90l-154 175l-14 -14v-161h-72v161l-14 14l-154 -175h-90l198 223l-180 192h84l156 -170v170zM153 594l60.0039 23c12 -40 40.333 -60 85 -60s73 20 85 60l60 -23c-10.667 -30 -28.834 -53.667 -54.501 -71
s-55.834 -26 -90.501 -26s-64.834 8.66699 -90.501 26s-43.834 41 -54.501 71z" />
    <glyph glyph-name="uni04C3" unicode="&#x4c3;" horiz-adv-x="584" 
d="M86 667l73.999 -0.000976562v-306l284 306h100l-260 -272c80.667 0 141.334 -20.333 182.001 -61c50.667 -50 76 -125.333 76 -226c0 -95.333 -22.333 -166 -67 -212c-36 -37.333 -86.333 -56 -151 -56c-38.667 0 -75.667 7 -111 21l21 71c25.333 -14.667 54 -22 86 -22
c40.667 0 72.667 11 96 33c34 32.667 51 85.334 51 158.001c0 92 -23.333 156.333 -70 193c-30.667 24 -71.667 36 -123 36c-36.667 0 -74.667 -4.33301 -114 -13v-317h-74v667z" />
    <glyph glyph-name="uni04C4" unicode="&#x4c4;" horiz-adv-x="414" 
d="M68 415h71.999v-170l168 170h88l-182 -185c51.333 -3.33301 92.333 -20.333 123 -51c34 -34 51 -79 51 -135c0 -75.333 -26.333 -137.333 -79 -186c-41.333 -38 -90 -60 -146 -66v70c36 4.66699 68 20.667 96 48c35.333 34 53 76.667 53 128c0 44.667 -13 78.667 -39 102
c-23.333 20 -57.666 30 -102.999 30h-30v-170h-72v415z" />
    <glyph glyph-name="uni04C7" unicode="&#x4c7;" horiz-adv-x="662" 
d="M86 0l0.000976562 667.001h74v-271h342v271h74v-753c0 -52.667 -11.333 -90.334 -34 -113.001c-20.667 -20.667 -50.334 -31 -89.001 -31c-20 0 -37.667 3 -53 9v72c12.667 -6 26.667 -9 42 -9c20 0 34.667 4.33301 44 13c10.667 10 16 28.333 16 55v416h-342v-326h-74z
" />
    <glyph glyph-name="uni04C8" unicode="&#x4c8;" horiz-adv-x="476" 
d="M68 0v415h72v-170h196v170h72v-501c0 -50 -10.667 -86.333 -32 -109c-22.667 -23.333 -53 -35 -91 -35c-18 0 -35 3 -51 9v70c16.667 -6 32.334 -9 47.001 -9c21.333 0 36.666 7.33301 45.999 22c6 10 9 30 9 60v257h-196v-179h-72z" />
    </font>
</defs>
</svg>
